<?xml version="1.0" encoding="UTF-8" standalone="no"?>
<!-- Created with Inkscape (http://www.inkscape.org/) -->

<svg
   version="1.1"
   id="svg2"
   width="436.50668"
   height="132.58667"
   viewBox="0 0 436.50668 132.58667"
   sodipodi:docname="25021220239 - LB_Data-Path Logo.eps"
   xmlns:inkscape="http://www.inkscape.org/namespaces/inkscape"
   xmlns:sodipodi="http://sodipodi.sourceforge.net/DTD/sodipodi-0.dtd"
   xmlns="http://www.w3.org/2000/svg"
   xmlns:svg="http://www.w3.org/2000/svg">
  <defs
     id="defs6" />
  <sodipodi:namedview
     id="namedview4"
     pagecolor="#ffffff"
     bordercolor="#000000"
     borderopacity="0.25"
     inkscape:showpageshadow="2"
     inkscape:pageopacity="0.0"
     inkscape:pagecheckerboard="0"
     inkscape:deskcolor="#d1d1d1" />
  <g
     id="g8"
     inkscape:groupmode="layer"
     inkscape:label="ink_ext_XXXXXX"
     transform="matrix(1.3333333,0,0,-1.3333333,0,132.58667)">
    <g
       id="g10"
       transform="scale(0.1)">
      <path
         d="M 3273.76,0 H 0 V 994.449 H 3273.76 V 0"
         style="fill:#231f20;fill-opacity:1;fill-rule:nonzero;stroke:none"
         id="path12" />
      <path
         d="m 535.039,647.781 v -53.093 c -12.594,5.496 -22.812,9.238 -30.68,11.21 -7.871,1.961 -16.328,2.95 -25.371,2.95 -30.293,0 -55.851,-9.446 -76.699,-28.321 -20.851,-18.879 -31.269,-42.48 -31.269,-70.8 0,-26.36 9.441,-48.977 28.32,-67.852 18.883,-18.879 41.687,-28.32 68.437,-28.32 27.926,0 51.426,10.32 70.508,30.976 19.074,20.653 28.613,46.317 28.613,76.992 v 273.172 h 50.743 V 520.938 c 0,-47.598 -13.18,-85.547 -39.532,-113.868 -26.355,-28.32 -61.945,-42.48 -106.789,-42.48 -44.449,0 -80.636,13.758 -108.562,41.297 -27.93,27.531 -41.887,62.929 -41.887,106.203 0,43.652 14.25,79.148 42.777,106.492 28.512,27.336 65.196,41.008 110.036,41.008 10.617,0 19.855,-0.801 27.726,-2.363 7.863,-1.575 19.074,-4.719 33.629,-9.446"
         style="fill:#4b78c5;fill-opacity:1;fill-rule:nonzero;stroke:none"
         id="path14" />
      <path
         d="m 874.281,378.75 c -14.949,-5.52 -26.941,-9.25 -35.984,-11.211 -9.055,-1.965 -18.883,-2.949 -29.5,-2.949 -43.664,0 -79.949,14.051 -108.859,42.176 -28.907,28.125 -43.364,63.222 -43.364,105.324 0,42.48 14.649,78.367 43.953,107.676 29.297,29.297 65.391,43.953 108.27,43.953 44.441,0 80.039,-14.754 106.789,-44.258 26.742,-29.492 40.117,-68.828 40.117,-117.996 v -132.16 h -51.328 v 130.39 c 0,33.43 -9.145,60.86 -27.437,82.305 -18.29,21.438 -41.797,32.16 -70.5,32.16 -26.754,0 -49.665,-9.941 -68.739,-29.797 -19.082,-19.871 -28.617,-43.574 -28.617,-71.093 0,-28.719 10.121,-52.618 30.387,-71.688 20.254,-19.082 45.328,-28.613 75.222,-28.613 11.012,0 20.153,0.976 27.438,2.949 7.277,1.961 17.992,6.875 32.152,14.746 V 378.75"
         style="fill:#4b78c5;fill-opacity:1;fill-rule:nonzero;stroke:none"
         id="path16" />
      <path
         d="m 1130.87,367.227 -62.25,0.441 c -23.64,0 -38.59,-0.438 -51.38,21.793 -13.87,24.098 -14.8,49.465 -14.8,75.422 v 275.535 h 51.33 v -86.141 h 59 v -47.199 h -59 V 464.883 c 0,-15.332 1.62,-33.555 10.87,-43.582 9.23,-10.039 24.13,-9.5 38.69,-9.516 5.42,-0.004 27.55,-0.402 27.55,-0.402 l -0.01,-44.156"
         style="fill:#4b78c5;fill-opacity:1;fill-rule:nonzero;stroke:none"
         id="path18" />
      <path
         d="m 1345.1,378.75 c -14.95,-5.52 -26.95,-9.25 -35.99,-11.211 -9.05,-1.965 -18.88,-2.949 -29.5,-2.949 -43.66,0 -79.95,14.051 -108.86,42.176 -28.9,28.125 -43.36,63.222 -43.36,105.324 0,42.48 14.65,78.367 43.95,107.676 29.3,29.297 65.39,43.953 108.27,43.953 44.44,0 80.04,-14.754 106.79,-44.258 26.75,-29.492 40.12,-68.828 40.12,-117.996 v -132.16 h -51.33 v 130.39 c 0,33.43 -9.14,60.86 -27.44,82.305 -18.29,21.438 -41.79,32.16 -70.5,32.16 -26.75,0 -49.66,-9.941 -68.73,-29.797 -19.09,-19.871 -28.62,-43.574 -28.62,-71.093 0,-28.719 10.12,-52.618 30.38,-71.688 20.26,-19.082 45.33,-28.613 75.23,-28.613 11.01,0 20.15,0.976 27.43,2.949 7.28,1.961 18,6.875 32.16,14.746 V 378.75"
         style="fill:#4b78c5;fill-opacity:1;fill-rule:nonzero;stroke:none"
         id="path20" />
      <path
         d="m 1468.99,516.219 v 54.863 h 155.77 v -54.863 h -155.77"
         style="fill:#4b78c5;fill-opacity:1;fill-rule:nonzero;stroke:none"
         id="path22" />
      <path
         d="m 1667.23,241.863 v 279.66 c 0,38.543 14.84,71.688 44.55,99.415 29.69,27.734 64.99,41.601 105.9,41.601 41.69,0 76.7,-14.16 105.02,-42.48 28.32,-28.321 42.48,-63.528 42.48,-105.618 0,-43.652 -14.66,-79.55 -43.95,-107.675 -29.31,-28.125 -66.58,-42.176 -111.81,-42.176 -18.1,0 -40.12,4.519 -66.08,13.562 v 51.328 c 13.77,-4.714 24.58,-7.871 32.45,-9.433 7.86,-1.582 16.52,-2.363 25.96,-2.363 35.4,0 62.73,8.261 82.01,24.785 19.27,16.515 28.91,39.914 28.91,70.207 0,28.711 -9.25,52.703 -27.73,71.98 -18.49,19.27 -41.5,28.907 -69.03,28.907 -26.75,0 -49.66,-9.344 -68.73,-28.028 -19.09,-18.68 -28.62,-41.59 -28.62,-68.73 V 241.863 h -51.33"
         style="fill:#ffffff;fill-opacity:1;fill-rule:nonzero;stroke:none"
         id="path24" />
      <path
         d="m 2208.84,378.75 c -14.95,-5.52 -26.94,-9.25 -35.98,-11.211 -9.06,-1.965 -18.88,-2.949 -29.5,-2.949 -43.67,0 -79.95,14.051 -108.86,42.176 -28.91,28.125 -43.37,63.222 -43.37,105.324 0,42.48 14.65,78.367 43.96,107.676 29.3,29.297 65.39,43.953 108.27,43.953 44.44,0 80.03,-14.754 106.79,-44.258 26.74,-29.492 40.11,-68.828 40.11,-117.996 v -132.16 h -51.32 v 130.39 c 0,33.43 -9.15,60.86 -27.44,82.305 -18.29,21.438 -41.8,32.16 -70.5,32.16 -26.76,0 -49.67,-9.941 -68.74,-29.797 -19.08,-19.871 -28.62,-43.574 -28.62,-71.093 0,-28.719 10.13,-52.618 30.39,-71.688 20.25,-19.082 45.33,-28.613 75.22,-28.613 11.01,0 20.15,0.976 27.44,2.949 7.28,1.961 17.99,6.875 32.15,14.746 V 378.75"
         style="fill:#ffffff;fill-opacity:1;fill-rule:nonzero;stroke:none"
         id="path26" />
      <path
         d="m 2451.33,367.488 -20.06,-1.718 c -23.21,0 -44.06,10.031 -62.54,30.089 -18.49,20.059 -27.73,43.067 -27.73,69.024 v 275.535 h 51.33 v -86.141 h 59 v -47.199 h -59 V 464.883 c 0,-15.332 4.62,-28.02 13.87,-38.047 9.23,-10.039 21.13,-15.051 35.69,-15.051 4.33,0 7.47,0 9.44,0 v -44.297"
         style="fill:#ffffff;fill-opacity:1;fill-rule:nonzero;stroke:none"
         id="path28" />
      <path
         d="m 2476.7,369.305 v 425.39 h 51.33 V 627.137 c 7.46,5.898 13.27,10.226 17.41,12.98 4.13,2.742 8.74,5.106 13.86,7.078 18.88,9.043 38.35,13.575 58.41,13.575 35.4,0 64.9,-11.61 88.5,-34.813 23.6,-23.215 35.4,-52.121 35.4,-86.73 V 369.305 h -51.33 v 166.379 c 0,20.449 -7.29,37.761 -21.83,51.921 -14.56,14.161 -32.65,21.243 -54.28,21.243 -23.6,0 -43.86,-7.285 -60.77,-21.828 -16.92,-14.559 -25.37,-32.071 -25.37,-52.52 V 369.305 h -51.33"
         style="fill:#ffffff;fill-opacity:1;fill-rule:nonzero;stroke:none"
         id="path30" />
    </g>
  </g>
</svg>
