<?xml version="1.0" encoding="UTF-8" standalone="no"?>
<!-- Created with Inkscape (http://www.inkscape.org/) -->

<svg
   version="1.1"
   id="svg2"
   width="868.18665"
   height="183.24001"
   viewBox="0 0 868.18665 183.24001"
   sodipodi:docname="babcock (no TM).eps"
   xmlns:inkscape="http://www.inkscape.org/namespaces/inkscape"
   xmlns:sodipodi="http://sodipodi.sourceforge.net/DTD/sodipodi-0.dtd"
   xmlns="http://www.w3.org/2000/svg"
   xmlns:svg="http://www.w3.org/2000/svg">
  <defs
     id="defs6" />
  <sodipodi:namedview
     id="namedview4"
     pagecolor="#ffffff"
     bordercolor="#000000"
     borderopacity="0.25"
     inkscape:showpageshadow="2"
     inkscape:pageopacity="0.0"
     inkscape:pagecheckerboard="0"
     inkscape:deskcolor="#d1d1d1" />
  <g
     id="g8"
     inkscape:groupmode="layer"
     inkscape:label="ink_ext_XXXXXX"
     transform="matrix(1.3333333,0,0,-1.3333333,0,183.24)">
    <g
       id="g10"
       transform="scale(0.1)">
      <path
         d="m 457.406,13.5586 c -55.75,0 -113.402,7.5 -163.258,32.582 -27.035,13.4102 -51.96,32.5 -82.644,30.8399 0,-23.1914 5.609,-48.0508 -26.969,-48.0508 H 25.0742 C 11.5117,28.9297 0,40.3789 0,53.7891 V 1349.2 c 0,13.4 11.5117,25.07 25.0742,25.07 H 205.602 c 13.48,0 25.074,-11.67 25.074,-25.07 V 945.504 c 36.437,0 46.129,5.828 78.781,19.383 61.516,26.758 119.234,40.233 186.285,40.233 276.953,0 426.801,-232.565 426.801,-490.057 C 922.543,236.43 749.52,13.5586 457.406,13.5586 M 420.895,845.648 c -46.133,0 -92.2,-9.609 -132.719,-32.644 -44.168,-25 -57.5,-54.004 -57.5,-103.711 V 317.191 c 0,-113.48 98.019,-144.101 194.082,-144.101 70.984,0 140.371,26.89 190.222,76.762 67.2,67.339 76.961,171.128 76.961,261.343 0,178.86 -69.089,334.453 -271.046,334.453"
         style="fill:#4e63b8;fill-opacity:1;fill-rule:nonzero;stroke:none"
         id="path12" />
      <path
         d="m 1767.34,28.9297 h -159.47 c -30.83,0 -26.89,26.8398 -25.22,48.0508 h -17.05 c -34.55,0 -61.66,-15.6914 -92.27,-28.9492 -63.48,-28.793 -107.72,-38.40239 -176.96,-38.40239 -176.66,0 -311.35,94.08209 -311.35,280.51209 0,197.89 138.4,259.55 305.74,315.214 l 197.87,65.313 c 40.38,13.477 74.86,17.422 74.86,69.16 0,86.66 -96.14,105.754 -165.23,105.754 -109.47,0 -207.57,-32.727 -303.63,-78.781 -9.54,-3.867 -19.24,-9.629 -30.83,-9.629 -17.13,0 -21.06,17.277 -21.06,30.832 v 105.75 c 0,30.684 11.44,38.34 38.48,49.922 105.68,44.101 236.36,61.524 349.84,61.524 180.6,0 361.27,-51.973 361.27,-265.372 V 53.7891 c 0,-13.4102 -11.44,-24.8594 -24.99,-24.8594 M 1561.73,530.375 1415.6,482.348 c -84.61,-26.973 -199.91,-67.285 -199.91,-173.028 0,-99.84 88.41,-136.23 174.92,-136.23 46.13,0 94.16,7.601 130.75,36.39 36.51,28.77 40.37,61.418 40.37,105.661 v 215.234"
         style="fill:#4e63b8;fill-opacity:1;fill-rule:nonzero;stroke:none"
         id="path14" />
      <path
         d="m 2400.19,13.5586 c -55.83,0 -113.4,7.5 -163.55,32.582 -26.82,13.4102 -51.89,32.5 -82.65,30.8399 0,-23.1914 5.98,-48.0508 -26.82,-48.0508 h -159.53 c -13.42,0 -25,11.4492 -25,24.8594 V 1349.2 c 0,13.4 11.58,25.07 25,25.07 h 180.52 c 13.56,0 25.08,-11.67 25.08,-25.07 V 945.504 c 36.58,0 46.2,5.828 78.85,19.383 61.52,26.758 119.09,40.233 186.43,40.233 276.81,0 426.73,-232.565 426.73,-490.057 0,-278.633 -173.09,-501.5044 -465.06,-501.5044 m -36.66,832.0894 c -46.06,0 -92.27,-9.609 -132.57,-32.644 -44.32,-25 -57.72,-54.004 -57.72,-103.711 V 317.191 c 0,-113.48 98.02,-144.101 194.23,-144.101 71.05,0 140.15,26.89 190,76.762 67.34,67.339 77.04,171.128 77.04,261.343 0,178.86 -69.17,334.453 -270.98,334.453"
         style="fill:#4e63b8;fill-opacity:1;fill-rule:nonzero;stroke:none"
         id="path16" />
      <path
         d="m 3688.21,67.2695 c -75,-34.5507 -197.88,-53.7109 -280.6,-53.7109 -305.67,0 -474.83,188.2614 -474.83,487.8714 0,292.402 182.79,507.56 482.56,507.56 71.06,0 144.08,-9.474 211.43,-28.72 36.44,-9.766 94.09,-19.309 94.09,-67.344 v -103.86 c 0,-11.367 -5.83,-22.812 -19.17,-22.812 -11.74,0 -27.03,5.684 -36.8,11.445 -65.02,32.727 -138.26,51.739 -211.22,51.739 -213.33,0 -290.14,-140.145 -290.14,-338.243 0,-188.394 69.09,-334.375 278.71,-334.375 78.71,0 159.46,21.129 228.47,57.719 9.77,5.762 21.29,11.359 32.87,11.359 26.9,0 17.28,-107.558 17.28,-126.738 0,-34.3905 -3.94,-38.3397 -32.65,-51.8905"
         style="fill:#4e63b8;fill-opacity:1;fill-rule:nonzero;stroke:none"
         id="path18" />
      <path
         d="M 4555.21,103.93 C 4461.05,19.2383 4355.22,0 4232.13,0 c -122.74,0 -224.78,19.2383 -318.94,103.93 -115.15,103.5 -149.84,251.601 -149.84,401.445 0,152.031 34.69,298.086 151.96,401.867 99.78,86.434 201.67,101.748 330.52,101.748 317.04,0 459.31,-207.353 459.31,-507.189 0,-150.211 -32.58,-294.371 -149.93,-397.871 m -319.15,745.508 c -188.25,0 -242.11,-184.375 -242.11,-340.137 0,-155.66 51.74,-347.871 242.11,-347.871 186.44,0 238.48,186.519 238.48,340.371 0,151.738 -52.04,347.637 -238.48,347.637"
         style="fill:#4e63b8;fill-opacity:1;fill-rule:nonzero;stroke:none"
         id="path20" />
      <path
         d="m 5538.84,67.2695 c -75,-34.5507 -198.39,-53.7109 -281.55,-53.7109 -305.88,0 -474.76,188.2614 -474.76,487.8714 0,292.402 182.5,507.56 482.56,507.56 71.42,0 144.82,-9.474 212.3,-28.72 36.53,-9.766 94.16,-19.309 94.16,-67.344 v -103.86 c 0,-11.367 -5.68,-22.812 -19.24,-22.812 -11.58,0 -26.96,5.684 -36.5,11.445 -65.38,32.727 -138.77,51.739 -212.09,51.739 -213.91,0 -290.59,-140.145 -290.59,-338.243 0,-188.394 68.95,-334.375 279,-334.375 79.07,0 160.26,21.129 229.29,57.719 9.68,5.762 21.29,11.359 32.79,11.359 26.97,0 17.34,-107.558 17.34,-126.738 0,-34.3905 -3.79,-38.3397 -32.71,-51.8905"
         style="fill:#4e63b8;fill-opacity:1;fill-rule:nonzero;stroke:none"
         id="path22" />
      <path
         d="m 6480.69,28.9297 h -205.67 c -32.8,0 -36.44,7.6601 -53.86,32.5195 L 5942.45,466.879 c -11.43,17.363 -28.71,13.418 -48.1,13.418 V 53.7891 c 0,-13.4102 -11.43,-24.8594 -25,-24.8594 h -180.59 c -13.34,0 -24.93,11.4492 -24.93,24.8594 V 1349.2 c 0,13.4 11.59,25.14 24.93,25.14 h 180.59 c 13.57,0 25,-11.74 25,-25.14 V 620.824 h 23.11 c 13.56,0 19.31,3.711 28.78,13.399 L 6236.4,961.02 c 15.44,17.355 23.32,28.867 46.2,28.867 h 176.96 c 11.37,0 26.9,-7.723 26.9,-21.211 0,-13.406 -13.64,-26.895 -21.15,-36.434 L 6130.79,574.75 6492.06,88.3984 c 9.7,-11.4179 19.32,-25 19.32,-40.3671 0,-15.3125 -19.32,-19.1016 -30.69,-19.1016"
         style="fill:#4e63b8;fill-opacity:1;fill-rule:nonzero;stroke:none"
         id="path24" />
    </g>
  </g>
</svg>
