<?xml version="1.0" encoding="UTF-8" standalone="no"?>
<!-- Created with Inkscape (http://www.inkscape.org/) -->

<svg
   version="1.1"
   id="svg2"
   width="869.5733"
   height="312.74667"
   viewBox="0 0 869.5733 312.74667"
   sodipodi:docname="25021226556 - Reverse_Proplastic White Wording 230mm.eps"
   xmlns:inkscape="http://www.inkscape.org/namespaces/inkscape"
   xmlns:sodipodi="http://sodipodi.sourceforge.net/DTD/sodipodi-0.dtd"
   xmlns="http://www.w3.org/2000/svg"
   xmlns:svg="http://www.w3.org/2000/svg">
  <defs
     id="defs6" />
  <sodipodi:namedview
     id="namedview4"
     pagecolor="#ffffff"
     bordercolor="#000000"
     borderopacity="0.25"
     inkscape:showpageshadow="2"
     inkscape:pageopacity="0.0"
     inkscape:pagecheckerboard="0"
     inkscape:deskcolor="#d1d1d1" />
  <g
     id="g8"
     inkscape:groupmode="layer"
     inkscape:label="ink_ext_XXXXXX"
     transform="matrix(1.3333333,0,0,-1.3333333,0,312.74667)">
    <g
       id="g10"
       transform="scale(0.1)">
      <path
         d="m 1050.8,1810.48 c -195.366,155.9 -369.288,250.67 -646.402,406.36 -50.293,28.25 -93.171,56.3 -128.636,83.75 -41.879,32.66 -36.266,47.49 16.629,44.69 18.035,-1.01 48.492,-8.82 91.371,-23.45 248.258,-85.36 478.285,-187.54 690.278,-306.56 125.43,-70.54 266.09,-163.31 346.24,-282.13 47.89,-71.13 35.27,-174.72 -14.23,-247.26 -76.74,-112.6 -183.34,-185.14 -319.79,-217.2 -44.48,-10.42 -71.53,9.62 -81.55,60.11 -3.41,17.03 8.02,41.28 33.86,73.14 45.09,55.7 80.55,105.39 106.4,148.68 58.71,98.98 -18.03,199.36 -94.17,259.87 v 0"
         style="fill:#38b640;fill-opacity:1;fill-rule:nonzero;stroke:none"
         id="path12" />
      <path
         d="m 731.203,413.5 c -65.32,0 -118.219,341.832 -118.219,763.61 0,421.78 52.899,763.62 118.219,763.62 65.32,0 118.219,-341.84 118.219,-763.62 0,-421.778 -52.899,-763.61 -118.219,-763.61 v 0"
         style="fill:#38b640;fill-opacity:1;fill-rule:nonzero;stroke:none"
         id="path14" />
      <path
         d="m 1636.68,1052.68 2,-290.129 c 0,-2.813 2.21,-5.012 5.01,-5.012 l 265.9,1.801 c 81.55,0.601 147.07,63.121 146.47,139.66 v 22.84 c -0.6,76.539 -67.13,138.26 -148.48,137.66 l -265.89,-1.81 c -2.81,0 -5.01,-2.2 -5.01,-5.01 z m 1,-405.95 V 323.531 c 0,-4.41 -2.2,-6.609 -6.61,-6.609 h -95.78 c -6.21,0 -9.41,3.207 -9.41,9.418 v 823.12 c 0,4.61 3.6,8.22 8.01,8.22 80.35,0.8 179.33,1.2 297.35,1.2 105.6,0 179.93,-11.62 223.01,-35.07 173.93,-94.37 156.29,-403.939 -63.91,-451.431 -24.65,-5.41 -37.47,-8.02 -38.08,-8.219 -19.63,-4.199 -32.45,-6.211 -38.27,-6.211 -70.93,-1.199 -159.09,-1.199 -264.69,0.199 -7.81,0.204 -11.62,-3.597 -11.62,-11.418"
         style="fill:#ffffff;fill-opacity:1;fill-rule:nonzero;stroke:none"
         id="path16" />
      <path
         d="m 3399.94,1052.68 2.01,-290.129 c 0,-2.813 2.2,-5.012 5.01,-5.012 l 265.89,1.801 c 81.55,0.601 147.07,63.121 146.47,139.66 v 22.84 c -0.6,76.539 -67.12,138.26 -148.47,137.66 l -265.9,-1.81 c -2.8,0 -5.01,-2.2 -5.01,-5.01 z m 1.01,-405.95 V 323.531 c 0,-4.41 -2.21,-6.609 -6.62,-6.609 h -95.77 c -6.21,0 -9.42,3.207 -9.42,9.418 v 823.12 c 0,4.61 3.61,8.22 8.01,8.22 80.35,0.8 179.34,1.2 297.35,1.2 105.6,0 179.94,-11.62 223.02,-35.07 173.92,-94.37 156.29,-403.939 -63.92,-451.431 -24.65,-5.41 -37.47,-8.02 -38.07,-8.219 -19.64,-4.199 -32.46,-6.211 -38.27,-6.211 -70.93,-1.199 -159.1,-1.199 -264.69,0.199 -7.82,0.204 -11.62,-3.597 -11.62,-11.418"
         style="fill:#ffffff;fill-opacity:1;fill-rule:nonzero;stroke:none"
         id="path18" />
      <path
         d="m 4139.71,324.738 c 0,-4.406 -3.6,-8.019 -8.01,-8.019 h -89.77 c -4.41,0 -8.01,3.613 -8.01,8.019 v 825.522 c 0,4.41 3.6,8.02 8.01,8.02 h 89.77 c 4.41,0 8.01,-3.61 8.01,-8.02 v -825.522 0"
         style="fill:#ffffff;fill-opacity:1;fill-rule:nonzero;stroke:none"
         id="path20" />
      <path
         d="m 5885.82,1066 c -0.07,-4.3 -3.48,-7.71 -7.6,-7.63 l -90.57,-0.15 c -4.29,0.07 -7.7,3.48 -7.62,7.59 l -0.15,84.56 c 0.07,4.3 3.48,7.71 7.6,7.63 l 90.57,0.16 c 4.29,-0.08 7.7,-3.49 7.62,-7.6 l 0.15,-84.56 v 0"
         style="fill:#ffffff;fill-opacity:1;fill-rule:nonzero;stroke:none"
         id="path22" />
      <path
         d="m 5612.44,937.871 h 90.37 c 3.6,0 5.41,-1.801 5.41,-5.41 v -86.762 c 0,-4.41 -3.41,-7.82 -7.82,-7.82 h -87.96 c -6.61,0 -9.82,-3.199 -10.02,-9.809 -0.6,-152.082 -0.2,-275.511 0.8,-370.691 0.8,-68.129 48.89,-59.707 97.99,-61.707 8.61,-0.203 12.82,-4.613 12.82,-13.231 V 311.91 c 0,-4.41 -2.21,-7.211 -6.61,-8.41 -100.19,-26.051 -204.98,-0.398 -207.99,123.832 -3,125.629 -3.81,258.668 -2.4,399.527 0.2,7.223 -3.41,10.821 -10.62,10.821 h -50.5 c -9.41,0 -14.22,4.808 -14.22,14.23 v 72.129 c 0,9.422 4.81,14.231 14.22,14.231 h 51.5 c 6.21,0 9.42,3.21 9.42,9.421 v 135.449 c 0,2.8 1.2,5.01 3.6,6.61 l 97.18,59.71 c 2.01,1.4 4.81,-0.2 4.81,-2.6 V 948.09 c 0,-6.809 3.41,-10.219 10.02,-10.219 v 0"
         style="fill:#ffffff;fill-opacity:1;fill-rule:nonzero;stroke:none"
         id="path24" />
      <path
         d="M 305.414,794.809 C 246.707,695.82 323.648,595.441 399.789,534.922 595.352,379.039 769.273,284.262 1046.59,128.77 1096.88,100.52 1139.76,72.4688 1175.23,45.0195 1217.1,12.3594 1211.69,-2.46875 1158.6,0.332031 1140.56,1.33984 1110.11,9.14844 1067.23,23.7813 818.969,108.941 588.742,211.129 376.547,330.148 251.117,400.68 110.254,493.25 30.1055,612.07 -17.7813,683.199 -5.16016,786.988 44.1328,859.531 120.875,972.332 227.672,1044.67 364.125,1076.93 c 44.281,10.42 71.531,-9.62 81.551,-60.11 3.406,-17.039 -8.016,-41.281 -33.863,-73.14 C 366.73,887.781 331.266,838.289 305.414,794.809 v 0"
         style="fill:#38b640;fill-opacity:1;fill-rule:nonzero;stroke:none"
         id="path26" />
      <path
         d="m 2365.63,875.762 c 0,-15.032 4.61,-14.231 14.03,2.398 51.49,87.961 124.83,103.59 220,46.891 3.21,-1.813 4.21,-4.61 3.01,-8.02 l -29.46,-84.75 c -1.4,-4.211 -3.8,-5.011 -7.21,-2.41 -68.73,48.09 -124.83,35.27 -168.31,-38.672 -11.02,-19.039 -17.23,-63.519 -18.43,-133.847 -2.81,-170.922 -3.61,-281.321 -2.61,-331.211 0.2,-6.211 -3,-9.422 -9.22,-9.422 h -86.36 c -7.01,0 -10.42,3.41 -10.42,10.422 v 596.3 c 0,9.821 4.81,14.629 14.63,14.629 h 64.52 c 10.62,0 15.83,-5.211 15.83,-15.629 v -46.679 0"
         style="fill:#ffffff;fill-opacity:1;fill-rule:nonzero;stroke:none"
         id="path28" />
      <path
         d="m 2883.6,392.66 c 102.78,0.199 185.93,105.399 185.73,234.961 -0.2,129.52 -83.75,234.508 -186.55,234.309 -102.78,-0.2 -185.94,-105.399 -185.74,-234.961 0.2,-129.52 83.76,-234.508 186.56,-234.309 z m 280.91,166.512 c 0,-142.672 -115.82,-258.481 -258.48,-258.481 h -46.08 c -142.67,0 -258.48,115.809 -258.48,258.481 V 695.02 c 0,142.66 115.81,258.48 258.48,258.48 h 46.08 c 142.66,0 258.48,-115.82 258.48,-258.48 V 559.172"
         style="fill:#ffffff;fill-opacity:1;fill-rule:nonzero;stroke:none"
         id="path30" />
      <path
         d="m 4598.76,596.84 c -49.49,-8.02 -100.78,-16.031 -153.88,-24.25 -143.07,-22.238 -109,-177.121 20.44,-175.918 138.05,1.199 207.58,68.93 208.78,203.168 0,6.82 -3.4,10.422 -10.22,10.82 -23.84,1.211 -49.49,-11.219 -65.12,-13.82 z m 83.36,-218.199 c -1,8.211 -4.81,9.609 -11.22,4.597 -90.37,-72.726 -181.94,-99.976 -275.11,-82.148 -86.96,16.832 -137.06,65.121 -150.08,145.07 -24.85,153.281 101.39,226.82 238.04,231.43 6.61,0.199 13.03,2 19.04,5.012 19.03,9.82 32.86,1.796 57.1,7.007 43.88,9.621 75.94,17.032 95.98,22.243 9.62,2.41 16.43,11.019 16.63,20.839 2.2,124.629 -104.99,133.45 -198.37,123.43 -56.7,-6.211 -94.17,-37.473 -112.2,-94.18 -1.21,-3.402 -3.61,-4.8 -7.22,-4 l -87.56,20.231 c -3.41,0.808 -5.41,4.008 -4.61,7.418 18.23,80.949 66.73,132.64 145.27,154.89 93.37,26.239 181.14,24.84 263.49,-4.21 76.94,-27.25 97.78,-84.36 100.18,-166.309 2.61,-77.539 2.81,-163.699 0.81,-258.082 -1.41,-72.328 7.21,-133.649 26.24,-183.539 3.01,-7.809 0.2,-11.621 -8.21,-11.621 h -82.55 c -9.82,0 -18.04,7.211 -19.44,16.832 l -6.21,45.09"
         style="fill:#ffffff;fill-opacity:1;fill-rule:nonzero;stroke:none"
         id="path32" />
      <path
         d="m 4883.49,496.648 91.57,19.84 c 3.81,0.801 6.01,-0.597 6.81,-4.207 20.84,-89.16 86.16,-127.031 196.17,-113.609 23.64,3.008 44.28,9.816 61.91,20.437 39.27,23.84 58.11,80.551 19.04,113.61 -10.62,9.023 -29.26,17.031 -55.51,24.051 -63.11,16.429 -125.43,34.859 -187.14,55.3 -173.92,57.5 -156.49,278.711 9.21,331.012 84.16,26.648 166.71,19.84 247.86,-20.043 47.29,-23.238 76.54,-67.519 87.57,-132.641 1.4,-7.617 -1.81,-12.226 -9.42,-13.828 l -76.54,-16.629 c -7.62,-1.8 -12.63,1.2 -14.83,8.618 -22.64,73.132 -81.95,101.781 -178.13,86.16 -42.88,-7.02 -90.37,-26.047 -87.76,-72.739 1.4,-28.05 20.63,-47.089 57.5,-57.3 93.78,-26.25 161.5,-46.09 202.98,-59.918 196.16,-65.321 162.1,-292.942 -17.83,-352.852 -71.94,-23.84 -145.87,-22.441 -221.61,4.012 -74.74,26.25 -120.43,84.148 -136.86,173.32 -0.6,3.406 1.61,6.809 5.01,7.406 v 0"
         style="fill:#ffffff;fill-opacity:1;fill-rule:nonzero;stroke:none"
         id="path34" />
      <path
         d="m 5885.55,324.129 c 0,-4 -3.21,-7.207 -7.22,-7.207 h -90.97 c -4,0 -7.21,3.207 -7.21,7.207 v 606.73 c 0,4 3.21,7.211 7.21,7.211 h 90.97 c 4.01,0 7.22,-3.211 7.22,-7.211 v -606.73 0"
         style="fill:#ffffff;fill-opacity:1;fill-rule:nonzero;stroke:none"
         id="path36" />
      <path
         d="m 6237.8,725.082 c 0.6,0 1.2,0.199 1.8,0.398 1.2,0.399 1.8,0.801 2.01,1 46.68,69.93 93.37,139.258 140.05,207.782 1.81,2.609 4.41,3.808 7.42,3.808 h 112.41 c 2.4,0 3.8,-2.601 2.4,-4.609 L 6306.53,648.332 c -4.41,-6.211 -4.41,-14.223 0,-20.434 L 6521.52,320.73 c 0.8,-1.199 0,-3.011 -1.6,-3.011 h -113.61 c -3.81,0 -6.61,1.613 -8.82,4.613 -51.49,73.34 -102.59,149.078 -153.08,227.418 -2,3.211 -4.01,4.609 -6.21,4.609 -2.2,0 -4.21,-1.398 -6.21,-4.609 -50.1,-78.539 -100.79,-154.48 -152.08,-228.219 -2.21,-3.011 -5.01,-4.609 -8.82,-4.609 l -113.61,-0.402 c -1.6,-0.2 -2.4,1.601 -1.6,2.812 L 6169.47,627.5 c 4.21,6.211 4.21,14.422 -0.2,20.43 L 5970.7,932.262 c -1.4,2 0,4.609 2.41,4.609 l 112.41,0.399 c 3,0.199 5.41,-1.2 7.41,-3.61 47.09,-68.32 93.97,-137.449 141.06,-207.18 0,-0.199 0.8,-0.601 2.01,-1 0.6,-0.199 1.2,-0.398 1.8,-0.398 v 0"
         style="fill:#ffffff;fill-opacity:1;fill-rule:nonzero;stroke:none"
         id="path38" />
    </g>
  </g>
</svg>
