<?xml version="1.0" encoding="UTF-8" standalone="no"?>
<!-- Created with Inkscape (http://www.inkscape.org/) -->

<svg
   version="1.1"
   id="svg2"
   width="320.73334"
   height="115.36"
   viewBox="0 0 320.73334 115.36"
   sodipodi:docname="25021221435 - Shirt_LB Proplastic Black Wording (1).eps"
   xmlns:inkscape="http://www.inkscape.org/namespaces/inkscape"
   xmlns:sodipodi="http://sodipodi.sourceforge.net/DTD/sodipodi-0.dtd"
   xmlns="http://www.w3.org/2000/svg"
   xmlns:svg="http://www.w3.org/2000/svg">
  <defs
     id="defs6" />
  <sodipodi:namedview
     id="namedview4"
     pagecolor="#ffffff"
     bordercolor="#000000"
     borderopacity="0.25"
     inkscape:showpageshadow="2"
     inkscape:pageopacity="0.0"
     inkscape:pagecheckerboard="0"
     inkscape:deskcolor="#d1d1d1" />
  <g
     id="g8"
     inkscape:groupmode="layer"
     inkscape:label="ink_ext_XXXXXX"
     transform="matrix(1.3333333,0,0,-1.3333333,0,115.36)">
    <g
       id="g10"
       transform="scale(0.1)">
      <path
         d="m 387.582,667.789 c -72.059,57.5 -136.211,92.457 -238.422,149.883 -18.551,10.418 -34.363,20.766 -47.445,30.891 -15.4494,12.046 -13.3791,17.515 6.133,16.48 6.652,-0.367 17.886,-3.25 33.703,-8.645 91.566,-31.484 176.41,-69.175 254.601,-113.078 46.266,-26.015 98.149,-60.234 127.711,-104.058 17.664,-26.239 13.008,-64.446 -5.246,-91.199 -28.308,-41.536 -67.625,-68.29 -117.953,-80.114 -16.41,-3.844 -26.387,3.547 -30.082,22.168 -1.258,6.285 2.957,15.227 12.492,26.977 16.629,20.547 29.707,38.875 39.242,54.84 21.657,36.507 -6.652,73.535 -34.734,95.855 v 0"
         style="fill:#38b640;fill-opacity:1;fill-rule:nonzero;stroke:none"
         id="path12" />
      <path
         d="m 269.699,152.516 c -24.09,0 -43.601,126.086 -43.601,281.656 0,155.57 19.511,281.656 43.601,281.656 24.098,0 43.606,-126.086 43.606,-281.656 0,-155.57 -19.508,-281.656 -43.606,-281.656 v 0"
         style="fill:#38b640;fill-opacity:1;fill-rule:nonzero;stroke:none"
         id="path14" />
      <path
         d="m 603.684,388.277 0.738,-107.015 c 0,-1.035 0.812,-1.848 1.848,-1.848 l 98.074,0.664 c 30.078,0.223 54.246,23.281 54.023,51.512 v 8.426 c -0.222,28.23 -24.758,50.996 -54.765,50.773 l -98.071,-0.664 c -1.035,0 -1.847,-0.812 -1.847,-1.848 z m 0.367,-149.734 V 119.332 c 0,-1.625 -0.813,-2.437 -2.438,-2.437 h -35.328 c -2.293,0 -3.472,1.183 -3.472,3.472 v 303.606 c 0,1.699 1.328,3.031 2.957,3.031 29.632,0.297 66.144,0.441 109.675,0.441 38.95,0 66.368,-4.285 82.258,-12.929 64.149,-34.813 57.645,-148.996 -23.578,-166.512 -9.09,-1.996 -13.82,-2.957 -14.039,-3.031 -7.246,-1.551 -11.977,-2.289 -14.117,-2.289 -26.164,-0.446 -58.684,-0.446 -97.629,0.074 -2.883,0.07 -4.289,-1.332 -4.289,-4.215"
         style="fill:#100f0d;fill-opacity:1;fill-rule:nonzero;stroke:none"
         id="path16" />
      <path
         d="m 1254.05,388.277 0.74,-107.015 c 0,-1.035 0.82,-1.848 1.85,-1.848 l 98.07,0.664 c 30.08,0.223 54.25,23.281 54.03,51.512 v 8.426 c -0.22,28.23 -24.76,50.996 -54.77,50.773 l -98.07,-0.664 c -1.03,0 -1.85,-0.812 -1.85,-1.848 z m 0.37,-149.734 V 119.332 c 0,-1.625 -0.81,-2.437 -2.44,-2.437 h -35.32 c -2.29,0 -3.48,1.183 -3.48,3.472 v 303.606 c 0,1.699 1.33,3.031 2.96,3.031 29.64,0.297 66.15,0.441 109.68,0.441 38.94,0 66.36,-4.285 82.25,-12.929 64.15,-34.813 57.65,-148.996 -23.57,-166.512 -9.09,-1.996 -13.82,-2.957 -14.04,-3.031 -7.25,-1.551 -11.98,-2.289 -14.12,-2.289 -26.16,-0.446 -58.68,-0.446 -97.63,0.074 -2.88,0.07 -4.29,-1.332 -4.29,-4.215"
         style="fill:#100f0d;fill-opacity:1;fill-rule:nonzero;stroke:none"
         id="path18" />
      <path
         d="m 1526.91,119.777 c 0,-1.625 -1.33,-2.957 -2.95,-2.957 h -33.11 c -1.63,0 -2.96,1.332 -2.96,2.957 V 424.27 c 0,1.625 1.33,2.957 2.96,2.957 h 33.11 c 1.62,0 2.95,-1.332 2.95,-2.957 v -304.493 0"
         style="fill:#100f0d;fill-opacity:1;fill-rule:nonzero;stroke:none"
         id="path20" />
      <path
         d="m 2170.96,393.188 c -0.03,-1.586 -1.29,-2.84 -2.81,-2.813 l -33.4,-0.059 c -1.59,0.032 -2.84,1.286 -2.82,2.805 l -0.05,31.188 c 0.03,1.586 1.28,2.843 2.8,2.812 l 33.41,0.059 c 1.58,-0.028 2.84,-1.285 2.81,-2.801 l 0.06,-31.191 v 0"
         style="fill:#100f0d;fill-opacity:1;fill-rule:nonzero;stroke:none"
         id="path22" />
      <path
         d="m 2070.12,345.93 h 33.33 c 1.33,0 2,-0.664 2,-1.996 v -32 c 0,-1.629 -1.26,-2.883 -2.88,-2.883 h -32.45 c -2.44,0 -3.62,-1.184 -3.69,-3.621 -0.23,-56.094 -0.08,-101.621 0.29,-136.727 0.3,-25.129 18.04,-22.023 36.14,-22.762 3.18,-0.074 4.73,-1.703 4.73,-4.878 v -26.016 c 0,-1.625 -0.81,-2.66 -2.44,-3.106 -36.95,-9.605 -75.6,-0.144 -76.71,45.676 -1.11,46.34 -1.41,95.41 -0.89,147.367 0.08,2.661 -1.25,3.993 -3.91,3.993 h -18.63 c -3.47,0 -5.25,1.773 -5.25,5.246 v 26.605 c 0,3.477 1.78,5.25 5.25,5.25 H 2024 c 2.3,0 3.48,1.18 3.48,3.473 v 49.961 c 0,1.035 0.44,1.847 1.33,2.437 l 35.84,22.024 c 0.74,0.519 1.78,-0.075 1.78,-0.961 v -73.313 c 0,-2.515 1.25,-3.769 3.69,-3.769 v 0"
         style="fill:#100f0d;fill-opacity:1;fill-rule:nonzero;stroke:none"
         id="path24" />
      <path
         d="m 112.652,293.16 c -21.6559,-36.508 6.727,-73.535 34.809,-95.855 72.133,-57.5 136.281,-92.457 238.566,-149.8089 18.551,-10.4219 34.368,-20.7656 47.45,-30.8906 C 448.922,4.55859 446.93,-0.910156 427.344,0.121094 420.691,0.492188 409.457,3.375 393.641,8.76953 302.07,40.1797 217.152,77.8711 138.887,121.773 92.6211,147.785 40.668,181.934 11.1055,225.758 c -17.66409,26.238 -13.00784,64.519 5.1718,91.273 28.3086,41.61 67.6993,68.289 118.0277,80.188 16.336,3.844 26.386,-3.547 30.082,-22.172 1.254,-6.281 -2.957,-15.223 -12.492,-26.977 -16.629,-20.617 -29.711,-38.871 -39.243,-54.91 v 0"
         style="fill:#38b640;fill-opacity:1;fill-rule:nonzero;stroke:none"
         id="path26" />
      <path
         d="m 872.551,323.02 c 0,-5.543 1.699,-5.25 5.176,0.886 18.992,32.446 46.043,38.207 81.144,17.293 1.184,-0.664 1.555,-1.699 1.109,-2.957 L 949.117,306.98 c -0.515,-1.55 -1.402,-1.847 -2.66,-0.886 -25.348,17.738 -46.043,13.008 -62.082,-14.266 -4.062,-7.019 -6.355,-23.426 -6.797,-49.367 -1.035,-63.043 -1.332,-103.766 -0.961,-122.168 0.074,-2.289 -1.109,-3.473 -3.398,-3.473 h -31.856 c -2.586,0 -3.843,1.258 -3.843,3.844 v 219.945 c 0,3.621 1.773,5.395 5.394,5.395 h 23.801 c 3.914,0 5.836,-1.922 5.836,-5.766 v -17.218 0"
         style="fill:#100f0d;fill-opacity:1;fill-rule:nonzero;stroke:none"
         id="path28" />
      <path
         d="m 1063.6,144.832 c 37.91,0.074 68.58,38.875 68.51,86.664 -0.08,47.77 -30.89,86.496 -68.81,86.422 -37.91,-0.074 -68.581,-38.875 -68.507,-86.664 0.074,-47.77 30.887,-86.496 68.807,-86.422 z m 103.61,61.414 c 0,-52.621 -42.71,-95.34 -95.33,-95.34 h -17 c -52.62,0 -95.341,42.719 -95.341,95.34 v 50.109 c 0,52.622 42.721,95.34 95.341,95.34 h 17 c 52.62,0 95.33,-42.718 95.33,-95.34 v -50.109"
         style="fill:#100f0d;fill-opacity:1;fill-rule:nonzero;stroke:none"
         id="path30" />
      <path
         d="m 1696.23,220.141 c -18.25,-2.957 -37.17,-5.911 -56.76,-8.942 -52.77,-8.203 -40.2,-65.332 7.54,-64.89 50.92,0.445 76.57,25.425 77.01,74.941 0,2.512 -1.26,3.844 -3.77,3.992 -8.79,0.442 -18.25,-4.14 -24.02,-5.101 z m 30.75,-80.485 c -0.37,3.032 -1.78,3.547 -4.14,1.703 -33.33,-26.828 -67.11,-36.879 -101.47,-30.304 -32.08,6.211 -50.56,24.019 -55.36,53.508 -9.16,56.539 37.4,83.664 87.8,85.363 2.44,0.074 4.8,0.738 7.02,1.847 7.02,3.622 12.12,0.665 21.06,2.586 16.19,3.547 28.01,6.282 35.41,8.204 3.54,0.886 6.06,4.066 6.13,7.687 0.81,45.969 -38.73,49.223 -73.17,45.523 -20.91,-2.289 -34.73,-13.82 -41.38,-34.734 -0.45,-1.258 -1.33,-1.773 -2.67,-1.476 l -32.29,7.464 c -1.26,0.293 -2,1.477 -1.7,2.735 6.72,29.855 24.61,48.926 53.58,57.129 34.44,9.679 66.81,9.164 97.19,-1.551 28.38,-10.055 36.06,-31.117 36.95,-61.344 0.96,-28.601 1.03,-60.383 0.29,-95.191 -0.51,-26.68 2.67,-49.293 9.69,-67.696 1.1,-2.882 0.07,-4.289 -3.03,-4.289 h -30.45 c -3.62,0 -6.65,2.66 -7.17,6.207 l -2.29,16.629"
         style="fill:#100f0d;fill-opacity:1;fill-rule:nonzero;stroke:none"
         id="path32" />
      <path
         d="m 1801.25,183.188 33.78,7.316 c 1.4,0.297 2.21,-0.223 2.51,-1.551 7.69,-32.887 31.78,-46.855 72.35,-41.906 8.72,1.109 16.34,3.625 22.84,7.539 14.49,8.797 21.43,29.711 7.02,41.906 -3.92,3.324 -10.79,6.281 -20.47,8.867 -23.28,6.063 -46.27,12.86 -69.03,20.399 -64.15,21.211 -57.72,102.805 3.4,122.094 31.04,9.828 61.49,7.316 91.42,-7.391 17.44,-8.574 28.24,-24.906 32.3,-48.926 0.52,-2.808 -0.67,-4.508 -3.47,-5.101 l -28.24,-6.133 c -2.8,-0.664 -4.65,0.441 -5.46,3.176 -8.36,26.976 -30.23,37.546 -65.71,31.781 -15.81,-2.586 -33.33,-9.61 -32.37,-26.828 0.52,-10.348 7.61,-17.367 21.21,-21.137 34.59,-9.684 59.57,-16.996 74.87,-22.098 72.35,-24.093 59.79,-108.05 -6.58,-130.148 -26.53,-8.793 -53.8,-8.277 -81.74,1.476 -27.56,9.684 -44.41,31.043 -50.48,63.93 -0.22,1.258 0.6,2.512 1.85,2.735 v 0"
         style="fill:#100f0d;fill-opacity:1;fill-rule:nonzero;stroke:none"
         id="path34" />
      <path
         d="m 2170.86,119.555 c 0,-1.477 -1.19,-2.66 -2.67,-2.66 h -33.55 c -1.48,0 -2.66,1.183 -2.66,2.66 v 223.789 c 0,1.476 1.18,2.66 2.66,2.66 h 33.55 c 1.48,0 2.67,-1.184 2.67,-2.66 v -223.789 0"
         style="fill:#100f0d;fill-opacity:1;fill-rule:nonzero;stroke:none"
         id="path36" />
      <path
         d="m 2300.78,267.441 c 0.22,0 0.45,0.075 0.67,0.149 0.44,0.144 0.66,0.293 0.74,0.367 17.22,25.793 34.44,51.367 51.66,76.641 0.66,0.961 1.62,1.406 2.73,1.406 h 41.46 c 0.89,0 1.41,-0.961 0.89,-1.699 l -72.8,-105.168 c -1.62,-2.293 -1.62,-5.25 0,-7.539 l 79.3,-113.297 c 0.3,-0.446 0,-1.11 -0.59,-1.11 h -41.9 c -1.41,0 -2.44,0.59 -3.26,1.7 -18.99,27.05 -37.83,54.984 -56.46,83.882 -0.74,1.184 -1.48,1.7 -2.29,1.7 -0.81,0 -1.55,-0.516 -2.29,-1.7 -18.48,-28.972 -37.18,-56.98 -56.1,-84.179 -0.81,-1.11 -1.84,-1.699 -3.25,-1.699 l -41.9,-0.149 c -0.59,-0.074 -0.89,0.594 -0.59,1.035 l 78.78,113.668 c 1.55,2.289 1.55,5.321 -0.07,7.539 l -73.24,104.871 c -0.52,0.739 0,1.7 0.88,1.7 l 41.46,0.148 c 1.11,0.074 2,-0.441 2.74,-1.328 17.37,-25.203 34.66,-50.703 52.03,-76.422 0,-0.074 0.29,-0.223 0.74,-0.367 0.22,-0.074 0.44,-0.149 0.66,-0.149 v 0"
         style="fill:#100f0d;fill-opacity:1;fill-rule:nonzero;stroke:none"
         id="path38" />
    </g>
  </g>
</svg>
