<?xml version="1.0" encoding="UTF-8" standalone="no"?>
<!-- Created with Inkscape (http://www.inkscape.org/) -->

<svg
   version="1.1"
   id="svg2"
   width="840.08002"
   height="460.60001"
   viewBox="0 0 840.08002 460.60001"
   sodipodi:docname="24120549949 - Bradleys SURVEYORS Logo for polos etc.eps"
   xmlns:inkscape="http://www.inkscape.org/namespaces/inkscape"
   xmlns:sodipodi="http://sodipodi.sourceforge.net/DTD/sodipodi-0.dtd"
   xmlns="http://www.w3.org/2000/svg"
   xmlns:svg="http://www.w3.org/2000/svg">
  <defs
     id="defs6" />
  <sodipodi:namedview
     id="namedview4"
     pagecolor="#ffffff"
     bordercolor="#000000"
     borderopacity="0.25"
     inkscape:showpageshadow="2"
     inkscape:pageopacity="0.0"
     inkscape:pagecheckerboard="0"
     inkscape:deskcolor="#d1d1d1" />
  <g
     id="g8"
     inkscape:groupmode="layer"
     inkscape:label="ink_ext_XXXXXX"
     transform="matrix(1.3333333,0,0,-1.3333333,0,460.6)">
    <g
       id="g10"
       transform="scale(0.1)">
      <path
         d="M 659.672,1989.64 V 1580.16 H 791.98 c 78.02,0 135.192,7.65 171.579,22.86 36.339,15.32 65.551,39.12 87.571,71.54 22.08,32.4 33.1,67.54 33.1,105.29 0,47.41 -15.53,88.79 -46.52,124.11 -30.99,35.34 -73.62,59.54 -127.909,72.63 -36.332,8.7 -99.582,13.05 -189.77,13.05 z m 0,448.89 v -341.49 h 61.09 c 74.16,0 128.687,6.87 163.609,20.67 34.879,13.76 62.508,35.49 82.867,65.23 20.403,29.74 30.563,62.72 30.563,98.98 0,48.82 -17.102,87.13 -51.281,114.92 -34.141,27.8 -88.571,41.69 -163.25,41.69 z m -104.043,104.04 h 210.133 c 84.527,0 149.437,-10.01 194.859,-30.07 45.419,-20.06 81.279,-50.84 107.609,-92.38 26.33,-41.52 39.49,-87.67 39.49,-138.38 0,-47.35 -11.53,-90.46 -34.56,-129.32 -23.07,-38.91 -56.9,-70.43 -101.519,-94.55 55.369,-18.88 98.009,-41.01 127.839,-66.39 29.9,-25.38 53.13,-56.09 69.76,-92.11 16.56,-36.03 24.9,-75.08 24.9,-117.11 0,-85.57 -31.31,-158.04 -93.87,-217.3 -62.56,-59.16 -146.508,-88.84 -251.872,-88.84 H 555.629 v 1066.45"
         style="fill:#ffffff;fill-opacity:1;fill-rule:nonzero;stroke:none"
         id="path12" />
      <path
         d="m 1305.95,2264.85 h 104.03 v -115.23 c 30.84,45.41 63.46,79.31 97.7,101.75 34.24,22.4 69.91,33.62 107.09,33.62 27.94,0 57.9,-8.94 89.72,-26.83 l -52.91,-85.14 c -21.24,9.18 -39.07,13.8 -53.54,13.8 -33.78,0 -66.29,-13.9 -97.65,-41.69 -31.36,-27.79 -55.22,-70.95 -71.58,-129.45 -12.53,-44.97 -18.83,-135.84 -18.83,-272.64 v -266.92 h -104.03 v 788.73"
         style="fill:#ffffff;fill-opacity:1;fill-rule:nonzero;stroke:none"
         id="path14" />
      <path
         d="m 2081.64,2186.82 c -56.43,0 -108.51,-13.9 -156.27,-41.64 -47.72,-27.74 -85.68,-66.7 -113.9,-116.89 -28.22,-50.18 -42.33,-103.25 -42.33,-159.21 0,-55.51 14.22,-108.62 42.7,-159.28 28.41,-50.66 66.65,-90.1 114.63,-118.31 47.98,-28.21 99.43,-42.37 154.43,-42.37 55.43,0 108.03,14.05 157.69,42 49.66,27.95 87.89,65.87 114.63,113.63 26.8,47.79 40.18,101.58 40.18,161.42 0,91.19 -30,167.44 -90.1,228.72 -59.99,61.28 -133.93,91.93 -221.66,91.93 z m 405.72,78.03 v -788.73 h -99.84 v 135.56 c -42.58,-51.71 -90.3,-90.56 -143.21,-116.58 -52.97,-26.06 -110.86,-39.12 -173.68,-39.12 -111.7,0 -207.09,40.49 -286.12,121.4 -79.03,80.92 -118.56,179.34 -118.56,295.3 0,113.5 39.85,210.62 119.67,291.28 79.76,80.7 175.72,121.03 287.9,121.03 64.75,0 123.38,-13.74 175.87,-41.22 52.45,-27.51 98.49,-68.8 138.13,-123.87 v 144.95 h 99.84"
         style="fill:#ffffff;fill-opacity:1;fill-rule:nonzero;stroke:none"
         id="path16" />
      <path
         d="m 3010.66,2186.82 c -56.42,0 -108.49,-13.9 -156.27,-41.64 -47.71,-27.74 -85.68,-66.7 -113.89,-116.89 -28.21,-50.18 -42.32,-103.25 -42.32,-159.21 0,-55.51 14.2,-108.62 42.68,-159.28 28.43,-50.66 66.66,-90.1 114.64,-118.31 47.98,-28.21 99.48,-42.37 154.43,-42.37 55.49,0 108.03,14.05 157.7,42 49.66,27.95 87.88,65.87 114.68,113.63 26.75,47.79 40.11,101.58 40.11,161.42 0,91.19 -30.05,167.44 -90.03,228.72 -60.1,61.28 -133.93,91.93 -221.73,91.93 z m 405.74,544.42 V 1476.12 h -99.85 v 135.56 c -42.53,-51.71 -90.3,-90.56 -143.21,-116.58 -52.96,-26.06 -110.86,-39.12 -173.68,-39.12 -111.7,0 -207.03,40.49 -286.12,121.4 -79.08,80.92 -118.57,179.34 -118.57,295.3 0,113.5 39.91,210.62 119.68,291.28 79.75,80.7 175.72,121.03 287.89,121.03 64.76,0 123.39,-13.8 175.83,-41.33 52.49,-27.53 98.53,-68.85 138.18,-123.91 v 611.49 h 99.85"
         style="fill:#ffffff;fill-opacity:1;fill-rule:nonzero;stroke:none"
         id="path18" />
      <path
         d="m 3522.86,1476.12 h 101.52 V 2731.17 H 3522.86 V 1476.12"
         style="fill:#ffffff;fill-opacity:1;fill-rule:nonzero;stroke:none"
         id="path20" />
      <path
         d="m 4428.54,1950.21 c -13.53,54.07 -33.3,97.25 -59.15,129.58 -25.89,32.33 -60.14,58.39 -102.77,78.19 -42.59,19.77 -87.37,29.68 -134.31,29.68 -77.45,0 -144,-24.86 -199.63,-74.57 -40.7,-36.18 -71.44,-90.48 -92.2,-162.88 z m 0.05,-213.14 85.54,-44.9 c -28.06,-54.9 -60.47,-99.21 -97.23,-132.88 -36.75,-33.72 -78.13,-59.36 -124.07,-76.93 -45.94,-17.57 -97.9,-26.38 -155.95,-26.38 -128.65,0 -229.27,42.17 -301.8,126.49 -72.52,84.32 -108.81,179.56 -108.81,285.85 0,100.01 30.73,189.13 92.14,267.39 77.81,99.51 182.01,149.28 312.6,149.28 134.45,0 241.79,-51.03 322.09,-153.05 57.05,-72.06 86.1,-162.02 87.04,-269.83 h -709.83 c 1.95,-91.6 31.25,-166.59 87.89,-225.15 56.63,-58.58 126.54,-87.84 209.82,-87.84 40.16,0 79.23,7.02 117.25,20.87 38.01,13.95 70.33,32.4 96.96,55.48 26.59,23.07 55.38,60.25 86.36,111.6"
         style="fill:#ffffff;fill-opacity:1;fill-rule:nonzero;stroke:none"
         id="path22" />
      <path
         d="m 4522.05,2264.85 h 106.4 l 271.43,-606.18 263.46,606.18 h 107.97 l -501.38,-1155.6 h -107.98 l 184.5,428.96 -324.4,726.64"
         style="fill:#ffffff;fill-opacity:1;fill-rule:nonzero;stroke:none"
         id="path24" />
      <path
         d="m 5744.21,2178.72 -65.23,-67.41 c -54.22,52.57 -107.18,78.87 -159,78.87 -32.94,0 -61.09,-10.88 -84.58,-32.62 -23.44,-21.74 -35.19,-47.09 -35.19,-76.09 0,-25.59 9.64,-49.98 29.06,-73.18 19.34,-23.68 59.98,-51.44 121.96,-83.33 75.47,-39.15 126.82,-76.83 153.87,-113.06 26.63,-36.77 39.96,-78.04 39.96,-123.93 0,-64.81 -22.76,-119.61 -68.17,-164.56 -45.52,-44.94 -102.31,-67.43 -170.49,-67.43 -45.46,0 -88.88,9.97 -130.2,29.9 -41.39,19.87 -75.63,47.29 -102.68,82.22 l 63.76,72.47 c 51.76,-58.74 106.68,-88.09 164.72,-88.09 40.64,0 75.2,13.05 103.77,39.11 28.54,26.12 42.79,56.8 42.79,92.09 0,28.94 -9.43,54.8 -28.32,77.51 -18.86,22.23 -61.45,50.23 -127.79,84.04 -71.16,36.7 -119.56,72.94 -145.2,108.67 -25.7,35.74 -38.5,76.55 -38.5,122.43 0,59.89 20.46,109.65 61.36,149.24 40.86,39.6 92.51,59.42 154.9,59.42 72.58,0 145.68,-35.43 219.2,-106.27"
         style="fill:#ffffff;fill-opacity:1;fill-rule:nonzero;stroke:none"
         id="path26" />
      <path
         d="m 546.371,974.449 33.09,19.852 c 23.258,-42.922 50.141,-64.371 80.629,-64.371 13.031,0 25.289,3.039 36.738,9.109 11.461,6.082 20.184,14.242 26.172,24.449 5.988,10.223 8.988,21.063 8.988,32.512 0,13.04 -4.398,25.81 -13.207,38.33 -12.16,17.29 -34.359,38.12 -66.601,62.47 -32.41,24.53 -52.578,42.27 -60.52,53.22 -13.73,18.35 -20.609,38.2 -20.609,59.55 0,16.93 4.058,32.36 12.168,46.31 8.121,13.93 19.543,24.92 34.261,32.94 14.731,8.03 30.731,12.05 48.02,12.05 18.34,0 35.488,-4.55 51.449,-13.63 15.961,-9.07 32.852,-25.77 50.672,-50.1 l -31.769,-24.09 c -14.633,19.35 -27.102,32.1 -37.403,38.26 -10.308,6.17 -21.539,9.24 -33.687,9.24 -15.692,0 -28.512,-4.75 -38.461,-14.28 -9.961,-9.52 -14.93,-21.25 -14.93,-35.18 0,-8.47 1.75,-16.66 5.277,-24.6 3.532,-7.94 9.961,-16.57 19.301,-25.92 5.102,-4.94 21.852,-17.9 50.223,-38.87 33.648,-24.87 56.726,-47 69.238,-66.39 12.512,-19.4 18.77,-38.89 18.77,-58.458 0,-28.211 -10.719,-52.723 -32.149,-73.532 -21.429,-20.8 -47.492,-31.199 -78.179,-31.199 -23.653,0 -45.082,6.309 -64.301,18.918 -19.231,12.621 -36.961,33.762 -53.18,63.41"
         style="fill:#fff200;fill-opacity:1;fill-rule:nonzero;stroke:none"
         id="path28" />
      <path
         d="m 895.371,1291.18 h 39.059 v -234.9 c 0,-27.87 0.531,-45.24 1.59,-52.11 1.941,-15.35 6.441,-28.182 13.5,-38.49 7.058,-10.321 17.91,-18.961 32.55,-25.93 14.649,-6.961 29.39,-10.449 44.21,-10.449 12.88,0 25.23,2.73 37.06,8.199 11.82,5.469 21.7,13.051 29.64,22.75 7.94,9.699 13.77,21.43 17.48,35.191 2.65,9.869 3.97,30.149 3.97,60.839 v 234.9 h 39.06 v -234.99 c 0,-34.76 -3.4,-62.85 -10.2,-84.292 -6.81,-21.429 -20.41,-40.089 -40.81,-55.968 -20.41,-15.871 -45.1,-23.809 -74.08,-23.809 -31.451,0 -58.388,7.5 -80.83,22.488 -22.441,15 -37.449,34.84 -45.05,59.551 -4.77,15.16 -7.149,42.51 -7.149,82.03 v 234.99"
         style="fill:#fff200;fill-opacity:1;fill-rule:nonzero;stroke:none"
         id="path30" />
      <path
         d="m 1327.47,1253.05 v -132.18 l 67.07,-0.54 c 25.98,0 45.21,2.47 57.67,7.4 12.46,4.94 22.17,12.83 29.16,23.67 6.98,10.84 10.47,22.95 10.47,36.35 0,13.05 -3.53,24.89 -10.6,35.56 -7.07,10.66 -16.36,18.29 -27.84,22.87 -11.49,4.58 -30.58,6.87 -57.27,6.87 z m -39.07,38.13 h 77.63 c 43.27,0 72.59,-1.77 87.96,-5.3 23.14,-5.3 41.95,-16.65 56.43,-34.03 14.49,-17.4 21.73,-38.81 21.73,-64.23 0,-21.19 -4.99,-39.81 -14.96,-55.89 -9.97,-16.06 -24.22,-28.2 -42.76,-36.41 -18.53,-8.21 -44.12,-12.4 -76.77,-12.58 l 140.12,-180.939 h -48.13 l -140.13,180.939 h -22.05 V 901.801 h -39.07 v 389.379"
         style="fill:#fff200;fill-opacity:1;fill-rule:nonzero;stroke:none"
         id="path32" />
      <path
         d="m 1602.13,1291.18 h 42.37 l 129.29,-301.141 130.99,301.141 h 42.35 L 1777.76,901.801 h -8.44 l -167.19,389.379"
         style="fill:#fff200;fill-opacity:1;fill-rule:nonzero;stroke:none"
         id="path34" />
      <path
         d="m 2049.91,1291.18 h 223.13 v -38.13 h -184.07 v -121.87 h 182.5 v -38.13 h -182.5 V 939.93 h 182.5 v -38.129 h -221.56 v 389.379"
         style="fill:#fff200;fill-opacity:1;fill-rule:nonzero;stroke:none"
         id="path36" />
      <path
         d="m 2347.06,1291.18 h 44.76 l 99.78,-161.46 98.41,161.46 h 44.55 L 2511.12,1087.92 V 901.801 h -38.43 v 186.119 l -125.63,203.26"
         style="fill:#fff200;fill-opacity:1;fill-rule:nonzero;stroke:none"
         id="path38" />
      <path
         d="m 2923.43,1263.05 c -28.8,0 -56.1,-7.51 -81.89,-22.51 -25.8,-15 -45.94,-35.21 -60.43,-60.64 -14.48,-25.41 -21.73,-53.75 -21.73,-85 0,-46.25 16.04,-85.31 48.11,-117.17 32.06,-31.871 70.71,-47.8 115.94,-47.8 30.21,0 58.17,7.32 83.88,21.98 25.71,14.649 45.76,34.692 60.16,60.11 14.4,25.42 21.6,53.66 21.6,84.73 0,30.9 -7.2,58.83 -21.6,83.81 -14.4,24.98 -34.67,44.98 -60.82,59.98 -26.15,15 -53.89,22.51 -83.22,22.51 z m -1.72,37.82 c 58.98,0 108.34,-19.67 148.08,-59 39.73,-39.33 59.59,-87.75 59.59,-145.25 0,-56.98 -19.82,-105.3 -59.46,-144.979 -39.65,-39.692 -87.99,-59.52 -145.03,-59.52 -57.75,0 -106.49,19.75 -146.22,59.258 -39.73,39.512 -59.6,87.311 -59.6,143.391 0,37.39 9.05,72.05 27.15,103.98 18.1,31.92 42.78,56.92 74.04,75 31.25,18.07 65.07,27.12 101.45,27.12"
         style="fill:#fff200;fill-opacity:1;fill-rule:nonzero;stroke:none"
         id="path40" />
      <path
         d="m 3285.83,1253.05 v -132.18 l 67.07,-0.54 c 25.99,0 45.22,2.47 57.68,7.4 12.46,4.94 22.16,12.83 29.16,23.67 6.97,10.84 10.47,22.95 10.47,36.35 0,13.05 -3.54,24.89 -10.61,35.56 -7.07,10.66 -16.35,18.29 -27.83,22.87 -11.5,4.58 -30.59,6.87 -57.27,6.87 z m -39.06,38.13 h 77.62 c 43.28,0 72.59,-1.77 87.96,-5.3 23.15,-5.3 41.96,-16.65 56.44,-34.03 14.48,-17.4 21.73,-38.81 21.73,-64.23 0,-21.19 -4.99,-39.81 -14.96,-55.89 -9.97,-16.06 -24.22,-28.2 -42.76,-36.41 -18.53,-8.21 -44.13,-12.4 -76.77,-12.58 l 140.11,-180.939 h -48.12 l -140.14,180.939 h -22.05 V 901.801 h -39.06 v 389.379"
         style="fill:#fff200;fill-opacity:1;fill-rule:nonzero;stroke:none"
         id="path42" />
      <path
         d="m 3571.04,974.449 33.09,19.852 c 23.26,-42.922 50.15,-64.371 80.64,-64.371 13.03,0 25.28,3.039 36.74,9.109 11.45,6.082 20.18,14.242 26.18,24.449 5.98,10.223 8.98,21.063 8.98,32.512 0,13.04 -4.4,25.81 -13.21,38.33 -12.16,17.29 -34.36,38.12 -66.59,62.47 -32.43,24.53 -52.6,42.27 -60.53,53.22 -13.73,18.35 -20.61,38.2 -20.61,59.55 0,16.93 4.06,32.36 12.17,46.31 8.12,13.93 19.53,24.92 34.26,32.94 14.72,8.03 30.73,12.05 48.02,12.05 18.34,0 35.49,-4.55 51.45,-13.63 15.96,-9.07 32.85,-25.77 50.66,-50.1 l -31.76,-24.09 c -14.63,19.35 -27.1,32.1 -37.4,38.26 -10.31,6.17 -21.54,9.24 -33.7,9.24 -15.68,0 -28.5,-4.75 -38.45,-14.28 -9.95,-9.52 -14.94,-21.25 -14.94,-35.18 0,-8.47 1.76,-16.66 5.29,-24.6 3.52,-7.94 9.95,-16.57 19.3,-25.92 5.1,-4.94 21.84,-17.9 50.22,-38.87 33.65,-24.87 56.74,-47 69.24,-66.39 12.52,-19.4 18.77,-38.89 18.77,-58.458 0,-28.211 -10.73,-52.723 -32.15,-73.532 -21.44,-20.8 -47.5,-31.199 -78.18,-31.199 -23.65,0 -45.08,6.309 -64.3,18.918 -19.24,12.621 -36.95,33.762 -53.19,63.41"
         style="fill:#fff200;fill-opacity:1;fill-rule:nonzero;stroke:none"
         id="path44" />
    </g>
  </g>
</svg>
