<?xml version="1.0" encoding="UTF-8"?>
<svg id="Layer_1" data-name="Layer 1" xmlns="http://www.w3.org/2000/svg" viewBox="0 0 1152.21 844.03">
  <defs>
    <style>
      .cls-1 {
        stroke-width: 0px;
      }
    </style>
  </defs>
  <path class="cls-1" d="m0,648.63c.48-.82,1.13-1.58,1.4-2.46,1.2-3.97,2.29-7.97,3.43-11.95.24-.83.54-1.65.76-2.29,23.7,1.58,47.2.52,70.69.75,4.41.04,8.83-.54,13.49-.85,1.48,5.53,2.96,11.11,4.45,16.68-.16.08-.33.15-.49.23-.26-.51-.64-.99-.77-1.54-1.42-6.35-5.69-9.54-11.82-10.39-7.86-1.09-15.76-.89-23.65-.04-.57.06-1.12.33-1.93.59-.07,1.05-.2,2.1-.2,3.15-.01,23.52-.02,47.05,0,70.57,0,1.68.09,3.36.31,5.03.69,5.31,3.91,8.3,9.23,8.68,1.32.09,2.64.14,3.95.52-3.54.8-7.1.39-10.65.33-3.55-.06-7.11-.37-10.66-.37-3.65,0-7.3.3-10.96.37-3.5.07-7.01.01-10.57-.46.5-.11.99-.29,1.49-.33,1.08-.08,2.18-.02,3.26-.12,4.72-.46,7.65-3.09,8.49-7.7.3-1.64.49-3.33.49-5,.03-23.92.02-47.84.02-71.75,0-.88-.08-1.76-.14-2.89-1.08-.25-2.09-.61-3.13-.71-6.7-.65-13.41-.81-20.11-.09-1.27.14-2.54.35-3.79.61-5.31,1.09-8.87,4.11-10.29,9.44-.33,1.26-.6,2.55-2.29,2.6,0-.2,0-.4,0-.59Z"/>
  <path class="cls-1" d="m654.17,489.32c-1.26.88-2.16,1.47-3.02,2.12-22.16,16.42-44.32,32.84-66.48,49.27-.71.53-1.43,1.06-2.15,1.58-1.14.83-2.35,1.08-3.57.23-1.13-.8-1.2-1.99-.91-3.21.76-3.17,1.55-6.33,2.33-9.5,4.82-19.56,9.64-39.13,14.45-58.69.23-.93.35-1.88.63-3.37-1.32.56-2.19.9-3.04,1.3-7.97,3.71-15.84,7.67-23.94,11.07-7.79,3.27-11.08,9.37-12.19,17.18-.21,1.47-.3,2.95-.48,4.42-.23,1.8-1.08,2.65-2.57,2.63-1.48-.01-2.41-.96-2.6-2.66-1.15-9.92,4.95-21.22,13.94-25.51,10.08-4.8,20.21-9.49,30.36-14.13,1.68-.77,2.63-1.73,3.07-3.57,3.3-13.73,6.64-27.46,10.14-41.14.65-2.55.19-4.46-1.12-6.63-17.56-29.11-35.05-58.27-52.56-87.42-6.31-10.51-12.61-21.02-18.93-31.52-.54-.9-1.16-1.75-2.15-3.24-.45,2.65-.76,4.55-1.11,6.45-2.78,15.41-8.38,29.82-15.51,43.68-4.8,9.33-10.35,18.21-16.3,26.85-8.13,11.79-14.7,24.36-18.56,38.22-2.76,9.89-4,19.91-2.85,30.2,1.65,14.77,8.03,27.13,18.58,37.45,5.21,5.1,11.43,8.76,17.7,12.35.86.49,1.78.87,2.61,1.41,1.3.85,1.68,2.06,1.14,3.31-.54,1.25-1.64,1.8-3.18,1.5-.67-.13-1.33-.39-1.98-.61-67.96-22.63-120.37-80.2-136.57-149.85-4.79-20.57-6.63-41.39-5.11-62.42,3.65-50.52,23.03-94.22,57.9-130.94,20.72-21.82,45.22-38.19,73.17-49.37,1.08-.43,2.13-.95,3.37-1.51-1.19-4.93-2.35-9.72-3.51-14.5-3.08-12.67-6.22-25.32-9.21-38.01-.47-1.98-1.42-3.04-3.2-3.82-5.74-2.51-11.58-4.56-17.96-4.54-5.05.02-9.55,1.34-13.06,5.23-.56.62-1.3,1.09-2.04,1.7-2.63-13.02,4.64-30.43,29.35-32.36.24-.47.53-.97.78-1.5,2.37-4.96,6.28-7.45,11.79-7.42,1.98.01,3.95,0,5.93,0,16.81,0,33.61.09,50.42-.04,8.04-.06,13.8,3.53,17.81,10.22,10.53,17.54,21.01,35.11,31.52,52.67,5.74,9.58,11.55,19.12,17.2,28.75,1.1,1.87,2.35,2.51,4.47,2.51,6.52-.01,13.09-.27,19.55.42,20.87,2.26,37.6,11.75,48.59,29.97,31.19,51.71,62.19,103.54,93.35,155.27,1.41,2.34,1.36,4.18.24,6.55-13.29,28.03-26.47,56.12-39.78,84.15-1.01,2.13-.97,3.7.24,5.72,5.28,8.82,10.39,17.74,15.57,26.62.4.68.81,1.36,1.18,2.06,1.34,2.48,1.21,3.24-1.09,4.99-4.81,3.64-9.65,7.23-14.48,10.85-15.91,11.9-31.81,23.81-47.76,35.67-1.69,1.26-2.6,2.59-2.87,4.79-2.25,18.34-4.67,36.65-7.04,54.97-.09.69-.3,1.36-.33,2.05-.07,1.73-1.04,2.65-2.56,3.25-3.5,1.37-6.97,2.79-10.45,4.19-5.31,2.14-10.62,4.29-15.94,6.42-.82.33-1.67.67-2.53.79-1.8.24-2.85-.65-2.94-2.46-.05-.98.06-1.98.18-2.96,1-7.94,1.99-15.88,3.08-23.81.2-1.46.08-2.66-.71-3.92-2.09-3.34-4.08-6.74-6.28-10.42Zm8.16,2.95c.27-1.05.43-1.48.49-1.93.55-4.01,1.11-8.02,1.62-12.04,1.86-14.6,3.69-29.2,5.56-43.8,2.14-16.75,4.22-33.52,6.54-50.25.42-2.99-.24-5.27-1.73-7.75-30.64-50.88-61.22-101.8-91.81-152.71-24.13-40.15-48.25-80.31-72.38-120.46-.59-.98-1.25-1.93-2.08-3.21-6.53,2.98-12.95,5.57-19.06,8.76-9.3,4.85-16.32,12.02-20.37,21.88-4.07,9.93-4.52,20.16-2.67,30.58.71,3.97,1.64,7.87,3.79,11.45,42.38,70.46,84.71,140.95,127.04,211.44,20.96,34.9,41.92,69.81,62.89,104.71.59.98,1.24,1.91,2.16,3.33Zm15.48-121.04c.39-1.48.67-2.21.77-2.96,1.25-9.7,2.48-19.4,3.72-29.1,1.46-11.46,2.91-22.93,4.38-34.39,1.68-13.03,3.38-26.06,5.07-39.08,1.54-11.95,3.05-23.91,4.64-35.85.35-2.65-.01-4.89-1.45-7.27-24.38-40.46-48.66-80.98-72.95-121.49-17.63-29.41-35.23-58.84-52.87-88.25-3.39-5.66-8.65-8.82-17.21-7.02,6.1,17.89,5.95,35.73-1.2,53.27-7.2,17.67-19.75,30.48-36.98,39.08,54.7,91.04,109.23,181.79,164.08,273.08Zm66.4-3.46c.63-1.2,1.11-2.02,1.51-2.87,12.44-26.35,24.84-52.71,37.33-79.04.91-1.93.78-3.35-.32-5.16-9.74-16.05-19.38-32.16-29.04-48.25-20.9-34.82-41.78-69.64-62.69-104.46-9.52-15.85-23.68-24.75-41.73-27.78-6.87-1.15-13.8-.57-20.71-.58-.22,0-.45.27-.84.52.62,1.09,1.18,2.11,1.78,3.11,23.64,39.4,47.27,78.79,70.94,118.17,1.27,2.11,1.92,4.09,1.5,6.67-1.07,6.63-1.78,13.31-2.62,19.97-1.47,11.56-2.89,23.13-4.46,34.68-.24,1.79-.01,3.21.91,4.75,15.56,25.81,31.07,51.64,46.6,77.47.5.83,1.06,1.62,1.84,2.81ZM466.99,122.73c-58.93,38.3-102.43,115.7-86.73,204.46,7.54,42.64,27.13,79.15,57.92,109.62,14.33,14.19,44.77,35.41,52.54,36.63,0-.1.03-.23-.03-.29-.34-.36-.68-.72-1.04-1.04-18.12-16.23-30.95-36.05-39.62-58.65-5.45-14.19-9.14-28.82-9.9-44.06-.32-6.51-.19-13.04-.4-19.55-.33-10.62-2.05-21.03-5.12-31.21-2.93-9.71-7.29-18.78-12.41-27.49-3.78-6.42-6.85-13.13-9.03-20.25-4-13.07-6.34-26.34-4.33-40.04,1.97-13.41,8.3-24.17,19.76-31.67,1.82-1.19,3.74-2.22,5.63-3.29,10.27-5.8,19.33-12.99,26.44-22.53,1.66-2.23,2.57-4.33,1.39-7.04-.42-.98-.55-2.1-.76-3.16-2.63-13.52-1.51-26.55,5.02-38.89.26-.49.45-1.02.67-1.54Zm5.95,145.28c-.91.83-1.5,1.34-2.06,1.88-5.03,4.84-10.67,8.8-17.01,11.72-4.94,2.28-10,4.28-15.55,4.48-1.02.04-2.41.51-2.74-.97-.38-1.65,1.18-1.84,2.23-2.22,2.04-.74,4.13-1.36,6.19-2.02,24.71-7.86,43.11-31.73,41.43-60.35-.16-2.74-1.34-4.45-3.51-5.7-3.71-2.14-7.67-2.14-11.78-1.49-5.23.83-8.3,3.76-9.4,8.88-.19.87-.42,1.73-.58,2.6-.78,4.17-1.51,8.35-2.33,12.51-.19.95-.32,2.03-1.63,3.05,0-3.05,0-5.62,0-8.18-.01-5.2.8-10.22,3.04-14.97,1.63-3.45,4.19-5.68,7.92-6.54,4.25-.97,8.45-.8,12.52.78,1.52.59,2.88,1.58,4.63,2.57-.12-1.11-.07-1.99-.33-2.77-1.21-3.65-2.04-7.52-3.85-10.86-4.36-8.07-9.19-15.9-13.85-23.81-.12-.21-.47-.3-.8-.49-2.14,2.49-4.16,5.03-6.38,7.39-6.75,7.21-14.67,12.91-23.34,17.58-4.3,2.32-8.23,5.08-11.57,8.67-7.37,7.94-10.47,17.61-10.75,28.17-.43,16.64,3.65,32.28,11.36,46.99,3.3,6.3,6.9,12.45,9.87,18.9,8.18,17.76,10.82,36.65,10.56,56.02-.11,8.03.39,15.99,1.85,23.89,3.91,21.17,11.8,40.72,23.7,58.65.45.68,1.02,1.29,1.53,1.93.28-.68.19-1.14.03-1.58-6.24-17.04-6.86-34.63-4.52-52.35,1.49-11.24,3.8-22.38,6.02-33.51,3.01-15.1,6.62-30.09,7.6-45.54.6-9.54,0-18.95-2.43-28.22-1.36-5.16-3.23-10.12-6.1-15.11Zm190.74,257.69c.74,0,.96.06,1.12,0,6.97-2.78,13.93-5.59,20.91-8.33,1.37-.53,1.65-1.57,1.8-2.77.64-5,1.26-9.99,1.9-14.99,1.47-11.46,2.93-22.92,4.41-34.38,1.48-11.46,2.98-22.92,4.46-34.38,1.47-11.46,2.92-22.92,4.39-34.38,1.49-11.56,3.01-23.11,4.51-34.67,1.49-11.56,2.94-23.12,4.48-34.67.21-1.56.05-2.84-.78-4.2-5.29-8.7-10.49-17.44-15.74-26.15-.37-.61-.9-1.12-1.79-2.22-9.94,77.44-19.79,154.2-29.67,231.15Zm-186.99-262.21c.42.83.67,1.36.95,1.88,6.22,11.33,9.03,23.52,9.32,36.37.26,11.42-1.17,22.68-3.35,33.85-2.86,14.63-6,29.2-8.8,43.85-2.15,11.28-3.17,22.69-2.68,34.2.06,1.28.2,2.56.33,3.84.12,1.14.27,2.29.41,3.43.53-.55.61-1.03.67-1.51.73-6.59,1.96-13.07,3.91-19.42,4.18-13.64,10.73-26.09,18.81-37.78,7.72-11.15,14.68-22.74,20.22-35.14,6.28-14.06,11.04-28.54,11.82-44.09.1-1.94-.2-3.63-1.23-5.34-11.75-19.45-23.43-38.94-35.14-58.41-.43-.71-.97-1.35-1.46-2.03.89,17.16-3.34,32.6-13.78,46.32Zm35.06-170.66c.95-.39,1.69-.62,2.36-.98,30.85-16.21,44.21-52.25,32.73-84.25-.57-1.6-1.34-2.34-3.18-2.33-14.72.08-29.43,0-44.15.1-1.49,0-3.14.55-4.42,1.33-2.62,1.59-3.39,4.5-2.51,8.14,6.08,25.03,12.16,50.05,18.26,75.07.22.92.57,1.81.92,2.91Zm205.06,239.96c-.42.81-.71,1.12-.75,1.47-4.98,38.57-9.93,77.14-14.91,115.85,2.32-.85,56.89-41.47,59.22-44.01-13.94-24.58-28.83-48.65-43.55-73.3Zm-65.45,151.83c-12.16-20.26-24.1-40.15-36.05-60.03-.61-1.01-1.29-1.98-1.94-2.97-.04-.07-.18-.09-.27-.1-.08,0-.17.03-.32.06-.13.21-.37.43-.43.7-8.95,36.31-17.9,72.63-26.83,108.94-.09.38-.08.78-.1,1.18,0,.09.07.18.13.26.05.07.14.11.5.38,21.62-16.02,43.32-32.11,65.31-48.41ZM487.07,14.83c-11.05-.33-22.06,7.03-23.49,15.53.61-.09,1.16-.18,1.71-.25,2.43-.31,4.86-.77,7.3-.89,5.41-.27,10.54,1.08,15.57,2.92.95.35,1.92.6,3.39,1.05-1.6-6.52-3.04-12.4-4.5-18.37Z"/>
  <path class="cls-1" d="m208.41,679.62h-52.77c-.12.86-.31,1.61-.32,2.35-.02,11.17-.03,22.35.02,33.52,0,1.46.24,2.97.62,4.38.85,3.15,2.94,4.73,6.24,4.94,1.03.06,2.06.07,3.08.49-5.93.77-11.83-.06-17.74-.02-5.88.03-11.77.42-18.3.67,1.29-1.46,2.32-1.05,3.2-1.11,3.79-.25,5.8-1.8,6.69-5.53.34-1.42.46-2.93.47-4.4.03-23.73.03-47.47,0-71.2,0-1.37-.09-2.78-.39-4.12-.86-3.84-2.88-5.53-6.78-5.87-.87-.08-1.75-.12-2.7-.58.45-.14.9-.35,1.36-.4.59-.06,1.19-.02,1.78.02,9.87.69,19.75.64,29.62,0,.95-.06,1.9,0,2.85,0,.03.23.06.46.09.69-.77.08-1.55.2-2.32.24-4.51.26-6.61,2.07-7.48,6.52-.19.96-.28,1.96-.28,2.94-.02,10.09-.02,20.17,0,30.26,0,.68.12,1.35.18,1.99,2.27.69,49.63.81,52.94.12.06-.99.18-2.05.18-3.11.01-9.3.02-18.59,0-27.89,0-1.28-.09-2.57-.24-3.84-.54-4.53-2.83-6.67-7.35-6.97-.82-.05-1.63-.15-3.14-.28.9-.44,1.12-.64,1.34-.64,2.57.02,5.14.09,7.71.11,9.1.06,18.21.11,27.36.62-.91.07-1.81.14-2.72.21-3.99.32-6.18,2.21-6.87,6.11-.29,1.65-.47,3.34-.47,5.01-.03,23.04-.03,46.08,0,69.12,0,1.67.18,3.36.49,5.01.7,3.77,2.93,5.65,6.72,5.86.92.05,1.84.11,2.71.7h-35.71c.89-1.05,1.93-.64,2.8-.69,4.12-.23,6.39-2.16,7.04-6.22.23-1.46.32-2.95.32-4.43.03-10.48.02-20.96,0-31.45,0-.96-.13-1.93-.21-3.13Z"/>
  <path class="cls-1" d="m964.64,727.32c-8.96-.21-17.52-1.95-25.4-6.29-14.08-7.76-21.93-19.75-23.92-35.67-.88-7.08-.28-14.01,1.78-20.81,3.56-11.71,10.59-20.84,21.42-26.49,17.87-9.33,36.03-9.22,53.53.76,13.85,7.89,20.98,20.5,22.28,36.37.77,9.36-.68,18.37-5.14,26.7-7.36,13.77-19.13,21.49-34.27,24.31-3.38.63-6.86.76-10.29,1.13Zm32.73-44.1c.03-8.38-1.18-16.55-4.21-24.39-2.83-7.34-7-13.73-13.5-18.36-12.11-8.63-30.96-7.71-40.65,7.89-2.06,3.31-3.77,7.02-4.78,10.77-4.14,15.24-2.79,30.15,3.65,44.55,1.95,4.36,4.71,8.25,8.25,11.49,8.22,7.5,17.77,10.07,28.54,7.13,8.94-2.44,14.64-8.67,18.37-16.86,3.21-7.05,4.38-14.53,4.31-22.22Z"/>
  <path class="cls-1" d="m1137.82,698.67c.05-.94.14-1.89.14-2.83,0-15.52.03-31.05-.02-46.57,0-2.56-.19-5.15-.65-7.66-.97-5.27-3.13-7.18-8.44-7.96-.27-.04-.51-.19-.76-.5,4.04-.81,8.06.42,12.08.21,3.98-.21,7.96-.42,11.94-.63.03.22.07.43.1.65-.69.13-1.38.29-2.08.4-3.24.5-5.52,2.28-6.44,5.39-.67,2.25-1.1,4.62-1.25,6.96-.21,3.55-.09,7.12-.09,10.67,0,22.15,0,44.29,0,66.44v3.48c-1.74.36-2.19-.85-2.85-1.59-7.45-8.33-14.86-16.68-22.28-25.03-14.97-16.85-29.95-33.69-44.93-50.54-.76-.85-1.56-1.66-2.81-2.99-.09,1.67-.18,2.6-.18,3.54,0,20.07-.03,40.14.03,60.21,0,2.45.21,4.95.72,7.35,1.02,4.83,3.18,6.62,8.06,7.17.34.04.67.19.99.52-4.07.77-8.1-.19-12.14-.1-4.03.09-8.05.41-12.08.64-.04-.21-.07-.43-.11-.64.56-.15,1.11-.39,1.68-.42,3.61-.19,6.04-2.13,6.95-5.45.8-2.92,1.34-6.01,1.35-9.03.11-22.25.04-44.49.09-66.74,0-1.73-.5-3-1.77-4.15-3.42-3.07-6.9-5.97-11.89-6.37.48-.12.96-.36,1.44-.35,8.3.19,16.6.45,24.89.58,1.54.02,2.3.94,3.14,1.89,6.11,6.87,12.21,13.75,18.31,20.63,12.07,13.61,24.14,27.21,36.22,40.82.65.73,1.33,1.44,1.99,2.16.21-.05.43-.1.64-.16Z"/>
  <path class="cls-1" d="m335.13,691.54c-.14-.84-.29-1.67-.41-2.51-.66-4.84-2.9-7.44-7.73-8.53-2.2-.5-4.49-.73-6.75-.78-4.94-.12-9.88-.06-14.82-.04-.66,0-1.33.21-2.31.38v2.98c0,11.37,0,22.74,0,34.11,0,3.25.34,3.67,3.45,4.48.38.1.78.16,1.17.21,7.98.93,15.99,1.13,23.91-.3,7.28-1.32,12.26-5.63,14.84-12.62.53-1.43,1.06-2.87,2.11-4.18,0,.51.12,1.06-.02,1.52-1.52,5.11-3.07,10.21-4.64,15.31-.26.84-.65,1.66-1.05,2.44-.59,1.14-1.54,1.77-2.85,1.79-.69,0-1.38.03-2.07.03-19.18,0-38.35,0-57.53,0-.94,0-1.89,0-3.42,0,1.25-1.32,2.28-.94,3.16-.98,4.27-.23,6.55-2.24,7.08-6.46.2-1.56.26-3.15.26-4.73.02-22.74.02-45.48,0-68.22,0-1.58-.07-3.17-.25-4.73-.52-4.54-2.81-6.68-7.33-6.99-.82-.06-1.64-.15-2.46-.22.01-.23.02-.46.04-.69,21.22-.07,42.44-.14,63.82-.21v17.17c-.17.02-.33.05-.5.07-.08-.79-.21-1.58-.24-2.37-.19-4.66-2.5-7.78-6.81-9.47-3.18-1.25-6.54-1.57-9.9-1.6-4.54-.04-9.09.13-13.63.21-.49,0-.99.06-1.48.13-5.34.74-5.67,1.12-5.67,6.45,0,9.79,0,19.58,0,29.36,0,.97.09,1.93.13,2.95.53.18.89.41,1.25.4,6.71-.1,13.43-.21,20.14-.39,1.07-.03,2.14-.34,3.19-.61,3.97-1.05,6.17-3.69,6.82-7.7.15-.96.26-1.92.83-2.86v27.14c-.12.03-.23.06-.35.09Z"/>
  <path class="cls-1" d="m592.93,630.9c.78,1.57,1.33,2.56,1.79,3.59,11.77,26.43,23.53,52.87,35.32,79.29.84,1.89,1.78,3.76,2.89,5.49,2.35,3.65,5.67,5.69,10.15,5.56.72-.02,1.44.15,2.12.73h-38.14c-.02-.17-.05-.34-.07-.52,1.27-.1,2.55-.16,3.82-.32,3.24-.41,4.65-2.38,4.03-5.58-.11-.58-.21-1.18-.44-1.72-2.65-6.28-5.34-12.54-7.96-18.83-.5-1.21-1.3-1.56-2.52-1.56-11.36.03-22.73.03-34.09,0-1.26,0-1.99.45-2.47,1.63-2.15,5.31-4.45,10.55-6.5,15.9-.69,1.81-1.01,3.83-1.11,5.77-.13,2.78,1.26,4.13,4.07,4.42,1.11.11,2.22.15,3.29.75h-25.92c-.03-.11-.06-.22-.09-.33.4-.12.79-.35,1.19-.35,4.1,0,7.35-1.87,9.6-5.05,2.27-3.2,4.3-6.64,5.94-10.19,4.47-9.68,8.68-19.48,12.99-29.24,6.78-15.36,13.56-30.71,20.35-46.07.42-.95.96-1.86,1.76-3.4Zm-5.68,22.85c-2.01,2.66-16.67,37.11-16.83,39.35h33.6c-5.66-13.28-11.17-26.22-16.77-39.35Z"/>
  <path class="cls-1" d="m490.03,725.52h-37.81c-.02-.18-.03-.35-.05-.53.91-.06,1.83-.13,2.74-.17,3.77-.19,5.87-1.83,6.72-5.47.33-1.43.51-2.93.51-4.4.03-23.72.03-47.45,0-71.17,0-1.27-.13-2.57-.38-3.82-.87-4.3-2.93-6.03-7.33-6.29-.77-.04-1.54-.1-2.71-.18,1.16-1.14,2.27-.77,3.22-.77,13.64-.03,27.28.03,40.91-.04,5.83-.03,11.65-.29,17.48-.44.77-.02,1.55,0,2.28,0,.63,2.27.78,13.63-.06,17.57-.14-.55-.42-1.1-.39-1.64.3-5.78-2.95-9.67-9.06-10.99-1.63-.35-3.31-.65-4.98-.66-5.92-.04-11.85.06-17.77.12-.49,0-.98.09-1.47.18q-4.03.74-4.03,4.95c0,10.18,0,20.36,0,30.54v3.19c.7.19,1.07.38,1.44.37,6.81-.13,13.62-.24,20.43-.45,1.16-.04,2.34-.39,3.46-.77,3.15-1.06,5.15-3.22,5.88-6.49.3-1.34.5-2.71.92-4.07.99,2.97.21,6,.23,9.01.02,3.06,0,6.13,0,9.19,0,3.11,0,6.23-.33,9.41-.23-1.17-.48-2.34-.67-3.51-.69-4.18-3.17-6.76-7.24-7.64-2.3-.5-4.68-.79-7.04-.85-5.04-.13-10.08-.05-15.12-.04-.48,0-.96.12-1.65.21-.1.79-.29,1.53-.29,2.28-.02,10.77.07,21.55-.04,32.32-.07,7.65,3.7,10.55,10.19,10.36.66-.02,1.32.12,1.98.18,0,.17,0,.33.01.5Z"/>
  <path class="cls-1" d="m869.07,635.76c.69-1.12,1.2-1.93,1.67-2.7.26.06.37.07.45.12.07.04.17.13.17.2-.08,8.09-.16,16.18-.27,24.26,0,.11-.27.22-.62.49-.23-1.52-.43-2.93-.67-4.33-1.15-6.89-4.77-12.05-10.95-15.31-15.71-8.29-35.26-2.59-44.03,12.82-3.53,6.2-5.37,12.94-6.08,19.98-1.04,10.25-.41,20.34,3.27,30.08,2.09,5.53,5.12,10.47,9.54,14.47,5.33,4.82,11.63,7.37,18.8,7.74,4.06.21,8.1.02,12.08-.94,9.92-2.39,16.38-8.69,20.28-17.91.5-1.18,1.02-2.34,1.54-3.5.02-.04.19-.02.49-.05-.04.56.02,1.11-.12,1.6-1.58,5.61-3.24,11.19-4.78,16.81-.4,1.47-1.1,2.31-2.61,2.83-10.01,3.45-20.21,5.56-30.84,4.4-16.63-1.81-30.37-8.68-39.02-23.56-12.61-21.69-7.84-59.97,30.1-69.89,10.85-2.84,21.73-2.27,32.57.21,2.97.68,5.93,1.43,9.04,2.18Z"/>
  <path class="cls-1" d="m683.95,724.95c.96-.05,1.92-.08,2.88-.14,3.9-.23,6.17-2.26,6.72-6.18.23-1.66.31-3.35.31-5.02.02-22.63.02-45.27,0-67.9,0-1.68-.09-3.36-.27-5.03-.51-4.51-2.82-6.67-7.34-6.98-.81-.06-1.62-.15-2.4-.5,3.99-.72,7.94-.16,11.91-.02,3.95.14,7.91.17,11.85-.01,3.97-.18,7.93-.54,11.89-.35.02.23.03.47.05.7-.91.07-1.82.13-2.72.2-4.01.31-6.15,2.13-6.9,6.07-.29,1.54-.44,3.14-.44,4.71-.03,24.21-.02,48.43-.02,72.64,0,3.47.3,3.84,3.59,4.62.58.14,1.16.36,1.74.36,7-.05,14.03.27,20.99-.31,7.72-.64,12.73-5.32,15.36-12.56.61-1.69,1.23-3.38,1.85-5.07.21.06.42.12.63.18-.03.51.05,1.04-.09,1.51-1.49,5.01-3.01,10.02-4.54,15.02-.2.66-.48,1.29-.75,1.93-.84,2.05-2.27,3.1-4.57,3.02-2.57-.09-5.14-.01-7.71-.01-16.3,0-32.61,0-48.91,0h-3.12c0-.29.01-.58.02-.87Z"/>
  <path class="cls-1" d="m855.35,816.84c.63.43.99.77,1.41.95,3.86,1.67,5.61,4.84,6.08,8.8.2,1.65.18,3.37-.03,5.02-.77,5.94-3.81,9.11-9.74,10.37-4.97,1.06-9.99.57-15.2.58v-48.24c.66-.09,1.31-.25,1.97-.25,3.65,0,7.31-.09,10.96.09,8.43.42,11.12,6.42,10.78,12.74-.23,4.29-1.91,7.85-6.23,9.93Zm-13.58,22.22c3.17,0,6.04.27,8.85-.06,5.57-.65,8.13-3.64,8.39-9.28.04-.79.04-1.58-.02-2.37-.39-4.83-2.7-7.38-7.53-8.01-2.44-.32-4.92-.34-7.38-.42-.74-.02-1.49.2-2.3.32v19.82Zm.07-23.7c3.7.15,7.21.43,10.64-.68,2.9-.94,4.47-3.05,4.91-6.06.49-3.32.47-6.5-2.23-9.02-.28-.26-.62-.51-.97-.66-4-1.75-8.15-1.53-12.35-1.28v17.71Z"/>
  <path class="cls-1" d="m794.91,818.54h-19.15v23.93h-3.72v-48.23c.61-.06,1.09-.15,1.57-.15.58,0,1.17.08,2.05.15v19.97c2.3.8,14.44,1.01,19.17.37.34-6.66-.05-13.43.22-20.34h3.72v48.17c-.7.08-1.26.2-1.83.2-.56,0-1.13-.11-2.03-.21v-23.87Z"/>
  <path class="cls-1" d="m361.02,829.32h3.44c.29,1.49.49,2.94.87,4.35,1.21,4.57,4.61,6.94,9.51,6.71,4.67-.22,8.21-3.18,9.02-7.55,1-5.37-.85-9.01-5.81-11.31-1.43-.66-2.93-1.17-4.39-1.77-1.37-.57-2.73-1.15-4.08-1.76-8.47-3.85-9.01-11.77-6.4-18.22,2.05-5.05,7.11-7.5,13.22-6.78,5.2.62,9.15,4.27,10.1,9.42.17.94.11,1.91.17,3.06h-3.5c-.16-.86-.29-1.62-.43-2.37-.75-3.9-3.55-6.38-7.59-6.72-3.95-.33-7.49,1.68-8.54,5.42-.62,2.21-.68,4.68-.48,6.99.22,2.54,2.06,4.22,4.32,5.26,2.42,1.11,4.92,2.06,7.33,3.18,1.87.87,3.75,1.79,5.48,2.92,2.92,1.9,4.46,4.71,4.63,8.19.08,1.57.14,3.18-.1,4.73-.75,4.9-3.45,8.32-8.18,9.98-2.97,1.04-6.05,1.1-9.07.45-6.15-1.33-9.87-6.85-9.52-14.18Z"/>
  <path class="cls-1" d="m707.38,829.34h3.63c.26,1.4.46,2.75.78,4.07,1.14,4.72,4.62,7.22,9.6,6.97,4.82-.24,8.3-3.28,9.02-7.86.84-5.39-.88-8.72-5.83-10.99-2.78-1.27-5.69-2.26-8.45-3.56-3.73-1.74-6.61-4.32-7.44-8.61-.66-3.39-.35-6.71,1.1-9.85,2.36-5.12,8.24-7.69,14.27-6.32,5.55,1.26,9.11,5.64,9.11,11.23,0,.28-.12.56-.23,1.03h-3.21c-.19-.94-.34-1.81-.53-2.66-.82-3.74-3.57-6.07-7.53-6.4-3.72-.31-6.92,1.53-8.37,4.86-1.01,2.34-1.18,4.77-.75,7.26.46,2.66,2.08,4.44,4.45,5.54,2.41,1.12,4.92,2.06,7.33,3.18,1.87.87,3.75,1.79,5.48,2.91,2.72,1.76,4.32,4.34,4.55,7.59.14,1.86.2,3.77-.08,5.6-.69,4.54-3.22,7.79-7.53,9.49-3.32,1.31-6.77,1.39-10.18.51-4.92-1.27-7.59-4.74-8.68-9.53-.32-1.39-.32-2.85-.49-4.47Z"/>
  <path class="cls-1" d="m303.79,827.87c-1.33,4.93-2.61,9.68-3.93,14.57h-3.79c4.33-16.16,8.61-32.13,12.92-48.21h4.77c4.28,15.95,8.56,31.92,12.89,48.08-.76.13-1.31.28-1.86.3-.58.03-1.16-.05-2.05-.1-1.27-4.83-2.54-9.65-3.85-14.64h-15.11Zm.91-3.87h13.25c-1.09-4.26-2.04-8.25-3.14-12.21-1.08-3.89-1.76-7.92-3.27-11.68l-.63.07c-2.03,7.78-4.06,15.57-6.21,23.81Z"/>
  <path class="cls-1" d="m655.55,794.17h4.74c4.3,16.02,8.58,32,12.94,48.24h-3.96c-1.24-4.7-2.51-9.53-3.83-14.54h-15.08c-1.29,4.75-2.6,9.57-3.96,14.56h-3.77c4.33-16.17,8.61-32.15,12.92-48.25Zm2.79,6.08l-.89-.02c-2.04,7.82-4.08,15.64-6.12,23.48,3.2.74,10.66.65,13.09-.15-2.02-7.75-4.05-15.53-6.08-23.3Z"/>
  <path class="cls-1" d="m260.8,807.62h-3.48c-.65-2.11-1.09-4.25-1.96-6.19-1.9-4.28-6.25-6.07-10.58-4.57-2.17.75-3.84,2.19-4.66,4.28-.92,2.37-1.9,4.85-2.11,7.34-.59,7.18-.9,14.41.35,21.56.37,2.1,1.14,4.21,2.16,6.08,1.71,3.14,4.63,4.49,8.19,4.25,3.42-.23,5.66-2.22,6.91-5.26.67-1.62.99-3.4,1.39-5.12.24-1.04.35-2.1.53-3.28h3.8c-.23,5.96-1.55,11.19-6.34,14.85-6.05,4.62-15.19,2.53-18.41-4.37-1.31-2.81-2.17-5.99-2.48-9.07-.72-7.37-.96-14.8.4-22.14.43-2.29,1.24-4.59,2.29-6.68,2.2-4.37,5.95-6.37,10.84-6.38,4.99-.02,8.79,2.01,11.2,6.4,1.34,2.44,2.05,5.1,1.95,8.31Z"/>
  <path class="cls-1" d="m566.04,842.46h-21.87v-48.2h21.47v3.21h-17.49c-.42,6.04-.2,11.8-.14,17.93h15.92v3.55h-15.81v20.16h17.7c.09,1.25.15,2.17.23,3.36Z"/>
  <path class="cls-1" d="m913.33,842.52h-3.77c-.06-.98-.16-1.91-.16-2.85-.02-4.94-.06-9.88.02-14.82.03-1.83-.37-3.48-1.13-5.13-3.46-7.43-6.86-14.89-10.27-22.34-.44-.97-.84-1.96-1.36-3.17h4.22c3.54,7.39,6.54,15.08,10.47,23.1,3.79-8.15,7.27-15.63,10.76-23.12h4c-.52,1.21-.91,2.19-1.35,3.15-3.44,7.44-6.85,14.89-10.35,22.3-.74,1.56-1.11,3.11-1.09,4.83.06,4.94.02,9.88.02,14.82,0,.97,0,1.94,0,3.21Z"/>
  <path class="cls-1" d="m437.25,842.44h-4.02v-44.87h-10.71v-3.32h25.63v3.19h-10.65c-.1,1.42-.24,2.56-.24,3.7-.02,12.55-.01,25.1-.01,37.64v3.67Z"/>
  <path class="cls-1" d="m485.57,794.23c.46-.05.93-.15,1.4-.15.58,0,1.17.08,2.07.15v44.84c6.06.32,11.85,0,17.9.21.08,1.03.16,1.95.27,3.33-7.29.05-14.36.04-21.26,0-.24-.23-.32-.29-.39-.37-.07-.07-.17-.14-.17-.22-.08-.78-.19-1.57-.19-2.35,0-14.83.03-29.66.06-44.5,0-.27.18-.54.32-.94Z"/>
  <path class="cls-1" d="m573.12,500.33c.01-3.22.68-6.31,2.44-9.02.9-1.38,2.08-2.64,3.33-3.71,1.16-.99,2.55-.76,3.49.19.94.96,1.06,2.68-.11,3.72-3.26,2.9-4.02,6.62-3.96,10.72.03,2-.82,3.07-2.3,3.2-1.62.14-2.72-.99-2.88-3.02-.06-.69,0-1.38,0-2.07Z"/>
  <path class="cls-1" d="m561.87,500.06c.23-4.35,1.1-8.04,3.63-11.16.49-.61,1.04-1.19,1.64-1.69,1.55-1.3,3.17-1.35,4.19-.18.95,1.08.89,2.68-.48,3.93-2.79,2.54-3.5,5.81-3.67,9.33-.03.69.04,1.38-.04,2.06-.15,1.22-.89,1.96-2.11,2.11-1.33.16-2.4-.36-2.78-1.65-.3-1.01-.3-2.12-.38-2.76Z"/>
  <path class="cls-1" d="m466.39,229.46c3.71.73,7.11,1.4,10.6,2.09-3.09,2.92-7.71,2.05-10.6-2.09Z"/>
</svg>