<?xml version="1.0" encoding="UTF-8" standalone="no"?>
<!-- Created with Inkscape (http://www.inkscape.org/) -->

<svg
   version="1.1"
   id="svg2"
   width="207.88"
   height="207.88"
   viewBox="0 0 207.88 207.88"
   sodipodi:docname="25012959044 - Carparison Beanies and Caps Trio logos white out text 55mm Height.eps"
   xmlns:inkscape="http://www.inkscape.org/namespaces/inkscape"
   xmlns:sodipodi="http://sodipodi.sourceforge.net/DTD/sodipodi-0.dtd"
   xmlns="http://www.w3.org/2000/svg"
   xmlns:svg="http://www.w3.org/2000/svg">
  <defs
     id="defs6" />
  <sodipodi:namedview
     id="namedview4"
     pagecolor="#ffffff"
     bordercolor="#000000"
     borderopacity="0.25"
     inkscape:showpageshadow="2"
     inkscape:pageopacity="0.0"
     inkscape:pagecheckerboard="0"
     inkscape:deskcolor="#d1d1d1" />
  <g
     id="g8"
     inkscape:groupmode="layer"
     inkscape:label="ink_ext_XXXXXX"
     transform="matrix(1.3333333,0,0,-1.3333333,0,207.88)">
    <g
       id="g10"
       transform="scale(0.1)">
      <path
         d="M 233.078,983.445 C 121.711,983.445 0,891.465 0,777.988 0,664.52 102.066,564.535 213.438,564.535 c 111.371,0 213.437,67.969 213.437,181.438 0,113.465 -82.426,237.472 -193.797,237.472"
         style="fill:#6dcded;fill-opacity:1;fill-rule:nonzero;stroke:none"
         id="path12" />
      <path
         d="m 551.793,625.824 h 27.895 v 65.571 c 4.074,-5.325 9.703,-9.809 16.882,-13.465 7.176,-3.653 15.414,-5.485 24.715,-5.485 8.969,0 17.25,1.621 24.836,4.864 7.586,3.238 14.192,7.765 19.82,13.586 5.629,5.816 10.032,12.753 13.211,20.82 3.184,8.058 4.774,16.906 4.774,26.551 0,9.472 -1.633,18.281 -4.895,26.425 -3.265,8.141 -7.793,15.122 -13.582,20.942 -5.789,5.816 -12.601,10.387 -20.429,13.711 -7.832,3.324 -16.395,4.988 -25.696,4.988 -10.113,0 -19.328,-1.582 -27.648,-4.738 -8.321,-3.16 -15.414,-7.77 -21.289,-13.836 -5.871,-6.07 -10.442,-13.551 -13.703,-22.442 -3.266,-8.89 -4.891,-19.156 -4.891,-30.785 z m 50.035,74.918 c -4.648,2.074 -8.605,4.942 -11.867,8.602 -3.266,3.656 -5.832,7.98 -7.707,12.965 -1.875,4.988 -2.813,10.382 -2.813,16.203 0,5.984 0.938,11.426 2.813,16.332 1.875,4.898 4.484,9.101 7.832,12.59 3.34,3.488 7.34,6.23 11.988,8.226 4.649,1.992 9.746,2.992 15.293,2.992 5.547,0 10.645,-1.039 15.293,-3.117 4.653,-2.078 8.645,-4.902 11.992,-8.476 3.34,-3.575 5.911,-7.813 7.707,-12.715 1.793,-4.906 2.692,-10.184 2.692,-15.832 0,-5.821 -0.899,-11.215 -2.692,-16.203 -1.796,-4.985 -4.367,-9.309 -7.707,-12.965 -3.347,-3.66 -7.339,-6.528 -11.992,-8.602 -4.648,-2.078 -9.746,-3.117 -15.293,-3.117 -5.711,0 -10.887,1.039 -15.539,3.117 m 240.906,50.485 c 0,9.636 -1.589,17.867 -4.773,24.683 -3.184,6.813 -7.629,12.297 -13.336,16.453 -5.715,4.153 -12.52,7.188 -20.434,9.102 -7.914,1.91 -16.679,2.867 -26.304,2.867 -7.992,0 -14.602,-0.5 -19.821,-1.496 -5.222,-0.996 -9.378,-2.367 -12.476,-4.113 -3.102,-1.746 -5.262,-3.739 -6.488,-5.985 -1.219,-2.246 -1.832,-4.531 -1.832,-6.855 0,-3.328 0.855,-6.153 2.57,-8.477 1.711,-2.332 3.055,-3.906 4.035,-4.738 1.793,1.496 5.508,3.324 11.133,5.484 5.629,2.161 13.094,3.243 22.39,3.243 5.547,0 10.602,-0.418 15.172,-1.247 4.567,-0.835 8.481,-2.332 11.746,-4.488 3.262,-2.16 5.829,-5.152 7.707,-8.972 1.875,-3.829 2.813,-8.645 2.813,-14.461 -2.773,0.332 -6.934,0.703 -12.477,1.121 -5.55,0.41 -11.421,0.621 -17.621,0.621 -10.765,0 -19.902,-0.871 -27.406,-2.617 -7.504,-1.743 -13.578,-4.364 -18.23,-7.852 -4.649,-3.492 -7.993,-7.816 -10.032,-12.965 -2.039,-5.152 -3.058,-11.137 -3.058,-17.949 0,-5.156 0.855,-10.184 2.57,-15.086 1.711,-4.902 4.895,-9.223 9.543,-12.961 4.648,-3.742 11.012,-6.734 19.086,-8.976 8.074,-2.247 18.477,-3.368 31.199,-3.368 6.363,0 12.481,0.168 18.352,0.5 5.875,0.336 11.172,0.707 15.906,1.121 4.727,0.418 8.848,0.836 12.355,1.247 3.508,0.417 6.079,0.789 7.711,1.121 z m -27.652,-56.094 c -1.469,-0.336 -4.406,-0.789 -8.809,-1.371 -4.406,-0.586 -10.363,-0.871 -17.863,-0.871 -6.691,0 -12.277,0.453 -16.762,1.371 -4.488,0.91 -8.035,2.242 -10.644,3.988 -2.609,1.742 -4.445,3.863 -5.508,6.355 -1.062,2.497 -1.59,5.239 -1.59,8.227 0,7.316 2.532,12.676 7.586,16.082 5.055,3.406 13.133,5.113 24.227,5.113 8.969,0 15.699,-0.336 20.187,-1 4.485,-0.664 7.543,-1.164 9.176,-1.496 z m 80.746,-19.445 h 27.895 v 72.3 c 0,20.606 9.543,30.914 28.629,30.914 5.218,0 9.867,-0.586 13.949,-1.746 4.074,-1.164 7.5,-2.414 10.273,-3.738 0.981,0.66 2.242,2.324 3.793,4.984 1.551,2.657 2.324,5.403 2.324,8.227 0,5.984 -3.218,10.43 -9.664,13.34 -6.445,2.906 -14.8,4.363 -25.082,4.363 -16.312,0 -29.078,-4.199 -38.293,-12.59 -9.218,-8.398 -13.824,-20.238 -13.824,-35.527 z m 127.482,0 h 27.89 v 122.41 c -0.81,0.332 -2.44,0.871 -4.89,1.621 -2.45,0.75 -5.14,1.121 -8.07,1.121 -4.74,0 -8.41,-1.039 -11.01,-3.113 -2.62,-2.082 -3.92,-5.45 -3.92,-10.098 z m 1.96,176.261 c -3.27,-3.324 -4.9,-7.398 -4.9,-12.219 0,-4.82 1.63,-8.89 4.9,-12.214 3.26,-3.328 7.25,-4.985 11.99,-4.985 4.73,0 8.72,1.657 11.99,4.985 3.26,3.324 4.89,7.394 4.89,12.214 0,4.821 -1.63,8.895 -4.89,12.219 -3.27,3.324 -7.26,4.985 -11.99,4.985 -4.74,0 -8.73,-1.661 -11.99,-4.985 m 72.92,-164.297 c 0.97,-0.832 3.09,-2.078 6.36,-3.738 3.26,-1.664 7.54,-3.367 12.84,-5.109 5.3,-1.746 11.54,-3.282 18.72,-4.614 7.18,-1.328 15.17,-1.996 23.98,-1.996 18.27,0 32.26,3.743 41.97,11.223 9.7,7.477 14.56,17.449 14.56,29.914 0,11.133 -3.75,19.57 -11.23,25.305 -7.48,5.738 -17.98,9.515 -31.47,11.343 l -24.9,3.243 c -6.67,0.828 -11.79,2.367 -15.37,4.613 -3.58,2.242 -5.37,5.523 -5.37,9.848 0,10.132 9.46,15.207 28.39,15.207 6.85,0 12.88,-0.543 18.1,-1.621 5.22,-1.082 9.71,-2.329 13.46,-3.739 3.75,-1.418 6.73,-2.832 8.93,-4.238 2.21,-1.414 3.63,-2.457 4.29,-3.117 0.49,0.164 1.22,0.621 2.2,1.371 0.98,0.746 1.91,1.703 2.81,2.867 0.9,1.16 1.72,2.492 2.45,3.988 0.73,1.496 1.1,3.243 1.1,5.235 0,6.148 -4.69,11.136 -14.07,14.961 -9.38,3.82 -22.55,5.734 -39.52,5.734 -10.11,0 -18.73,-1.039 -25.85,-3.117 -7.12,-2.078 -12.9,-4.949 -17.35,-8.602 -4.44,-3.656 -7.69,-7.851 -9.75,-12.59 -2.05,-4.734 -3.08,-9.765 -3.08,-15.082 0,-6.152 1.1,-11.429 3.3,-15.832 2.2,-4.406 5.26,-8.105 9.18,-11.093 3.91,-2.993 8.6,-5.36 14.07,-7.106 5.46,-1.746 11.46,-2.953 17.98,-3.613 l 19.09,-2.246 c 8.81,-0.996 14.92,-2.703 18.35,-5.113 3.43,-2.411 5.14,-5.942 5.14,-10.594 0,-5.485 -2.69,-9.352 -8.08,-11.594 -5.38,-2.242 -12.31,-3.367 -20.79,-3.367 -6.53,0 -12.57,0.504 -18.11,1.496 -5.55,1 -10.49,2.203 -14.81,3.617 -4.32,1.41 -7.95,2.781 -10.89,4.113 -2.93,1.329 -4.97,2.407 -6.11,3.243 z m 199.3,111.692 c -8.24,-3.324 -15.37,-7.938 -21.41,-13.836 -6.04,-5.903 -10.77,-12.883 -14.19,-20.942 -3.43,-8.066 -5.14,-16.828 -5.14,-26.3 0,-9.313 1.71,-17.996 5.14,-26.055 3.42,-8.063 8.15,-15.043 14.19,-20.941 6.04,-5.903 13.17,-10.559 21.41,-13.961 8.24,-3.407 17.09,-5.114 26.55,-5.114 9.46,0 18.31,1.707 26.55,5.114 8.24,3.402 15.38,8.058 21.41,13.961 6.04,5.898 10.77,12.878 14.19,20.941 3.43,8.059 5.14,16.742 5.14,26.055 0,9.472 -1.71,18.234 -5.14,26.3 -3.42,8.059 -8.15,15.039 -14.19,20.942 -6.03,5.898 -13.17,10.512 -21.41,13.836 -8.24,3.324 -17.09,4.988 -26.55,4.988 -9.46,0 -18.31,-1.664 -26.55,-4.988 m 11.01,-98.852 c -4.65,2.078 -8.64,4.988 -11.99,8.731 -3.34,3.738 -5.95,8.054 -7.83,12.961 -1.87,4.902 -2.81,10.261 -2.81,16.082 0,5.812 0.94,11.257 2.81,16.328 1.88,5.07 4.49,9.429 7.83,13.09 3.35,3.652 7.34,6.519 11.99,8.597 4.65,2.078 9.83,3.117 15.54,3.117 5.55,0 10.68,-1.039 15.42,-3.117 4.73,-2.078 8.76,-4.945 12.11,-8.597 3.34,-3.661 5.95,-8.02 7.83,-13.09 1.87,-5.071 2.81,-10.516 2.81,-16.328 0,-5.821 -0.94,-11.18 -2.81,-16.082 -1.88,-4.907 -4.49,-9.223 -7.83,-12.961 -3.35,-3.743 -7.38,-6.653 -12.11,-8.731 -4.74,-2.078 -9.87,-3.113 -15.42,-3.113 -5.71,0 -10.89,1.035 -15.54,3.113 m 130.79,-24.804 h 27.9 V 744 c 0,11.301 2.65,19.898 7.95,25.801 5.3,5.898 13.25,8.851 23.86,8.851 10.43,0 18.35,-2.953 23.73,-8.851 5.38,-5.903 8.08,-14.5 8.08,-25.801 v -68.312 h 27.89 v 75.539 c 0,8.308 -1.47,15.746 -4.4,22.316 -2.94,6.562 -7.06,12.129 -12.36,16.703 -5.3,4.567 -11.62,8.059 -18.96,10.469 -7.34,2.406 -15.34,3.617 -23.98,3.617 -8.65,0 -16.61,-1.211 -23.86,-3.617 -7.26,-2.41 -13.54,-5.902 -18.84,-10.469 -5.31,-4.574 -9.47,-10.141 -12.48,-16.703 -3.02,-6.57 -4.53,-14.008 -4.53,-22.316 v -75.539"
         style="fill:#ffffff;fill-opacity:1;fill-rule:nonzero;stroke:none"
         id="path14" />
      <path
         d="m 317.957,735.918 c -1.68,0.34 -4.824,0.852 -9.437,1.539 -4.618,0.68 -11.536,1.023 -20.758,1.023 -11.41,0 -19.715,-1.753 -24.91,-5.253 -5.204,-3.504 -7.801,-9.02 -7.801,-16.539 0,-3.075 0.543,-5.895 1.637,-8.458 1.085,-2.566 2.972,-4.742 5.66,-6.539 2.679,-1.793 6.328,-3.164 10.945,-4.101 4.609,-0.942 10.355,-1.41 17.234,-1.41 7.715,0 13.84,0.297 18.371,0.894 4.528,0.602 7.547,1.067 9.059,1.414 z m 28.434,-56.914 c -1.68,-0.344 -4.321,-0.723 -7.926,-1.156 -3.61,-0.422 -7.848,-0.852 -12.711,-1.282 -4.863,-0.421 -10.316,-0.808 -16.352,-1.152 -6.043,-0.34 -12.332,-0.512 -18.875,-0.512 -13.082,0 -23.777,1.153 -32.082,3.457 -8.3,2.313 -14.843,5.387 -19.625,9.231 -4.781,3.848 -8.05,8.293 -9.812,13.332 -1.762,5.043 -2.645,10.211 -2.645,15.512 0,7.007 1.047,13.16 3.145,18.457 2.097,5.297 5.539,9.742 10.32,13.332 4.781,3.59 11.027,6.281 18.746,8.078 7.711,1.793 17.11,2.691 28.18,2.691 6.375,0 12.41,-0.219 18.117,-0.64 5.699,-0.43 9.981,-0.813 12.832,-1.157 0,5.981 -0.965,10.938 -2.89,14.871 -1.934,3.93 -4.575,7.004 -7.93,9.231 -3.356,2.215 -7.383,3.754 -12.078,4.613 -4.696,0.852 -9.899,1.281 -15.598,1.281 -9.562,0 -17.238,-1.113 -23.023,-3.332 -5.789,-2.222 -9.606,-4.101 -11.45,-5.64 -1.007,0.851 -2.39,2.476 -4.152,4.871 -1.762,2.39 -2.644,5.297 -2.644,8.715 0,2.39 0.628,4.742 1.89,7.05 1.258,2.309 3.477,4.36 6.668,6.157 3.184,1.793 7.461,3.203 12.832,4.226 5.367,1.028 12.16,1.539 20.383,1.539 9.894,0 18.91,-0.984 27.047,-2.949 8.133,-1.965 15.137,-5.086 21.012,-9.355 5.871,-4.278 10.441,-9.918 13.71,-16.922 3.274,-7.008 4.911,-15.469 4.911,-25.379 v -77.168"
         style="fill:#ffffff;fill-opacity:1;fill-rule:nonzero;stroke:none"
         id="path16" />
      <path
         d="m 391.539,756.172 c 0,8.543 1.551,16.191 4.656,22.945 3.102,6.746 7.379,12.473 12.832,17.176 5.45,4.695 11.911,8.289 19.375,10.77 7.465,2.472 15.641,3.714 24.536,3.714 8.886,0 17.109,-1.242 24.66,-3.714 7.547,-2.481 14.047,-6.075 19.5,-10.77 5.449,-4.703 9.687,-10.43 12.707,-17.176 3.019,-6.754 4.531,-14.402 4.531,-22.945 v -77.68 h -28.688 v 70.242 c 0,11.621 -2.765,20.465 -8.304,26.536 -5.535,6.066 -13.672,9.101 -24.406,9.101 -10.907,0 -19.086,-3.035 -24.536,-9.101 -5.453,-6.071 -8.175,-14.915 -8.175,-26.536 v -70.242 h -28.688 v 77.68"
         style="fill:#ffffff;fill-opacity:1;fill-rule:nonzero;stroke:none"
         id="path18" />
      <path
         d="m 116.465,682.055 c -7.777,14.656 -14.883,28.429 -21.3322,41.316 -6.4492,12.887 -11.9922,24.387 -16.6172,34.492 -4.6328,10.11 -8.1836,18.532 -10.664,25.27 -2.4805,6.738 -3.7227,11.121 -3.7227,13.14 0,3.54 1.1563,6.528 3.4727,8.973 2.3164,2.442 5.8672,3.664 10.664,3.664 3.4727,0 6.3282,-0.34 8.5586,-1.012 2.2305,-0.675 3.5117,-1.179 3.8438,-1.515 3.3047,-9.098 6.8593,-18.32 10.664,-27.672 3.805,-9.348 7.566,-18.191 11.285,-26.531 3.723,-8.34 7.196,-15.922 10.418,-22.742 3.223,-6.825 5.91,-12.426 8.063,-16.805 3.136,6.062 6.527,13.222 10.168,21.476 3.632,8.254 7.148,16.426 10.539,24.516 3.386,8.086 6.449,15.449 9.175,22.109 2.731,6.653 4.672,11.496 5.829,14.532 1.652,4.207 3.636,7.535 5.953,9.98 2.316,2.442 5.953,3.664 10.914,3.664 4.625,0 8.39,-0.801 11.285,-2.402 2.891,-1.602 4.504,-2.57 4.836,-2.906 -0.992,-3.536 -2.692,-8.379 -5.086,-14.528 -2.398,-6.152 -5.293,-13.015 -8.68,-20.597 -3.39,-7.579 -7.027,-15.5 -10.914,-23.754 -3.887,-8.254 -7.73,-16.297 -11.531,-24.133 -3.805,-7.832 -7.402,-15.121 -10.789,-21.856 -3.391,-6.742 -6.242,-12.3 -8.559,-16.679 h -27.773"
         style="fill:#ffffff;fill-opacity:1;fill-rule:nonzero;stroke:none"
         id="path20" />
      <path
         d="m 220.82,1125.66 c 115.223,0 220.821,70.32 220.821,187.71 0,117.39 -85.278,245.69 -200.5,245.69 C 125.918,1559.06 0,1463.9 0,1346.49 0,1229.1 105.598,1125.66 220.82,1125.66"
         style="fill:#f8d506;fill-opacity:1;fill-rule:nonzero;stroke:none"
         id="path22" />
      <path
         d="m 170.246,1271.87 c -1.859,-1.21 -5.359,-2.97 -10.508,-5.29 -5.148,-2.32 -11.941,-3.48 -20.379,-3.48 -5.91,0 -11.39,0.81 -16.453,2.45 -5.066,1.63 -9.539,4.16 -13.418,7.61 -3.886,3.43 -6.922,7.82 -9.117,13.15 -2.1952,5.33 -3.289,11.78 -3.289,19.34 0,7.23 1.0508,13.46 3.164,18.7 2.109,5.25 4.977,9.63 8.609,13.16 3.625,3.52 7.93,6.15 12.911,7.87 4.976,1.71 10.336,2.58 16.074,2.58 8.437,0 15.527,-1.34 21.265,-4 5.739,-2.67 10.129,-5.46 13.165,-8.39 2.027,1.55 4.179,3.79 6.457,6.71 2.277,2.92 3.418,6.1 3.418,9.54 0,2.58 -0.805,5.16 -2.407,7.74 -1.605,2.58 -4.222,4.9 -7.847,6.97 -3.633,2.06 -8.356,3.77 -14.176,5.16 -5.824,1.37 -12.871,2.06 -21.141,2.06 -9.789,0 -18.945,-1.51 -27.469,-4.52 -8.523,-3 -15.9058,-7.43 -22.148,-13.28 -6.2461,-5.85 -11.1406,-13.07 -14.6836,-21.66 -3.5468,-8.61 -5.3164,-18.41 -5.3164,-29.41 0,-11 1.8125,-20.72 5.4414,-29.15 3.6289,-8.43 8.5625,-15.52 14.8125,-21.28 6.2383,-5.76 13.5001,-10.1 21.7691,-13.02 8.266,-2.92 17.129,-4.39 26.583,-4.39 6.074,0 11.519,0.44 16.328,1.29 4.808,0.87 9.117,1.94 12.91,3.23 3.801,1.29 7.172,2.66 10.129,4.12 2.949,1.46 5.441,2.88 7.465,4.26 z m 168.348,46.94 c 0,9.97 -1.649,18.48 -4.938,25.53 -3.289,7.05 -7.89,12.73 -13.797,17.03 -5.91,4.29 -12.957,7.43 -21.14,9.41 -8.188,1.98 -17.254,2.97 -27.215,2.97 -8.27,0 -15.106,-0.52 -20.504,-1.55 -5.402,-1.03 -9.707,-2.45 -12.91,-4.25 -3.207,-1.81 -5.442,-3.87 -6.707,-6.2 -1.27,-2.32 -1.903,-4.68 -1.903,-7.09 0,-3.44 0.887,-6.36 2.661,-8.77 1.773,-2.41 3.164,-4.04 4.175,-4.9 1.856,1.55 5.696,3.44 11.52,5.68 5.824,2.23 13.547,3.35 23.164,3.35 5.734,0 10.969,-0.43 15.695,-1.29 4.723,-0.87 8.774,-2.41 12.153,-4.64 3.375,-2.24 6.031,-5.34 7.976,-9.29 1.938,-3.96 2.91,-8.94 2.91,-14.96 -2.875,0.34 -7.175,0.73 -12.914,1.16 -5.738,0.43 -11.812,0.64 -18.226,0.64 -11.137,0 -20.59,-0.9 -28.356,-2.7 -7.761,-1.81 -14.047,-4.51 -18.855,-8.13 -4.813,-3.61 -8.274,-8.08 -10.383,-13.41 -2.109,-5.33 -3.164,-11.52 -3.164,-18.57 0,-5.33 0.887,-10.54 2.66,-15.61 1.77,-5.07 5.063,-9.54 9.871,-13.41 4.813,-3.87 11.395,-6.96 19.746,-9.29 8.356,-2.31 19.114,-3.48 32.278,-3.48 6.582,0 12.914,0.18 18.988,0.52 6.074,0.35 11.559,0.73 16.453,1.16 4.895,0.43 9.156,0.86 12.785,1.29 3.629,0.43 6.285,0.81 7.977,1.16 z m -28.61,-58.04 c -1.515,-0.34 -4.554,-0.81 -9.113,-1.41 -4.555,-0.61 -10.719,-0.91 -18.48,-0.91 -6.922,0 -12.7,0.47 -17.34,1.42 -4.645,0.95 -8.317,2.32 -11.012,4.13 -2.703,1.8 -4.601,4 -5.695,6.57 -1.102,2.59 -1.649,5.42 -1.649,8.52 0,7.56 2.618,13.11 7.848,16.63 5.23,3.53 13.586,5.29 25.062,5.29 9.282,0 16.243,-0.34 20.887,-1.03 4.641,-0.69 7.805,-1.21 9.492,-1.55 z m 83.539,-20.11 h 28.864 v 74.8 c 0,21.31 9.871,31.98 29.617,31.98 5.398,0 10.211,-0.6 14.43,-1.8 4.218,-1.21 7.761,-2.5 10.632,-3.87 1.012,0.68 2.321,2.4 3.922,5.15 1.606,2.75 2.407,5.59 2.407,8.51 0,6.2 -3.332,10.8 -10,13.8 -6.668,3.01 -15.313,4.52 -25.95,4.52 -16.875,0 -30.086,-4.34 -39.617,-13.03 -9.535,-8.68 -14.305,-20.93 -14.305,-36.75 z m 123.793,-51.59 h 28.86 v 67.84 c 4.215,-5.51 10.039,-10.15 17.469,-13.93 7.425,-3.78 15.949,-5.68 25.57,-5.68 9.277,0 17.844,1.68 25.695,5.03 7.848,3.35 14.68,8.04 20.504,14.06 5.824,6.02 10.379,13.19 13.672,21.54 3.289,8.34 4.934,17.49 4.934,27.47 0,9.8 -1.688,18.91 -5.063,27.34 -3.379,8.42 -8.062,15.64 -14.051,21.66 -5.992,6.02 -13.039,10.75 -21.136,14.19 -8.102,3.44 -16.961,5.16 -26.582,5.16 -10.465,0 -20,-1.64 -28.61,-4.9 -8.605,-3.27 -15.945,-8.04 -22.023,-14.32 -6.075,-6.28 -10.801,-14.01 -14.176,-23.21 -3.379,-9.2 -5.063,-19.82 -5.063,-31.86 z m 51.77,77.51 c -4.809,2.14 -8.902,5.11 -12.277,8.9 -3.379,3.78 -6.036,8.25 -7.977,13.41 -1.941,5.16 -2.91,10.74 -2.91,16.76 0,6.19 0.969,11.83 2.91,16.9 1.941,5.07 4.641,9.41 8.102,13.02 3.457,3.61 7.597,6.45 12.406,8.52 4.808,2.06 10.082,3.09 15.82,3.09 5.738,0 11.016,-1.07 15.824,-3.22 4.813,-2.16 8.946,-5.08 12.407,-8.77 3.457,-3.7 6.113,-8.09 7.972,-13.15 1.856,-5.08 2.785,-10.54 2.785,-16.39 0,-6.02 -0.929,-11.6 -2.785,-16.76 -1.859,-5.16 -4.515,-9.63 -7.972,-13.41 -3.461,-3.79 -7.594,-6.76 -12.407,-8.9 -4.808,-2.15 -10.086,-3.22 -15.824,-3.22 -5.906,0 -11.265,1.07 -16.074,3.22 m 249.234,52.23 c 0,9.97 -1.644,18.48 -4.937,25.53 -3.289,7.05 -7.891,12.73 -13.793,17.03 -5.914,4.29 -12.957,7.43 -21.141,9.41 -8.187,1.98 -17.258,2.97 -27.215,2.97 -8.273,0 -15.105,-0.52 -20.507,-1.55 -5.403,-1.03 -9.704,-2.45 -12.911,-4.25 -3.207,-1.81 -5.441,-3.87 -6.711,-6.2 -1.261,-2.32 -1.894,-4.68 -1.894,-7.09 0,-3.44 0.883,-6.36 2.656,-8.77 1.774,-2.41 3.164,-4.04 4.18,-4.9 1.851,1.55 5.695,3.44 11.516,5.68 5.824,2.23 13.542,3.35 23.164,3.35 5.738,0 10.968,-0.43 15.695,-1.29 4.726,-0.87 8.773,-2.41 12.152,-4.64 3.375,-2.24 6.031,-5.34 7.973,-9.29 1.941,-3.96 2.914,-8.94 2.914,-14.96 -2.871,0.34 -7.176,0.73 -12.91,1.16 -5.742,0.43 -11.817,0.64 -18.227,0.64 -11.14,0 -20.594,-0.9 -28.355,-2.7 -7.766,-1.81 -14.051,-4.51 -18.864,-8.13 -4.804,-3.61 -8.269,-8.08 -10.375,-13.41 -2.113,-5.33 -3.164,-11.52 -3.164,-18.57 0,-5.33 0.883,-10.54 2.657,-15.61 1.769,-5.07 5.062,-9.54 9.871,-13.41 4.812,-3.87 11.394,-6.96 19.746,-9.29 8.355,-2.31 19.117,-3.48 32.281,-3.48 6.582,0 12.91,0.18 18.984,0.52 6.079,0.35 11.559,0.73 16.458,1.16 4.89,0.43 9.152,0.86 12.785,1.29 3.625,0.43 6.285,0.81 7.972,1.16 z m -28.605,-58.04 c -1.52,-0.34 -4.559,-0.81 -9.113,-1.41 -4.559,-0.61 -10.723,-0.91 -18.481,-0.91 -6.926,0 -12.703,0.47 -17.344,1.42 -4.64,0.95 -8.312,2.32 -11.011,4.13 -2.703,1.8 -4.602,4 -5.696,6.57 -1.101,2.59 -1.644,5.42 -1.644,8.52 0,7.56 2.613,13.11 7.847,16.63 5.227,3.53 13.582,5.29 25.063,5.29 9.277,0 16.242,-0.34 20.887,-1.03 4.636,-0.69 7.8,-1.21 9.492,-1.55 z m 83.539,-20.11 h 28.859 v 74.8 c 0,21.31 9.871,31.98 29.617,31.98 5.399,0 10.211,-0.6 14.43,-1.8 4.219,-1.21 7.762,-2.5 10.633,-3.87 1.012,0.68 2.32,2.4 3.926,5.15 1.601,2.75 2.406,5.59 2.406,8.51 0,6.2 -3.336,10.8 -10,13.8 -6.672,3.01 -15.316,4.52 -25.949,4.52 -16.879,0 -30.086,-4.34 -39.621,-13.03 -9.535,-8.68 -14.301,-20.93 -14.301,-36.75 z m 131.886,0 H 1034 v 126.64 c -0.84,0.34 -2.53,0.9 -5.06,1.68 -2.53,0.77 -5.31,1.16 -8.35,1.16 -4.9,0 -8.7,-1.08 -11.39,-3.23 -2.71,-2.15 -4.06,-5.63 -4.06,-10.44 z m 2.03,182.35 c -3.38,-3.44 -5.06,-7.65 -5.06,-12.63 0,-4.99 1.68,-9.2 5.06,-12.64 3.37,-3.45 7.51,-5.16 12.4,-5.16 4.9,0 9.03,1.71 12.41,5.16 3.37,3.44 5.06,7.65 5.06,12.64 0,4.98 -1.69,9.19 -5.06,12.63 -3.38,3.44 -7.51,5.16 -12.41,5.16 -4.89,0 -9.03,-1.72 -12.4,-5.16 m 75.44,-169.97 c 1.01,-0.87 3.2,-2.16 6.58,-3.87 3.38,-1.72 7.81,-3.49 13.29,-5.29 5.48,-1.81 11.94,-3.39 19.37,-4.77 7.42,-1.38 15.7,-2.07 24.81,-2.07 18.9,0 33.37,3.87 43.42,11.61 10.04,7.74 15.06,18.06 15.06,30.95 0,11.52 -3.87,20.25 -11.62,26.18 -7.74,5.94 -18.59,9.85 -32.56,11.74 l -25.75,3.35 c -6.9,0.86 -12.21,2.45 -15.91,4.77 -3.7,2.32 -5.55,5.72 -5.55,10.19 0,10.49 9.79,15.74 29.37,15.74 7.08,0 13.33,-0.56 18.73,-1.68 5.4,-1.12 10.04,-2.41 13.92,-3.87 3.88,-1.46 6.96,-2.93 9.24,-4.38 2.28,-1.47 3.76,-2.54 4.43,-3.23 0.51,0.17 1.27,0.64 2.28,1.42 1.01,0.77 1.98,1.76 2.91,2.97 0.93,1.2 1.77,2.58 2.53,4.12 0.76,1.55 1.14,3.36 1.14,5.42 0,6.36 -4.85,11.52 -14.55,15.48 -9.71,3.95 -23.34,5.93 -40.89,5.93 -10.46,0 -19.38,-1.08 -26.74,-3.23 -7.37,-2.14 -13.36,-5.11 -17.95,-8.89 -4.6,-3.79 -7.96,-8.13 -10.09,-13.03 -2.13,-4.9 -3.19,-10.1 -3.19,-15.6 0,-6.37 1.14,-11.83 3.41,-16.38 2.28,-4.56 5.45,-8.39 9.5,-11.48 4.05,-3.1 8.9,-5.55 14.56,-7.35 5.65,-1.81 11.85,-3.06 18.6,-3.74 l 19.75,-2.32 c 9.11,-1.03 15.44,-2.8 18.99,-5.29 3.54,-2.49 5.31,-6.15 5.31,-10.96 0,-5.68 -2.78,-9.68 -8.35,-12 -5.57,-2.32 -12.75,-3.48 -21.52,-3.48 -6.75,0 -13,0.52 -18.73,1.55 -5.74,1.03 -10.85,2.27 -15.32,3.74 -4.47,1.46 -8.23,2.87 -11.27,4.25 -3.03,1.38 -5.15,2.5 -6.32,3.35 z m 206.2,115.55 c -8.53,-3.44 -15.91,-8.21 -22.15,-14.32 -6.25,-6.1 -11.14,-13.32 -14.68,-21.66 -3.55,-8.34 -5.32,-17.41 -5.32,-27.21 0,-9.63 1.77,-18.62 5.32,-26.96 3.54,-8.34 8.43,-15.56 14.68,-21.66 6.24,-6.11 13.62,-10.93 22.15,-14.45 8.52,-3.52 17.68,-5.29 27.47,-5.29 9.78,0 18.94,1.77 27.46,5.29 8.53,3.52 15.91,8.34 22.16,14.45 6.24,6.1 11.14,13.32 14.68,21.66 3.54,8.34 5.32,17.33 5.32,26.96 0,9.8 -1.78,18.87 -5.32,27.21 -3.54,8.34 -8.44,15.56 -14.68,21.66 -6.25,6.11 -13.63,10.88 -22.16,14.32 -8.52,3.44 -17.68,5.16 -27.46,5.16 -9.79,0 -18.95,-1.72 -27.47,-5.16 m 11.39,-102.27 c -4.81,2.15 -8.94,5.16 -12.4,9.03 -3.46,3.86 -6.17,8.34 -8.1,13.41 -1.95,5.07 -2.92,10.62 -2.92,16.64 0,6.01 0.97,11.64 2.92,16.89 1.93,5.25 4.64,9.76 8.1,13.54 3.46,3.78 7.59,6.75 12.4,8.9 4.81,2.15 10.17,3.23 16.08,3.23 5.73,0 11.05,-1.08 15.95,-3.23 4.89,-2.15 9.07,-5.12 12.53,-8.9 3.46,-3.78 6.16,-8.29 8.1,-13.54 1.94,-5.25 2.91,-10.88 2.91,-16.89 0,-6.02 -0.97,-11.57 -2.91,-16.64 -1.94,-5.07 -4.64,-9.55 -8.1,-13.41 -3.46,-3.87 -7.64,-6.88 -12.53,-9.03 -4.9,-2.15 -10.22,-3.22 -15.95,-3.22 -5.91,0 -11.27,1.07 -16.08,3.22 m 135.31,-25.66 h 28.86 v 70.67 c 0,11.69 2.74,20.59 8.23,26.69 5.48,6.11 13.71,9.16 24.68,9.16 10.8,0 18.99,-3.05 24.56,-9.16 5.57,-6.1 8.36,-15 8.36,-26.69 v -70.67 h 28.86 v 78.15 c 0,8.6 -1.52,16.29 -4.56,23.08 -3.04,6.79 -7.3,12.55 -12.79,17.29 -5.48,4.72 -12.02,8.34 -19.62,10.83 -7.59,2.49 -15.86,3.74 -24.81,3.74 -8.94,0 -17.17,-1.25 -24.68,-3.74 -7.51,-2.49 -14.01,-6.11 -19.49,-10.83 -5.49,-4.74 -9.79,-10.5 -12.91,-17.29 -3.13,-6.79 -4.69,-14.48 -4.69,-23.08 v -78.15"
         style="fill:#ffffff;fill-opacity:1;fill-rule:nonzero;stroke:none"
         id="path24" />
      <path
         d="m 211.508,0 c 110.363,0 211.508,66.7305 211.508,178.121 0,111.379 -81.68,233.117 -192.043,233.117 C 120.609,411.238 0,320.941 0,209.551 0,98.1602 101.145,0 211.508,0"
         style="fill:#61c898;fill-opacity:1;fill-rule:nonzero;stroke:none"
         id="path26" />
      <path
         d="m 495.5,60.1719 h 27.641 v 64.3671 c 4.039,-5.23 9.617,-9.629 16.73,-13.219 7.113,-3.582 15.277,-5.379 24.492,-5.379 8.891,0 17.094,1.59 24.614,4.77 7.515,3.18 14.062,7.629 19.64,13.34 5.578,5.711 9.942,12.519 13.094,20.437 3.152,7.91 4.727,16.602 4.727,26.063 0,9.301 -1.618,17.949 -4.848,25.937 -3.238,8 -7.723,14.852 -13.461,20.563 -5.738,5.711 -12.488,10.199 -20.246,13.461 -7.758,3.258 -16.246,4.898 -25.461,4.898 -10.024,0 -19.152,-1.558 -27.399,-4.648 -8.246,-3.114 -15.277,-7.633 -21.097,-13.59 -5.821,-5.953 -10.348,-13.301 -13.578,-22.031 -3.235,-8.719 -4.848,-18.801 -4.848,-30.219 z m 49.586,73.5471 c -4.606,2.031 -8.527,4.851 -11.762,8.441 -3.234,3.59 -5.781,7.828 -7.636,12.731 -1.86,4.89 -2.79,10.191 -2.79,15.898 0,5.883 0.93,11.223 2.79,16.031 1.855,4.809 4.445,8.942 7.757,12.36 3.313,3.429 7.278,6.121 11.883,8.082 4.606,1.957 9.66,2.937 15.156,2.937 5.493,0 10.547,-1.019 15.153,-3.058 4.609,-2.039 8.566,-4.821 11.883,-8.321 3.312,-3.511 5.859,-7.672 7.64,-12.48 1.774,-4.82 2.664,-10 2.664,-15.551 0,-5.707 -0.89,-11.008 -2.664,-15.898 -1.781,-4.903 -4.328,-9.141 -7.64,-12.731 -3.317,-3.59 -7.274,-6.41 -11.883,-8.441 -4.606,-2.039 -9.66,-3.059 -15.153,-3.059 -5.66,0 -10.793,1.02 -15.398,3.059 m 238.723,49.562 c 0,9.457 -1.575,17.528 -4.731,24.231 -3.148,6.679 -7.555,12.07 -13.211,16.148 -5.664,4.078 -12.41,7.051 -20.25,8.93 -7.844,1.879 -16.527,2.82 -26.066,2.82 -7.922,0 -14.469,-0.488 -19.641,-1.469 -5.176,-0.98 -9.297,-2.332 -12.367,-4.043 -3.074,-1.707 -5.211,-3.668 -6.426,-5.867 -1.211,-2.211 -1.816,-4.449 -1.816,-6.73 0,-3.27 0.847,-6.039 2.543,-8.332 1.699,-2.278 3.031,-3.828 4.004,-4.649 1.773,1.469 5.453,3.27 11.031,5.391 5.578,2.117 12.973,3.18 22.187,3.18 5.497,0 10.508,-0.411 15.036,-1.219 4.523,-0.82 8.402,-2.293 11.636,-4.41 3.235,-2.121 5.778,-5.063 7.637,-8.813 1.859,-3.75 2.789,-8.48 2.789,-14.187 -2.75,0.32 -6.871,0.687 -12.363,1.097 -5.5,0.403 -11.317,0.61 -17.457,0.61 -10.672,0 -19.727,-0.86 -27.16,-2.571 -7.438,-1.707 -13.457,-4.277 -18.067,-7.707 -4.605,-3.429 -7.922,-7.671 -9.941,-12.73 -2.024,-5.063 -3.031,-10.93 -3.031,-17.621 0,-5.059 0.847,-10 2.546,-14.809 1.696,-4.812 4.848,-9.051 9.457,-12.722 4.606,-3.668 10.911,-6.61 18.915,-8.809 8,-2.199 18.308,-3.309 30.914,-3.309 6.304,0 12.367,0.168 18.187,0.489 5.82,0.332 11.07,0.699 15.762,1.109 4.683,0.402 8.765,0.813 12.246,1.223 3.473,0.41 6.019,0.769 7.637,1.097 z m -27.399,-55.07 c -1.457,-0.332 -4.367,-0.781 -8.73,-1.352 -4.364,-0.57 -10.27,-0.847 -17.703,-0.847 -6.629,0 -12.164,0.437 -16.61,1.34 -4.445,0.898 -7.965,2.207 -10.547,3.918 -2.586,1.71 -4.406,3.789 -5.457,6.242 -1.054,2.449 -1.574,5.136 -1.574,8.078 0,7.18 2.504,12.441 7.516,15.781 5.008,3.34 13.011,5.02 24.008,5.02 8.886,0 15.554,-0.332 20.003,-0.981 4.446,-0.648 7.477,-1.14 9.094,-1.469 z m 80.016,-19.09 h 27.64 v 70.981 c 0,20.218 9.457,30.339 28.368,30.339 5.175,0 9.781,-0.57 13.824,-1.711 4.039,-1.14 7.433,-2.371 10.183,-3.671 0.969,0.652 2.223,2.281 3.758,4.89 1.539,2.61 2.305,5.301 2.305,8.082 0,5.867 -3.191,10.239 -9.578,13.09 -6.387,2.859 -14.668,4.289 -24.856,4.289 -16.164,0 -28.816,-4.129 -37.945,-12.359 -9.137,-8.242 -13.699,-19.871 -13.699,-34.879 z m 126.328,0 h 27.641 v 120.168 c -0.809,0.32 -2.422,0.852 -4.848,1.59 -2.426,0.73 -5.094,1.101 -8.004,1.101 -4.691,0 -8.328,-1.019 -10.91,-3.058 -2.586,-2.043 -3.879,-5.352 -3.879,-9.91 z m 1.937,173.027 c -3.234,-3.257 -4.847,-7.257 -4.847,-11.988 0,-4.738 1.613,-8.73 4.847,-11.988 3.235,-3.274 7.192,-4.902 11.883,-4.902 4.688,0 8.649,1.628 11.883,4.902 3.231,3.258 4.848,7.25 4.848,11.988 0,4.731 -1.617,8.731 -4.848,11.988 -3.234,3.262 -7.195,4.903 -11.883,4.903 -4.691,0 -8.648,-1.641 -11.883,-4.903 m 72.259,-161.277 c 0.97,-0.82 3.07,-2.039 6.31,-3.672 3.23,-1.64 7.47,-3.308 12.73,-5.019 5.25,-1.711 11.43,-3.219 18.54,-4.532 7.12,-1.296 15.04,-1.957 23.77,-1.957 18.1,0 31.96,3.68 41.59,11.02 9.61,7.34 14.42,17.129 14.42,29.371 0,10.93 -3.71,19.207 -11.12,24.84 -7.42,5.629 -17.82,9.34 -31.19,11.129 l -24.67,3.179 c -6.61,0.821 -11.69,2.329 -15.23,4.532 -3.55,2.207 -5.32,5.418 -5.32,9.668 0,9.949 9.37,14.929 28.13,14.929 6.79,0 12.76,-0.527 17.94,-1.589 5.17,-1.071 9.61,-2.29 13.33,-3.668 3.72,-1.391 6.67,-2.782 8.86,-4.161 2.18,-1.39 3.59,-2.41 4.24,-3.062 0.48,0.16 1.21,0.609 2.18,1.34 0.97,0.742 1.9,1.672 2.79,2.82 0.89,1.141 1.7,2.441 2.42,3.91 0.73,1.473 1.1,3.18 1.1,5.141 0,6.039 -4.65,10.93 -13.95,14.691 -9.29,3.75 -22.35,5.629 -39.16,5.629 -10.02,0 -18.56,-1.019 -25.62,-3.058 -7.05,-2.043 -12.78,-4.864 -17.19,-8.454 -4.4,-3.589 -7.62,-7.707 -9.66,-12.347 -2.04,-4.66 -3.05,-9.59 -3.05,-14.813 0,-6.039 1.09,-11.218 3.27,-15.539 2.18,-4.328 5.21,-7.961 9.09,-10.89 3.88,-2.938 8.53,-5.27 13.94,-6.977 5.42,-1.711 11.36,-2.902 17.82,-3.551 l 18.92,-2.199 c 8.73,-0.98 14.79,-2.66 18.19,-5.023 3.39,-2.36 5.09,-5.829 5.09,-10.399 0,-5.379 -2.67,-9.18 -8,-11.379 -5.34,-2.199 -12.21,-3.312 -20.61,-3.312 -6.47,0 -12.46,0.5 -17.95,1.472 -5.5,0.981 -10.39,2.168 -14.67,3.547 -4.29,1.391 -7.88,2.731 -10.79,4.043 -2.91,1.301 -4.93,2.36 -6.06,3.18 z m 197.51,109.641 c -8.17,-3.262 -15.24,-7.793 -21.22,-13.582 -5.98,-5.789 -10.67,-12.649 -14.07,-20.559 -3.39,-7.922 -5.09,-16.519 -5.09,-25.82 0,-9.141 1.7,-17.66 5.09,-25.582 3.4,-7.91 8.09,-14.758 14.07,-20.547 5.98,-5.801 13.05,-10.371 21.22,-13.711 8.16,-3.34 16.93,-5.02 26.3,-5.02 9.38,0 18.15,1.68 26.31,5.02 8.17,3.34 15.24,7.91 21.22,13.711 5.98,5.789 10.67,12.637 14.07,20.547 3.39,7.922 5.09,16.441 5.09,25.582 0,9.301 -1.7,17.898 -5.09,25.82 -3.4,7.91 -8.09,14.77 -14.07,20.559 -5.98,5.789 -13.05,10.32 -21.22,13.582 -8.16,3.258 -16.93,4.898 -26.31,4.898 -9.37,0 -18.14,-1.64 -26.3,-4.898 m 10.91,-97.043 c -4.61,2.043 -8.57,4.902 -11.88,8.57 -3.32,3.672 -5.91,7.91 -7.76,12.723 -1.86,4.82 -2.79,10.078 -2.79,15.789 0,5.711 0.93,11.051 2.79,16.031 1.85,4.977 4.44,9.258 7.76,12.848 3.31,3.59 7.27,6.402 11.88,8.441 4.6,2.039 9.74,3.059 15.39,3.059 5.5,0 10.59,-1.02 15.28,-3.059 4.69,-2.039 8.69,-4.851 12,-8.441 3.32,-3.59 5.9,-7.871 7.76,-12.848 1.86,-4.98 2.79,-10.32 2.79,-16.031 0,-5.711 -0.93,-10.969 -2.79,-15.789 -1.86,-4.813 -4.44,-9.051 -7.76,-12.723 -3.31,-3.668 -7.31,-6.527 -12,-8.57 -4.69,-2.039 -9.78,-3.059 -15.28,-3.059 -5.65,0 -10.79,1.02 -15.39,3.059 m 129.6,-24.348 h 27.65 v 67.059 c 0,11.09 2.62,19.539 7.88,25.332 5.25,5.789 13.13,8.687 23.64,8.687 10.34,0 18.18,-2.898 23.52,-8.687 5.33,-5.793 8,-14.242 8,-25.332 v -67.059 h 27.64 v 74.16 c 0,8.149 -1.45,15.449 -4.36,21.899 -2.91,6.441 -7,11.91 -12.25,16.402 -5.25,4.477 -11.52,7.906 -18.79,10.277 -7.27,2.36 -15.2,3.551 -23.76,3.551 -8.57,0 -16.45,-1.191 -23.64,-3.551 -7.2,-2.371 -13.42,-5.8 -18.68,-10.277 -5.25,-4.492 -9.37,-9.961 -12.36,-16.402 -3,-6.45 -4.49,-13.75 -4.49,-21.899 v -74.16"
         style="fill:#ffffff;fill-opacity:1;fill-rule:nonzero;stroke:none"
         id="path28" />
      <path
         d="m 72.2813,204.801 c 5.6054,10.14 13.6796,18.07 24.2187,23.808 10.539,5.743 23.09,8.621 37.645,8.621 8.363,0 15.937,-0.98 22.71,-2.921 6.778,-1.938 12.004,-4.598 15.688,-7.977 3.676,-3.211 5.52,-6.75 5.52,-10.633 0,-2.711 -0.879,-5.449 -2.637,-8.238 -1.754,-2.789 -4.141,-5.359 -7.149,-7.723 -4.183,3.883 -9.25,6.871 -15.183,8.992 -5.942,2.11 -12.258,3.168 -18.949,3.168 -12.215,0 -22.004,-3.679 -29.364,-11.019 -7.363,-7.348 -11.0427,-17.527 -11.0427,-30.527 0,-12.832 3.7226,-23.012 11.1677,-30.52 7.446,-7.512 17.524,-11.273 30.242,-11.273 11.375,0 21.747,2.871 31.122,8.613 l 12.043,-21.531 c -13.887,-8.442 -29.364,-12.661 -46.426,-12.661 -13.551,0 -25.434,2.739 -35.637,8.231 -10.207,5.488 -18.1562,13.211 -23.8437,23.18 -5.6875,9.961 -8.5313,21.691 -8.5313,35.199 0,13.34 2.8008,25.082 8.4063,35.211"
         style="fill:#ffffff;fill-opacity:1;fill-rule:nonzero;stroke:none"
         id="path30" />
      <path
         d="m 303.797,148.441 c 3.344,6.34 5.016,13.559 5.016,21.661 0,8.109 -1.672,15.32 -5.016,21.66 -3.352,6.328 -7.992,11.269 -13.93,14.82 -5.941,3.539 -12.676,5.316 -20.203,5.316 -7.531,0 -14.266,-1.777 -20.203,-5.316 -5.941,-3.551 -10.582,-8.492 -13.93,-14.82 -3.347,-6.34 -5.019,-13.551 -5.019,-21.66 0,-8.102 1.672,-15.321 5.019,-21.661 3.348,-6.332 7.989,-11.269 13.93,-14.812 5.937,-3.547 12.672,-5.32 20.203,-5.32 7.527,0 14.262,1.773 20.203,5.32 5.938,3.543 10.578,8.48 13.93,14.812 z M 209.809,135.91 c -6.11,10.129 -9.161,21.531 -9.161,34.192 0,12.668 3.051,24.058 9.161,34.199 6.105,10.129 14.343,18.148 24.718,24.058 10.371,5.911 22.086,8.871 35.137,8.871 13.051,0 24.801,-2.96 35.262,-8.871 10.453,-5.91 18.695,-13.929 24.719,-24.058 6.023,-10.141 9.035,-21.531 9.035,-34.199 0,-12.661 -3.012,-24.063 -9.035,-34.192 -6.024,-10.14 -14.266,-18.16 -24.719,-24.07 -10.461,-5.91 -22.211,-8.86 -35.262,-8.86 -13.051,0 -24.766,2.95 -35.137,8.86 -10.375,5.91 -18.613,13.93 -24.718,24.07"
         style="fill:#ffffff;fill-opacity:1;fill-rule:nonzero;stroke:none"
         id="path32" />
      <path
         d="m 375.316,188.34 c 0,15.359 4.727,27.359 14.18,35.969 9.449,8.613 22.547,12.921 39.277,12.921 11.375,0 20.157,-1.691 26.348,-5.07 6.192,-3.379 9.289,-7.691 9.289,-12.922 0,-2.699 -0.715,-5.406 -2.133,-8.097 -1.425,-2.711 -2.804,-4.481 -4.14,-5.321 -7.367,3.711 -15.649,5.571 -24.848,5.571 -19.574,0 -29.363,-10.469 -29.363,-31.411 v -73.46 h -28.61 v 81.82"
         style="fill:#ffffff;fill-opacity:1;fill-rule:nonzero;stroke:none"
         id="path34" />
    </g>
  </g>
</svg>
