<?xml version="1.0" encoding="UTF-8" standalone="no"?>
<!-- Created with Inkscape (http://www.inkscape.org/) -->

<svg
   version="1.1"
   id="svg2"
   width="1269.2267"
   height="481.22668"
   viewBox="0 0 1269.2267 481.22668"
   sodipodi:docname="25012827143 - LB_Cavendish Nuclear logo_White.eps"
   xmlns:inkscape="http://www.inkscape.org/namespaces/inkscape"
   xmlns:sodipodi="http://sodipodi.sourceforge.net/DTD/sodipodi-0.dtd"
   xmlns="http://www.w3.org/2000/svg"
   xmlns:svg="http://www.w3.org/2000/svg">
  <defs
     id="defs6" />
  <sodipodi:namedview
     id="namedview4"
     pagecolor="#ffffff"
     bordercolor="#000000"
     borderopacity="0.25"
     inkscape:showpageshadow="2"
     inkscape:pageopacity="0.0"
     inkscape:pagecheckerboard="0"
     inkscape:deskcolor="#d1d1d1" />
  <g
     id="g8"
     inkscape:groupmode="layer"
     inkscape:label="ink_ext_XXXXXX"
     transform="matrix(1.3333333,0,0,-1.3333333,0,481.22667)">
    <g
       id="g10"
       transform="scale(0.1)">
      <path
         d="m 4377.58,710.539 v 695.931 c 0,17.8 5.93,25.23 22.25,25.23 h 96.45 c 14.84,0 19.3,-8.91 19.3,-19.3 0,-7.41 1.48,-13.35 11.86,-13.35 29.68,0 100.91,48.97 215.16,48.97 204.78,0 256.71,-102.39 256.71,-301.22 V 710.539 c 0,-17.797 -10.38,-26.707 -26.71,-26.707 h -89.03 c -16.32,0 -26.71,8.91 -26.71,26.707 v 424.391 c 0,142.44 -31.16,209.22 -164.71,209.22 -84.58,0 -170.64,-23.74 -170.64,-92 V 710.539 c 0,-17.797 -8.9,-26.707 -26.71,-26.707 h -90.51 c -14.84,0 -26.71,7.418 -26.71,26.707"
         style="fill:#ffffff;fill-opacity:1;fill-rule:nonzero;stroke:none"
         id="path12" />
      <path
         d="m 5221.88,953.891 v 451.099 c 0,17.8 10.38,26.71 26.71,26.71 h 89.03 c 16.32,0 26.71,-8.91 26.71,-26.71 V 977.641 c 0,-136.52 35.61,-198.84 167.67,-198.84 86.07,0 167.68,31.16 167.68,108.32 v 517.869 c 0,17.8 10.38,26.71 26.71,26.71 h 89.03 c 16.32,0 26.71,-8.91 26.71,-26.71 V 709.059 c 0,-17.809 -5.94,-25.227 -22.26,-25.227 h -94.97 c -14.84,0 -19.29,8.91 -19.29,17.809 0,8.898 -2.97,14.839 -13.35,14.839 -31.16,0 -102.39,-41.55 -216.64,-41.55 -197.35,0 -253.74,97.929 -253.74,278.961"
         style="fill:#ffffff;fill-opacity:1;fill-rule:nonzero;stroke:none"
         id="path14" />
      <path
         d="m 6024.61,1051.83 c 0,235.93 120.2,396.19 373.94,396.19 75.67,0 132.06,-14.84 178.06,-35.62 23.74,-11.87 28.19,-19.29 28.19,-35.61 v -65.29 c 0,-13.35 -2.97,-20.77 -16.32,-20.77 -26.71,0 -69.74,56.39 -179.55,56.39 -154.32,0 -235.93,-109.81 -235.93,-290.84 0,-175.1 84.58,-275.999 231.48,-275.999 103.87,0 158.77,50.457 181.03,50.457 14.84,0 19.29,-10.386 19.29,-28.199 v -51.93 c 0,-22.257 -11.87,-31.16 -35.61,-41.55 -47.48,-20.77 -118.71,-34.129 -192.9,-34.129 -237.42,0 -351.68,143.941 -351.68,376.9"
         style="fill:#ffffff;fill-opacity:1;fill-rule:nonzero;stroke:none"
         id="path16" />
      <path
         d="m 6796.2,709.059 v 985.281 c 0,17.8 10.39,28.19 28.2,28.19 h 89.03 c 17.81,0 26.71,-10.39 26.71,-28.19 V 709.059 c 0,-16.317 -8.9,-25.227 -25.23,-25.227 h -92 c -16.32,0 -26.71,8.91 -26.71,25.227"
         style="fill:#ffffff;fill-opacity:1;fill-rule:nonzero;stroke:none"
         id="path18" />
      <path
         d="m 6796.2,709.059 v 985.281 c 0,17.8 10.39,28.19 28.2,28.19 h 89.03 c 17.81,0 26.71,-10.39 26.71,-28.19 V 709.059 c 0,-16.317 -8.9,-25.227 -25.23,-25.227 h -92 c -16.32,0 -26.71,8.91 -26.71,25.227 z"
         style="fill:none;stroke:#ffffff;stroke-width:10;stroke-linecap:butt;stroke-linejoin:miter;stroke-miterlimit:10;stroke-dasharray:none;stroke-opacity:1"
         id="path20" />
      <path
         d="m 7640.49,1142.34 c 16.33,0 20.78,5.94 20.78,20.78 0,60.83 -32.64,186.96 -186.96,186.96 -138,0 -195.87,-123.16 -195.87,-188.44 0,-13.36 1.48,-19.3 19.28,-19.3 z m -513.41,-81.61 c 0,221.09 114.26,387.29 348.71,387.29 210.71,0 326.45,-126.13 326.45,-365.03 0,-28.2 -4.46,-37.09 -28.19,-37.09 h -476.33 c -20.77,0 -23.73,-7.43 -23.73,-31.17 0,-197.351 143.93,-234.449 253.73,-234.449 133.55,0 186.97,48.969 216.65,48.969 13.35,0 16.32,-8.898 16.32,-22.262 V 753.57 c 0,-17.8 -2.97,-28.191 -22.26,-38.578 -35.61,-17.801 -123.16,-40.062 -219.61,-40.062 -228.51,0 -391.74,99.422 -391.74,385.8"
         style="fill:#ffffff;fill-opacity:1;fill-rule:nonzero;stroke:none"
         id="path22" />
      <path
         d="m 8340.86,795.121 c 34.12,16.32 40.06,37.098 40.06,74.188 v 191.421 c 0,14.84 -2.97,19.29 -11.87,19.29 -11.87,0 -60.84,-11.87 -142.45,-35.61 -86.07,-25.22 -172.13,-53.422 -172.13,-154.32 0,-69.738 46,-123.16 151.35,-123.16 50.46,0 96.45,10.39 135.04,28.191 z m -421.42,87.551 c 0,163.228 124.65,212.188 243.35,244.828 l 167.68,48.97 c 37.09,10.39 50.45,19.29 50.45,46 v 17.8 c 0,48.98 -7.42,106.85 -139.48,106.85 -135.04,0 -219.62,-53.42 -253.74,-53.42 -13.36,0 -19.29,5.93 -19.29,22.26 v 44.51 c 0,16.32 1.48,28.2 29.68,41.55 35.6,19.29 130.57,46 246.31,46 194.39,0 271.55,-71.23 271.55,-225.55 V 710.539 c 0,-16.32 -8.91,-26.707 -28.2,-26.707 h -78.64 c -16.33,0 -22.25,5.938 -22.25,17.809 0,11.871 -4.46,17.808 -13.36,17.808 -22.26,0 -87.55,-44.519 -210.71,-44.519 -145.42,0 -243.35,60.84 -243.35,207.742"
         style="fill:#ffffff;fill-opacity:1;fill-rule:nonzero;stroke:none"
         id="path24" />
      <path
         d="m 8750.39,709.059 v 697.411 c 0,16.32 5.93,25.23 22.25,25.23 h 96.45 c 17.81,0 20.78,-7.43 20.78,-25.23 0,-16.32 2.96,-22.26 16.32,-22.26 34.13,0 92,60.84 184,60.84 50.44,0 59.35,-11.87 59.35,-34.13 v -71.23 c 0,-11.87 -5.93,-20.77 -17.8,-20.77 -20.78,0 -41.55,4.45 -78.65,4.45 -90.51,0 -158.77,-41.55 -158.77,-132.06 V 709.059 c 0,-17.809 -8.91,-25.227 -23.75,-25.227 h -96.44 c -13.36,0 -23.74,7.418 -23.74,25.227"
         style="fill:#ffffff;fill-opacity:1;fill-rule:nonzero;stroke:none"
         id="path26" />
      <path
         d="m 2767.9,203.082 c 0,52.09 -21.44,91.039 -77.47,91.039 -28.45,0 -54.28,-6.121 -54.28,-31.512 V 139.621 c 0,-24.949 25.83,-30.191 52.96,-30.191 53.41,0 78.79,37.621 78.79,93.652 z M 2612.08,7.87891 V 301.121 c 0,4.82 0.44,7.449 4.82,7.449 h 12.25 c 3.94,0 4.82,-1.75 4.82,-4.808 0,-2.641 0.87,-4.391 3.94,-4.391 9.63,0 24.95,13.578 57.34,13.578 88.41,0 97.6,-74.847 97.6,-110.738 0,-76.16 -40.71,-112.4922 -100.23,-112.4922 -35.89,0 -48.15,11.3832 -53.4,11.3832 -2.62,0 -3.07,-2.1918 -3.07,-5.2504 V 7.87891 C 2636.15,1.75 2633.09,0 2628.28,0 h -8.32 c -5.25,0 -7.88,1.75 -7.88,7.87891"
         style="fill:#ffffff;fill-opacity:1;fill-rule:nonzero;stroke:none"
         id="path28" />
      <path
         d="m 2957.42,116.859 c 11.38,4.821 12.7,10.063 12.7,21.891 v 68.27 c 0,3.511 0,5.691 -3.07,5.691 -3.06,0 -18.82,-4.371 -50.77,-13.563 -26.26,-7.437 -57.33,-17.066 -57.33,-51.207 0,-22.332 14.87,-40.711 51.2,-40.711 17.51,0 33.7,3.93 47.27,9.629 z m -122.99,29.332 c 0,49.008 41.58,61.7 71.78,70.469 l 51.21,15.309 c 7.45,2.179 12.7,4.82 12.7,13.57 v 7.012 c 0,18.808 -1.76,40.687 -46.4,40.687 -38.96,0 -61.28,-15.316 -70.9,-15.316 -3.07,0 -4.82,1.758 -4.82,5.258 v 6.57 c 0,3.93 0.44,6.129 4.38,9.191 7.43,4.368 35.89,14.008 71.78,14.008 51.21,0 70.03,-19.269 70.03,-62.148 V 99.7891 c 0,-5.25 -2.63,-7.8789 -7.88,-7.8789 h -7.44 c -5.26,0 -7.01,1.7617 -7.01,5.25 0,3.4998 -0.87,5.2498 -3.5,5.2498 -5.69,0 -24.51,-12.6912 -62.59,-12.6912 -39.82,0 -71.34,14.8902 -71.34,56.4722"
         style="fill:#ffffff;fill-opacity:1;fill-rule:nonzero;stroke:none"
         id="path30" />
      <path
         d="M 3070.35,98.9102 V 301.559 c 0,4.382 1.32,7.011 6.57,7.011 h 10.5 c 5.69,0 6.57,-2.191 6.57,-7.879 0,-5.261 0.88,-6.57 4.37,-6.57 9.64,0 30.21,18.828 55.59,18.828 13.57,0 16.64,-2.64 16.64,-8.769 v -10.059 c 0,-3.5 -1.75,-5.25 -4.82,-5.25 -5.69,0 -11.38,0.879 -20.57,0.879 -25.39,0 -50.78,-11.828 -50.78,-41.59 V 98.9102 c 0,-4.8204 -2.62,-7 -7,-7 h -10.06 c -4.38,0 -7.01,2.1796 -7.01,7"
         style="fill:#ffffff;fill-opacity:1;fill-rule:nonzero;stroke:none"
         id="path32" />
      <path
         d="m 3226.17,144.871 v 137.871 c 0,3.5 -0.88,5.68 -3.94,5.68 h -33.26 c -4.82,0 -7.44,1.758 -7.44,7.008 v 6.129 c 0,4.82 2.62,7.011 7.44,7.011 h 33.26 c 3.06,0 3.94,1.739 3.94,5.25 v 49.891 c 0,4.82 1.75,7.437 7,7.437 h 9.64 c 5.25,0 7.43,-2.617 7.43,-7.437 V 313.82 c 0,-3.511 1.76,-5.25 5.26,-5.25 h 59.96 c 4.38,0 7.01,-2.191 7.01,-7.011 v -6.129 c 0,-4.809 -2.63,-7.008 -7.01,-7.008 h -60.84 c -2.62,0 -4.38,-1.731 -4.38,-5.68 V 151.441 c 0,-29.332 9.63,-41.152 31.95,-41.152 22.77,0 30.64,12.262 36.34,12.262 2.62,0 3.94,-1.75 3.94,-4.821 v -10.058 c 0,-11.8204 -22.33,-17.9532 -42.9,-17.9532 -37.64,0 -53.4,19.7112 -53.4,55.1522"
         style="fill:#ffffff;fill-opacity:1;fill-rule:nonzero;stroke:none"
         id="path34" />
      <path
         d="m 3623.59,202.648 c 0,53.391 -21.87,91.473 -71.77,91.473 -51.21,0 -71.78,-38.949 -71.78,-91.473 0,-59.089 23.63,-94.109 71.78,-94.109 46.83,0 71.77,35.02 71.77,94.109 z m -167.63,0 c 0,62.582 26.71,110.301 95.86,110.301 67.4,0 95.85,-42.91 95.85,-110.301 0,-69.597 -30.2,-112.9292 -95.85,-112.9292 -69.15,0 -95.86,46.3902 -95.86,112.9292"
         style="fill:#ffffff;fill-opacity:1;fill-rule:nonzero;stroke:none"
         id="path36" />
      <path
         d="M 3724.28,98.9102 V 283.18 c 0,3.929 -1.32,5.691 -4.38,5.691 h -31.51 c -4.38,0 -6.13,1.75 -6.13,6.121 V 302 c 0,4.379 1.75,6.57 6.13,6.57 h 31.51 c 3.06,0 4.38,1.739 4.38,5.25 v 32.821 c 0,31.961 13.56,56.031 50.33,56.031 13.56,0 30.63,-3.512 30.63,-10.953 v -8.739 c 0,-3.949 -1.74,-5.261 -4.37,-5.261 -3.94,0 -9.19,5.261 -23.64,5.261 -21.44,0 -28.88,-11.832 -28.88,-38.96 v -30.2 c 0,-3.511 1.31,-5.25 4.81,-5.25 h 41.58 c 4.38,0 6.13,-2.191 6.13,-6.57 v -7.008 c 0,-4.371 -1.75,-6.121 -6.13,-6.121 h -41.58 c -3.5,0 -4.81,-1.762 -4.81,-5.691 V 98.9102 c 0,-4.8204 -2.19,-7 -7,-7 h -10.51 c -4.37,0 -6.56,2.1796 -6.56,7"
         style="fill:#ffffff;fill-opacity:1;fill-rule:nonzero;stroke:none"
         id="path38" />
      <path
         d="m 4023.65,112.051 c 48.15,0 75.73,18.379 75.73,62.59 0,40.691 -23.64,62.578 -71.79,62.578 h -44.2 c -3.94,0 -4.38,-2.617 -4.38,-5.25 v -114.68 c 0,-3.93 1.32,-5.238 4.81,-5.238 z m 6.13,145.301 c 35.02,0 58.21,15.757 58.21,53.839 0,31.079 -15.31,52.52 -66.09,52.52 h -38.51 c -3.06,0 -4.38,-1.75 -4.38,-4.813 v -96.289 c 0,-3.937 1.32,-5.257 4.81,-5.257 z M 3954.06,99.3516 V 375.969 c 0,5.25 1.75,7.871 7.88,7.871 h 65.21 c 67.84,0 87.1,-28.879 87.1,-69.578 0,-32.391 -14.87,-54.723 -39.39,-63.043 -3.06,-0.867 -3.94,-1.739 -3.94,-3.059 0,-1.75 1.31,-2.18 7.01,-3.93 36.76,-11.39 47.71,-36.761 47.71,-69.16 0,-64.332 -46.4,-83.1598 -109.87,-83.1598 h -53.83 c -4.82,0 -7.88,2.1796 -7.88,7.4414"
         style="fill:#ffffff;fill-opacity:1;fill-rule:nonzero;stroke:none"
         id="path40" />
      <path
         d="m 4286.27,116.859 c 11.38,4.821 12.69,10.063 12.69,21.891 v 68.27 c 0,3.511 0,5.691 -3.06,5.691 -3.06,0 -18.82,-4.371 -50.77,-13.563 -26.26,-7.437 -57.34,-17.066 -57.34,-51.207 0,-22.332 14.89,-40.711 51.21,-40.711 17.5,0 33.71,3.93 47.27,9.629 z m -122.99,29.332 c 0,49.008 41.58,61.7 71.78,70.469 l 51.21,15.309 c 7.44,2.179 12.69,4.82 12.69,13.57 v 7.012 c 0,18.808 -1.75,40.687 -46.39,40.687 -38.96,0 -61.28,-15.316 -70.91,-15.316 -3.06,0 -4.81,1.758 -4.81,5.258 v 6.57 c 0,3.93 0.44,6.129 4.37,9.191 7.45,4.368 35.9,14.008 71.79,14.008 51.2,0 70.03,-19.269 70.03,-62.148 V 99.7891 c 0,-5.25 -2.63,-7.8789 -7.88,-7.8789 h -7.45 c -5.25,0 -6.99,1.7617 -6.99,5.25 0,3.4998 -0.88,5.2498 -3.51,5.2498 -5.69,0 -24.5,-12.6912 -62.59,-12.6912 -39.82,0 -71.34,14.8902 -71.34,56.4722"
         style="fill:#ffffff;fill-opacity:1;fill-rule:nonzero;stroke:none"
         id="path42" />
      <path
         d="m 4556.32,200.898 c 0,55.582 -23.19,93.223 -76.15,93.223 -34.58,0 -56.9,-9.633 -56.9,-35.891 V 136.551 c 0,-18.821 30.2,-28.012 53.4,-28.012 52.96,0 79.65,41.582 79.65,92.359 z m -131.3,-98.039 c -3.5,0 -3.94,-2.199 -3.94,-5.2574 0,-3.9297 -1.75,-5.6914 -7,-5.6914 h -8.75 c -3.94,0 -6.14,2.1796 -6.14,6.5703 V 390.41 c 0,5.262 2.63,7.879 7.01,7.879 h 9.19 c 5.25,0 7.88,-3.059 7.88,-7.879 v -84.898 c 0,-2.641 0.87,-4.391 3.06,-4.391 5.69,0 23.2,11.828 56.02,11.828 89.3,0 98.92,-74.847 98.92,-109.429 0,-76.161 -42.02,-113.8012 -101.98,-113.8012 -29.32,0 -46.83,13.1402 -54.27,13.1402"
         style="fill:#ffffff;fill-opacity:1;fill-rule:nonzero;stroke:none"
         id="path44" />
      <path
         d="m 4624.61,198.699 c 0,66.102 31.95,114.25 102.86,114.25 21.01,0 37.2,-4.379 50.77,-10.949 6.13,-3.5 7.44,-5.699 7.44,-9.629 v -8.75 c 0,-3.941 -0.44,-6.57 -4.37,-6.57 -7.45,0 -21.02,17.07 -54.72,17.07 -51.2,0 -76.59,-38.512 -76.59,-94.101 0,-56.028 26.7,-90.59 76.15,-90.59 31.52,0 49.9,14.429 54.72,14.429 4.37,0 4.81,-3.058 4.81,-7.879 v -4.378 c 0,-6.993 -3.06,-9.192 -9.63,-11.8129 -14.44,-6.1172 -33.26,-10.0703 -53.39,-10.0703 -68.72,0 -98.05,46.8322 -98.05,108.9802"
         style="fill:#ffffff;fill-opacity:1;fill-rule:nonzero;stroke:none"
         id="path46" />
      <path
         d="m 4997.08,202.648 c 0,53.391 -21.88,91.473 -71.77,91.473 -51.22,0 -71.79,-38.949 -71.79,-91.473 0,-59.089 23.64,-94.109 71.79,-94.109 46.82,0 71.77,35.02 71.77,94.109 z m -167.63,0 c 0,62.582 26.7,110.301 95.86,110.301 67.4,0 95.85,-42.91 95.85,-110.301 0,-69.597 -30.2,-112.9292 -95.85,-112.9292 -69.16,0 -95.86,46.3902 -95.86,112.9292"
         style="fill:#ffffff;fill-opacity:1;fill-rule:nonzero;stroke:none"
         id="path48" />
      <path
         d="m 5064.49,198.699 c 0,66.102 31.95,114.25 102.86,114.25 21.01,0 37.2,-4.379 50.76,-10.949 6.14,-3.5 7.45,-5.699 7.45,-9.629 v -8.75 c 0,-3.941 -0.44,-6.57 -4.38,-6.57 -7.44,0 -21,17.07 -54.71,17.07 -51.21,0 -76.6,-38.512 -76.6,-94.101 0,-56.028 26.7,-90.59 76.16,-90.59 31.52,0 49.9,14.429 54.71,14.429 4.38,0 4.82,-3.058 4.82,-7.879 v -4.378 c 0,-6.993 -3.07,-9.192 -9.63,-11.8129 -14.44,-6.1172 -33.27,-10.0703 -53.4,-10.0703 -68.72,0 -98.04,46.8322 -98.04,108.9802"
         style="fill:#ffffff;fill-opacity:1;fill-rule:nonzero;stroke:none"
         id="path50" />
      <path
         d="M 5286.83,98.0391 V 390.852 c 0,5.687 2.63,7.437 7.45,7.437 h 9.62 c 4.38,0 7,-1.75 7,-7.437 V 231.969 c 0,-3.059 0.88,-4.367 3.94,-4.367 2.63,0 5.26,0.429 9.64,4.796 l 77.9,72.231 c 3.07,2.621 6.13,3.941 12.7,3.941 h 8.31 c 4.82,0 6.13,-2.191 6.13,-4.39 0,-2.621 -1.75,-4.809 -6.13,-8.75 l -78.34,-73.532 c -2.19,-2.179 -3.06,-3.5 -3.06,-5.687 0,-1.75 0.43,-2.621 1.74,-4.371 l 86.23,-109.43 c 2.19,-2.6209 3.06,-4.3709 3.06,-6.5584 0,-2.6328 -2.19,-3.9414 -5.25,-3.9414 h -11.82 c -5.25,0 -7.44,0.8711 -11.38,5.6914 l -78.78,100.6604 c -2.62,3.07 -4.38,3.949 -9.19,3.949 -3.94,0 -5.7,-0.879 -5.7,-6.129 V 98.0391 c 0,-3.9493 -2.62,-6.1289 -7.43,-6.1289 h -9.19 c -4.82,0 -7.45,2.1796 -7.45,6.1289"
         style="fill:#ffffff;fill-opacity:1;fill-rule:nonzero;stroke:none"
         id="path52" />
      <path
         d="M 5586.21,99.3516 V 375.969 c 0,5.25 2.63,7.871 6.57,7.871 h 10.94 c 4.81,0 7.44,-2.621 7.44,-7.871 V 99.3516 c 0,-5.2618 -2.19,-7.4414 -7.44,-7.4414 h -10.51 c -4.37,0 -7,2.1796 -7,7.4414"
         style="fill:#ffffff;fill-opacity:1;fill-rule:nonzero;stroke:none"
         id="path54" />
      <path
         d="M 5689.94,99.7891 V 301.559 c 0,4.82 0.88,7.011 5.69,7.011 h 10.95 c 4.37,0 5.69,-2.629 5.69,-5.699 0,-1.75 0.43,-3.5 3.06,-3.5 6.13,0 29.32,13.578 63.46,13.578 60.41,0 75.28,-28.019 75.28,-84.918 V 99.7891 c 0,-5.6993 -3.49,-7.8789 -7.87,-7.8789 h -8.32 c -4.37,0 -7.88,2.1796 -7.88,7.8789 V 225.41 c 0,47.27 -11.38,68.711 -56.02,68.711 -30.64,0 -59.97,-7.879 -59.97,-29.32 V 99.7891 c 0,-5.6993 -3.06,-7.8789 -7.87,-7.8789 h -8.32 c -4.37,0 -7.88,2.1796 -7.88,7.8789"
         style="fill:#ffffff;fill-opacity:1;fill-rule:nonzero;stroke:none"
         id="path56" />
      <path
         d="m 5944.24,144.871 v 137.871 c 0,3.5 -0.87,5.68 -3.94,5.68 h -33.26 c -4.81,0 -7.44,1.758 -7.44,7.008 v 6.129 c 0,4.82 2.63,7.011 7.44,7.011 h 33.26 c 3.07,0 3.94,1.739 3.94,5.25 v 49.891 c 0,4.82 1.76,7.437 7.01,7.437 h 9.63 c 5.25,0 7.44,-2.617 7.44,-7.437 V 313.82 c 0,-3.511 1.75,-5.25 5.25,-5.25 h 59.97 c 4.37,0 7,-2.191 7,-7.011 v -6.129 c 0,-4.809 -2.63,-7.008 -7,-7.008 h -60.84 c -2.63,0 -4.38,-1.731 -4.38,-5.68 V 151.441 c 0,-29.332 9.63,-41.152 31.95,-41.152 22.76,0 30.64,12.262 36.33,12.262 2.62,0 3.94,-1.75 3.94,-4.821 v -10.058 c 0,-11.8204 -22.33,-17.9532 -42.9,-17.9532 -37.64,0 -53.4,19.7112 -53.4,55.1522"
         style="fill:#ffffff;fill-opacity:1;fill-rule:nonzero;stroke:none"
         id="path58" />
      <path
         d="m 6221.31,224.961 c 5.25,0 6.12,1.758 6.12,6.57 0,14.879 -7.88,62.59 -63.9,62.59 -49.46,0 -67.84,-46.391 -67.84,-63.461 0,-3.941 0.87,-5.699 6.13,-5.699 z m -152.32,-22.75 c 0,52.961 24.51,110.738 94.98,110.738 53.4,0 87.98,-34.14 87.98,-94.98 0,-9.629 -0.88,-12.258 -8.32,-12.258 h -142.69 c -6.56,0 -7,-2.191 -7,-9.629 0,-77.043 52.09,-85.793 80.97,-85.793 41.58,0 54.27,15.32 62.15,15.32 3.07,0 3.94,-1.75 3.94,-5.257 v -7.86 c 0,-4.82 -0.44,-7.453 -4.38,-10.082 -7,-4.8084 -33.26,-12.6912 -61.27,-12.6912 -54.71,0 -106.36,24.5112 -106.36,112.4922"
         style="fill:#ffffff;fill-opacity:1;fill-rule:nonzero;stroke:none"
         id="path60" />
      <path
         d="M 6308.85,98.9102 V 301.559 c 0,4.382 1.31,7.011 6.56,7.011 h 10.51 c 5.69,0 6.56,-2.191 6.56,-7.879 0,-5.261 0.88,-6.57 4.38,-6.57 9.63,0 30.2,18.828 55.59,18.828 13.56,0 16.63,-2.64 16.63,-8.769 v -10.059 c 0,-3.5 -1.75,-5.25 -4.81,-5.25 -5.7,0 -11.39,0.879 -20.58,0.879 -25.38,0 -50.77,-11.828 -50.77,-41.59 V 98.9102 c 0,-4.8204 -2.62,-7 -7,-7 h -10.07 c -4.38,0 -7,2.1796 -7,7"
         style="fill:#ffffff;fill-opacity:1;fill-rule:nonzero;stroke:none"
         id="path62" />
      <path
         d="M 6450.66,99.7891 V 301.559 c 0,4.82 0.87,7.011 5.69,7.011 h 10.94 c 4.38,0 5.69,-2.629 5.69,-5.699 0,-1.75 0.44,-3.5 3.07,-3.5 6.12,0 29.32,13.578 63.46,13.578 60.4,0 75.28,-28.019 75.28,-84.918 V 99.7891 c 0,-5.6993 -3.5,-7.8789 -7.87,-7.8789 h -8.32 c -4.38,0 -7.88,2.1796 -7.88,7.8789 V 225.41 c 0,47.27 -11.38,68.711 -56.03,68.711 -30.63,0 -59.96,-7.879 -59.96,-29.32 V 99.7891 c 0,-5.6993 -3.06,-7.8789 -7.87,-7.8789 h -8.32 c -4.38,0 -7.88,2.1796 -7.88,7.8789"
         style="fill:#ffffff;fill-opacity:1;fill-rule:nonzero;stroke:none"
         id="path64" />
      <path
         d="m 6794.69,116.859 c 11.37,4.821 12.69,10.063 12.69,21.891 v 68.27 c 0,3.511 0,5.691 -3.06,5.691 -3.06,0 -18.82,-4.371 -50.77,-13.563 -26.26,-7.437 -57.34,-17.066 -57.34,-51.207 0,-22.332 14.88,-40.711 51.21,-40.711 17.5,0 33.7,3.93 47.27,9.629 z m -122.99,29.332 c 0,49.008 41.58,61.7 71.78,70.469 l 51.21,15.309 c 7.43,2.179 12.69,4.82 12.69,13.57 v 7.012 c 0,18.808 -1.75,40.687 -46.4,40.687 -38.95,0 -61.27,-15.316 -70.9,-15.316 -3.07,0 -4.81,1.758 -4.81,5.258 v 6.57 c 0,3.93 0.43,6.129 4.37,9.191 7.45,4.368 35.89,14.008 71.78,14.008 51.21,0 70.03,-19.269 70.03,-62.148 V 99.7891 c 0,-5.25 -2.62,-7.8789 -7.87,-7.8789 h -7.45 c -5.25,0 -7,1.7617 -7,5.25 0,3.4998 -0.87,5.2498 -3.5,5.2498 -5.69,0 -24.51,-12.6912 -62.59,-12.6912 -39.83,0 -71.34,14.8902 -71.34,56.4722"
         style="fill:#ffffff;fill-opacity:1;fill-rule:nonzero;stroke:none"
         id="path66" />
      <path
         d="m 6921.62,144.871 v 137.871 c 0,3.5 -0.88,5.68 -3.94,5.68 h -33.27 c -4.81,0 -7.43,1.758 -7.43,7.008 v 6.129 c 0,4.82 2.62,7.011 7.43,7.011 h 33.27 c 3.06,0 3.94,1.739 3.94,5.25 v 49.891 c 0,4.82 1.75,7.437 7,7.437 h 9.63 c 5.25,0 7.44,-2.617 7.44,-7.437 V 313.82 c 0,-3.511 1.75,-5.25 5.26,-5.25 h 59.96 c 4.37,0 7,-2.191 7,-7.011 v -6.129 c 0,-4.809 -2.63,-7.008 -7,-7.008 h -60.84 c -2.63,0 -4.38,-1.731 -4.38,-5.68 V 151.441 c 0,-29.332 9.63,-41.152 31.95,-41.152 22.76,0 30.64,12.262 36.33,12.262 2.63,0 3.94,-1.75 3.94,-4.821 v -10.058 c 0,-11.8204 -22.32,-17.9532 -42.89,-17.9532 -37.64,0 -53.4,19.7112 -53.4,55.1522"
         style="fill:#ffffff;fill-opacity:1;fill-rule:nonzero;stroke:none"
         id="path68" />
      <path
         d="M 7063.87,99.7891 V 300.691 c 0,5.688 2.19,7.879 7.88,7.879 h 8.32 c 6.13,0 7.87,-2.191 7.87,-7.879 V 99.7891 c 0,-5.25 -3.06,-7.8789 -7.87,-7.8789 h -8.32 c -4.82,0 -7.88,2.6289 -7.88,7.8789 z m -7,274.4219 c 0,12.258 5.26,18.82 19.26,18.82 14.01,0 18.82,-6.121 18.82,-18.82 0,-11.813 -4.81,-18.82 -19.26,-18.82 -13.56,0 -18.82,6.57 -18.82,18.82"
         style="fill:#ffffff;fill-opacity:1;fill-rule:nonzero;stroke:none"
         id="path70" />
      <path
         d="m 7316.42,202.648 c 0,53.391 -21.88,91.473 -71.78,91.473 -51.2,0 -71.78,-38.949 -71.78,-91.473 0,-59.089 23.64,-94.109 71.78,-94.109 46.84,0 71.78,35.02 71.78,94.109 z m -167.63,0 c 0,62.582 26.7,110.301 95.85,110.301 67.4,0 95.85,-42.91 95.85,-110.301 0,-69.597 -30.2,-112.9292 -95.85,-112.9292 -69.15,0 -95.85,46.3902 -95.85,112.9292"
         style="fill:#ffffff;fill-opacity:1;fill-rule:nonzero;stroke:none"
         id="path72" />
      <path
         d="M 7401.34,99.7891 V 301.559 c 0,4.82 0.87,7.011 5.69,7.011 h 10.94 c 4.38,0 5.7,-2.629 5.7,-5.699 0,-1.75 0.43,-3.5 3.06,-3.5 6.13,0 29.32,13.578 63.46,13.578 60.4,0 75.28,-28.019 75.28,-84.918 V 99.7891 c 0,-5.6993 -3.5,-7.8789 -7.87,-7.8789 h -8.32 c -4.38,0 -7.88,2.1796 -7.88,7.8789 V 225.41 c 0,47.27 -11.38,68.711 -56.03,68.711 -30.63,0 -59.96,-7.879 -59.96,-29.32 V 99.7891 c 0,-5.6993 -3.06,-7.8789 -7.87,-7.8789 h -8.32 c -4.38,0 -7.88,2.1796 -7.88,7.8789"
         style="fill:#ffffff;fill-opacity:1;fill-rule:nonzero;stroke:none"
         id="path74" />
      <path
         d="m 7745.37,116.859 c 11.37,4.821 12.69,10.063 12.69,21.891 v 68.27 c 0,3.511 0,5.691 -3.06,5.691 -3.06,0 -18.82,-4.371 -50.77,-13.563 -26.26,-7.437 -57.34,-17.066 -57.34,-51.207 0,-22.332 14.88,-40.711 51.21,-40.711 17.5,0 33.7,3.93 47.27,9.629 z m -122.99,29.332 c 0,49.008 41.58,61.7 71.78,70.469 l 51.21,15.309 c 7.43,2.179 12.69,4.82 12.69,13.57 v 7.012 c 0,18.808 -1.75,40.687 -46.4,40.687 -38.95,0 -61.27,-15.316 -70.9,-15.316 -3.07,0 -4.81,1.758 -4.81,5.258 v 6.57 c 0,3.93 0.43,6.129 4.37,9.191 7.45,4.368 35.89,14.008 71.79,14.008 51.2,0 70.02,-19.269 70.02,-62.148 V 99.7891 c 0,-5.25 -2.62,-7.8789 -7.87,-7.8789 h -7.45 c -5.25,0 -6.99,1.7617 -6.99,5.25 0,3.4998 -0.88,5.2498 -3.51,5.2498 -5.69,0 -24.51,-12.6912 -62.59,-12.6912 -39.83,0 -71.34,14.8902 -71.34,56.4722"
         style="fill:#ffffff;fill-opacity:1;fill-rule:nonzero;stroke:none"
         id="path76" />
      <path
         d="M 7858.29,98.9102 V 389.969 c 0,5.261 2.63,8.32 8.76,8.32 h 7 c 5.69,0 8.31,-3.5 8.31,-8.32 V 98.9102 c 0,-4.3711 -2.62,-7 -7.43,-7 h -8.76 c -4.82,0 -7.88,2.6289 -7.88,7"
         style="fill:#ffffff;fill-opacity:1;fill-rule:nonzero;stroke:none"
         id="path78" />
      <path
         d="m 8051.75,234.602 c 0,98.918 57.78,153.617 144.44,153.617 28.89,0 48.15,-4.379 64.78,-10.938 11.38,-4.383 12.69,-7 12.69,-11.371 v -9.191 c 0,-5.258 -1.31,-7.008 -4.37,-7.008 -8.32,0 -30.64,18.379 -73.1,18.379 -78.35,0 -118.61,-54.27 -118.61,-134.36 0,-78.351 45.08,-125.191 119.05,-125.191 35.45,0 54.27,9.191 54.27,15.762 v 99.789 c 0,3.941 2.19,6.129 6.57,6.129 h 12.69 c 4.38,0 6.13,-2.188 6.13,-6.129 V 114.672 c 0,-7 -1.75,-10.063 -11.82,-14.012 -15.32,-6.1209 -39.83,-12.2498 -69.15,-12.2498 -84.04,0 -143.57,48.1408 -143.57,146.1918"
         style="fill:#ffffff;fill-opacity:1;fill-rule:nonzero;stroke:none"
         id="path80" />
      <path
         d="M 8345.89,98.9102 V 301.559 c 0,4.382 1.32,7.011 6.57,7.011 h 10.5 c 5.69,0 6.57,-2.191 6.57,-7.879 0,-5.261 0.88,-6.57 4.37,-6.57 9.64,0 30.21,18.828 55.59,18.828 13.57,0 16.64,-2.64 16.64,-8.769 v -10.059 c 0,-3.5 -1.75,-5.25 -4.82,-5.25 -5.69,0 -11.38,0.879 -20.57,0.879 -25.39,0 -50.78,-11.828 -50.78,-41.59 V 98.9102 c 0,-4.8204 -2.62,-7 -7,-7 h -10.06 c -4.38,0 -7.01,2.1796 -7.01,7"
         style="fill:#ffffff;fill-opacity:1;fill-rule:nonzero;stroke:none"
         id="path82" />
      <path
         d="m 8637.83,202.648 c 0,53.391 -21.88,91.473 -71.78,91.473 -51.21,0 -71.78,-38.949 -71.78,-91.473 0,-59.089 23.64,-94.109 71.78,-94.109 46.83,0 71.78,35.02 71.78,94.109 z m -167.63,0 c 0,62.582 26.7,110.301 95.85,110.301 67.41,0 95.86,-42.91 95.86,-110.301 0,-69.597 -30.21,-112.9292 -95.86,-112.9292 -69.15,0 -95.85,46.3902 -95.85,112.9292"
         style="fill:#ffffff;fill-opacity:1;fill-rule:nonzero;stroke:none"
         id="path84" />
      <path
         d="m 8717.93,169.82 v 130.871 c 0,5.688 3.5,7.879 7.87,7.879 h 8.33 c 4.37,0 7.88,-2.191 7.88,-7.879 V 177.262 c 0,-47.27 11.37,-68.723 57.76,-68.723 28.02,0 58.22,8.32 58.22,31.082 v 161.07 c 0,5.688 3.07,7.879 7.87,7.879 h 8.33 c 4.37,0 7.87,-2.191 7.87,-7.879 V 98.9102 c 0,-4.8204 -1.75,-7 -6.56,-7 h -10.07 c -4.37,0 -5.69,2.6289 -5.69,5.6914 0,1.75 -0.44,3.5004 -3.94,3.5004 -7.88,0 -31.08,-11.3832 -62.59,-11.3832 -60.84,0 -75.28,28.0112 -75.28,80.1012"
         style="fill:#ffffff;fill-opacity:1;fill-rule:nonzero;stroke:none"
         id="path86" />
      <path
         d="m 9113.6,203.082 c 0,52.09 -21.45,91.039 -77.47,91.039 -28.45,0 -54.28,-6.121 -54.28,-31.512 V 139.621 c 0,-24.949 25.83,-30.191 52.96,-30.191 53.4,0 78.79,37.621 78.79,93.652 z M 8957.78,7.87891 V 301.121 c 0,4.82 0.44,7.449 4.81,7.449 h 12.26 c 3.94,0 4.81,-1.75 4.81,-4.808 0,-2.641 0.88,-4.391 3.94,-4.391 9.64,0 24.95,13.578 57.34,13.578 88.42,0 97.61,-74.847 97.61,-110.738 0,-76.16 -40.71,-112.4922 -100.23,-112.4922 -35.89,0 -48.15,11.3832 -53.41,11.3832 -2.62,0 -3.06,-2.1918 -3.06,-5.2504 V 7.87891 C 8981.85,1.75 8978.79,0 8973.98,0 h -8.32 c -5.25,0 -7.88,1.75 -7.88,7.87891"
         style="fill:#ffffff;fill-opacity:1;fill-rule:nonzero;stroke:none"
         id="path88" />
      <path
         d="m 0,2455.19 c 0,356.23 184.629,588.65 569.098,588.65 117.293,0 199.836,-21.72 264.992,-52.13 36.93,-15.21 45.617,-28.24 45.617,-56.48 v -123.81 c 0,-21.72 -6.516,-30.41 -26.062,-30.41 -39.098,0 -99.918,80.37 -258.481,80.37 -206.351,0 -323.648,-141.18 -323.648,-397.5 0,-243.27 117.297,-377.95 314.957,-377.95 152.05,0 225.898,73.86 262.824,73.86 21.723,0 30.41,-15.21 30.41,-43.45 v -106.43 c 0,-32.58 -17.375,-47.79 -54.305,-62.99 -69.507,-28.24 -178.109,-49.96 -293.234,-49.96 C 182.461,1896.96 0,2094.63 0,2455.19"
         style="fill:#ffffff;fill-opacity:1;fill-rule:nonzero;stroke:none"
         id="path90" />
      <path
         d="m 1620.48,2098.97 c 47.79,23.89 56.48,56.48 56.48,108.6 v 247.62 c 0,19.56 -6.51,26.07 -19.55,26.07 -17.37,0 -82.54,-17.38 -182.45,-45.61 -121.64,-34.76 -232.42,-73.86 -232.42,-208.53 0,-93.4 62.99,-167.25 204.18,-167.25 65.16,0 125.98,13.03 173.76,39.1 z m -619.05,117.29 c 0,236.76 167.26,312.79 354.06,364.92 l 241.1,67.33 c 65.16,17.38 80.37,30.41 80.37,69.51 v 19.55 c 0,56.47 -13.03,128.15 -186.8,128.15 -202.01,0 -334.51,-80.36 -384.47,-80.36 -19.54,0 -28.23,10.85 -28.23,36.93 V 2907 c 0,28.23 0,47.78 52.13,71.67 65.16,30.41 202.01,65.17 364.91,65.17 304.1,0 427.91,-108.61 427.91,-343.2 v -749.38 c 0,-23.89 -10.86,-39.09 -41.27,-39.09 h -165.08 c -21.72,0 -30.41,8.68 -30.41,26.06 0,19.55 -6.52,23.89 -19.55,23.89 -34.75,0 -130.33,-65.16 -308.44,-65.16 -219.38,0 -356.23,99.92 -356.23,319.3"
         style="fill:#ffffff;fill-opacity:1;fill-rule:nonzero;stroke:none"
         id="path92" />
      <path
         d="m 2382.98,1955.61 -327.99,999.17 c -6.51,19.56 -8.69,28.24 -8.69,34.76 0,17.37 8.69,26.06 32.58,26.06 h 199.84 c 23.89,0 34.76,-6.52 39.09,-26.06 l 236.77,-814.55 c 6.52,-21.72 10.85,-28.24 21.72,-28.24 10.86,0 15.21,6.52 21.72,28.24 l 245.44,818.89 c 4.35,15.2 15.21,21.72 36.93,21.72 h 182.46 c 19.55,0 30.41,-6.52 30.41,-21.72 0,-8.69 -4.34,-19.54 -13.03,-41.27 l -334.5,-992.66 c -17.38,-49.95 -36.93,-65.16 -78.2,-65.16 h -204.18 c -45.62,0 -62.99,13.03 -80.37,60.82"
         style="fill:#ffffff;fill-opacity:1;fill-rule:nonzero;stroke:none"
         id="path94" />
      <path
         d="m 3875.33,2587.69 c 23.89,0 28.23,8.7 28.23,30.41 0,99.92 -52.13,254.14 -245.44,254.14 -178.12,0 -258.49,-154.22 -258.49,-256.31 0,-19.54 4.35,-28.24 28.24,-28.24 z m -749.38,-121.63 c 0,358.39 195.49,577.78 534.34,577.78 332.33,0 501.75,-193.32 501.75,-571.26 0,-36.93 -8.68,-49.97 -41.27,-49.97 h -692.9 c -28.24,0 -32.58,-10.85 -32.58,-45.61 0,-234.59 182.45,-293.24 354.05,-293.24 188.98,0 275.86,67.34 321.47,67.34 19.56,0 26.07,-13.04 26.07,-36.93 v -102.09 c 0,-26.06 -6.51,-41.26 -41.27,-56.47 -58.65,-28.24 -184.63,-58.65 -327.99,-58.65 -371.43,0 -601.67,158.57 -601.67,569.1"
         style="fill:#ffffff;fill-opacity:1;fill-rule:nonzero;stroke:none"
         id="path96" />
      <path
         d="m 4325.06,1951.26 v 1027.41 c 0,28.24 8.68,36.93 32.58,36.93 h 191.14 c 21.72,0 28.24,-10.87 28.24,-28.24 0,-10.86 4.34,-19.54 21.72,-19.54 47.78,0 147.7,76.02 314.96,76.02 297.58,0 375.77,-154.22 375.77,-451.8 v -640.78 c 0,-26.06 -15.2,-39.09 -39.1,-39.09 h -184.63 c -23.89,0 -39.09,13.03 -39.09,39.09 v 619.05 c 0,193.32 -39.1,284.55 -219.39,284.55 -108.6,0 -221.55,-32.57 -221.55,-128.16 v -775.44 c 0,-23.89 -10.86,-39.09 -36.93,-39.09 h -184.63 c -23.89,0 -39.09,13.03 -39.09,39.09"
         style="fill:#ffffff;fill-opacity:1;fill-rule:nonzero;stroke:none"
         id="path98" />
      <path
         d="m 6267.4,2216.26 v 523.48 c 0,78.19 -89.05,121.64 -206.35,121.64 -197.66,0 -306.26,-145.53 -306.26,-399.67 0,-230.25 82.54,-380.12 304.09,-380.12 106.44,0 208.52,36.93 208.52,134.67 z m -781.95,245.45 c 0,382.3 206.34,582.13 508.26,582.13 160.75,0 225.91,-56.48 256.32,-56.48 15.2,0 17.37,10.87 17.37,26.07 v 380.12 c 0,26.06 13.04,39.09 36.93,39.09 h 184.63 c 28.24,0 36.92,-13.03 36.92,-39.09 V 1949.09 c 0,-23.89 -8.68,-36.92 -39.09,-36.92 h -175.94 c -21.72,0 -32.59,8.68 -32.59,28.24 0,13.02 -2.17,21.71 -19.54,21.71 -47.79,0 -110.78,-65.16 -280.2,-65.16 -319.31,0 -493.07,217.21 -493.07,564.75"
         style="fill:#ffffff;fill-opacity:1;fill-rule:nonzero;stroke:none"
         id="path100" />
      <path
         d="M 6787.48,1951.26 V 2976.5 c 0,23.89 8.68,39.1 39.09,39.1 h 184.64 c 28.24,0 36.92,-15.21 36.92,-39.1 V 1951.26 c 0,-26.06 -13.03,-39.09 -36.92,-39.09 h -184.64 c -23.89,0 -39.09,13.03 -39.09,39.09"
         style="fill:#ffffff;fill-opacity:1;fill-rule:nonzero;stroke:none"
         id="path102" />
      <path
         d="m 7310.59,1936.06 c -41.27,15.2 -60.83,30.41 -60.83,69.51 v 110.77 c 0,23.9 10.87,34.76 30.41,34.76 41.27,0 112.96,-76.03 286.73,-76.03 121.63,0 184.62,41.27 184.62,121.64 0,69.51 -41.26,102.09 -156.39,167.25 l -130.32,78.21 c -125.98,73.84 -193.32,149.87 -193.32,286.71 0,184.64 128.16,314.96 397.5,314.96 97.74,0 175.94,-15.2 238.92,-39.11 49.97,-21.71 60.82,-34.75 60.82,-71.67 v -102.09 c 0,-21.72 -6.51,-34.76 -28.23,-34.76 -34.76,0 -110.78,76.03 -254.14,76.03 -112.95,0 -162.9,-45.62 -162.9,-112.95 0,-60.82 43.44,-104.26 128.15,-154.22 l 125.98,-73.85 c 175.95,-95.57 217.21,-180.29 217.21,-295.41 0,-210.69 -123.81,-338.85 -419.22,-338.85 -104.26,0 -204.17,19.55 -264.99,39.1"
         style="fill:#ffffff;fill-opacity:1;fill-rule:nonzero;stroke:none"
         id="path104" />
      <path
         d="m 8198.16,1951.26 v 1444.46 c 0,23.89 8.68,36.92 32.58,36.92 h 197.66 c 21.72,0 30.41,-13.03 30.41,-36.92 v -397.49 c 0,-17.39 4.34,-26.07 21.72,-26.07 34.75,0 123.81,71.68 288.89,71.68 308.44,0 380.12,-152.05 380.12,-443.12 v -649.46 c 0,-23.89 -10.86,-39.09 -39.1,-39.09 h -184.63 c -21.72,0 -36.93,15.2 -36.93,39.09 v 649.46 c 0,180.29 -49.95,256.31 -210.69,256.31 -108.6,0 -219.38,-34.74 -219.38,-132.49 v -773.28 c 0,-23.89 -10.86,-39.09 -36.93,-39.09 h -184.63 c -23.89,0 -39.09,15.2 -39.09,39.09"
         style="fill:#ffffff;fill-opacity:1;fill-rule:nonzero;stroke:none"
         id="path106" />
      <path
         d="m 7074.19,3319.82 c 0,-86.37 -70.01,-156.39 -156.39,-156.39 -86.37,0 -156.38,70.02 -156.38,156.39 0,86.38 70.01,156.39 156.38,156.39 86.38,0 156.39,-70.01 156.39,-156.39"
         style="fill:#ffffff;fill-opacity:1;fill-rule:nonzero;stroke:none"
         id="path108" />
      <path
         d="m 9210.38,3439.59 v 145.68 h -55.84 v 18.88 h 136.32 v -18.88 h -55.84 v -145.68 z m 278.84,0 -6.11,97.99 c -0.36,7.3 -0.52,15.62 -0.7,24.69 -0.15,7.51 -0.31,15.53 -0.59,23.95 l -0.17,4.83 h -10.5 l -1.06,-3.6 c -1.71,-5.89 -3.52,-12.53 -5.39,-19.38 -3.04,-11.14 -6.18,-22.66 -9.31,-32.49 l -30.33,-93.42 h -28.64 l -30.35,95.97 c -3.11,13.14 -8.24,33.71 -12.1,49.14 l -0.95,3.78 h -10.83 v -5 c 0,-16.34 -0.67,-33.47 -1.28,-48.59 l -6.12,-97.87 h -23.28 l 12.1,164.56 h 43.79 l 28.99,-82.02 c 3.6,-12.64 6.68,-24.95 10.95,-41.99 l 1.4,-5.62 h 7.7 l 1.67,3.65 c 1.61,5.77 3.14,11.37 4.63,16.78 2.63,9.6 5.08,18.58 7.53,26.77 l 28.92,82.43 h 41.88 l 12.7,-164.56 h -24.55"
         style="fill:#ffffff;fill-opacity:1;fill-rule:nonzero;stroke:none"
         id="path110" />
      <path
         d="m 9295.86,3609.15 h -146.32 v -28.88 h 55.84 v -145.68 h 34.64 v 145.68 h 55.84 v 28.88 z m 209.84,0 h -50.05 l -30.17,-85.99 c -3.85,-12.84 -7.69,-27.6 -12.19,-43.64 h -0.64 c -4.5,17.98 -7.69,30.8 -11.55,44.27 l -30.16,85.36 h -51.98 l -12.83,-174.56 h 33.36 l 6.42,102.68 c 0.64,16.05 1.28,32.73 1.28,48.78 h 1.93 c 3.85,-15.41 8.98,-35.94 12.19,-49.42 l 31.45,-99.47 h 35.94 l 31.45,96.9 c 5.12,16.05 10.26,36.58 14.75,51.99 h 1.93 c 0.63,-18.61 0.63,-35.3 1.29,-48.78 l 6.41,-102.68 h 34.64 l -13.47,174.56 z m -219.84,-10 v -8.88 h -55.84 v -145.68 h -14.64 v 135.68 10 h -10 -45.84 v 8.88 h 126.32 m 210.58,0 11.93,-154.56 h -14.45 l -5.82,93.17 c -0.35,7.21 -0.51,15.58 -0.68,24.45 -0.15,7.58 -0.31,15.68 -0.6,24.18 l -0.33,9.66 h -9.66 -1.93 -7.5 l -2.1,-7.2 c -1.73,-5.93 -3.55,-12.61 -5.43,-19.51 -3.02,-11.07 -6.14,-22.52 -9.23,-32.19 l -29.21,-89.99 h -21.35 l -29.13,92.13 c -3.22,13.52 -8.31,33.88 -12.13,49.19 l -1.9,7.57 h -7.8 -1.93 -10 v -10 c 0,-16.18 -0.67,-33.29 -1.26,-48.16 l -5.84,-93.3 h -13.2 l 11.36,154.56 h 35.61 l 27.71,-78.4 c 3.68,-12.89 6.78,-25.29 11.06,-42.41 l 0.32,-1.25 1.89,-7.57 h 7.81 0.64 7.59 l 2.04,7.3 c 1.64,5.83 3.19,11.49 4.68,16.96 2.59,9.48 5.04,18.43 7.32,26.06 l 27.82,79.31 h 33.7"
         style="fill:#ffffff;fill-opacity:1;fill-rule:nonzero;stroke:none"
         id="path112" />
    </g>
  </g>
</svg>
