<?xml version="1.0" encoding="UTF-8" standalone="no"?>
<!-- Created with Inkscape (http://www.inkscape.org/) -->

<svg
   version="1.1"
   id="svg2"
   width="869.29333"
   height="869.29333"
   viewBox="0 0 869.29333 869.29333"
   sodipodi:docname="25012835567 - Reverse_YPN network logo.eps"
   xmlns:inkscape="http://www.inkscape.org/namespaces/inkscape"
   xmlns:sodipodi="http://sodipodi.sourceforge.net/DTD/sodipodi-0.dtd"
   xmlns="http://www.w3.org/2000/svg"
   xmlns:svg="http://www.w3.org/2000/svg">
  <defs
     id="defs6" />
  <sodipodi:namedview
     id="namedview4"
     pagecolor="#ffffff"
     bordercolor="#000000"
     borderopacity="0.25"
     inkscape:showpageshadow="2"
     inkscape:pageopacity="0.0"
     inkscape:pagecheckerboard="0"
     inkscape:deskcolor="#d1d1d1" />
  <g
     id="g8"
     inkscape:groupmode="layer"
     inkscape:label="ink_ext_XXXXXX"
     transform="matrix(1.3333333,0,0,-1.3333333,0,869.29333)">
    <g
       id="g10"
       transform="scale(0.1)">
      <path
         d="m 0,3126.27 c 0.917969,-15.99 2.14453,-31.93 3.67578,-47.86 1.34766,-14.15 2.32813,-30.15 2.94141,-48.04 0.73437,-21.2 2.02344,-36.58 3.80081,-46.2 3.3086,-17.71 1.9609,-36.15 4.5312,-56.86 6.1289,-48.72 11.336,-97.43 19.1797,-150.25 C 169.242,1869.7 684.813,1061.41 1446.77,550.809 1787.09,322.738 2159.34,164.469 2563.45,76.0508"
         style="fill:none;stroke:#9dda8e;stroke-width:7.5;stroke-linecap:butt;stroke-linejoin:miter;stroke-miterlimit:10;stroke-dasharray:none;stroke-opacity:1"
         id="path12" />
      <path
         d="m 2563.45,76.0508 c 248.96,-53.5 500.5,-77.87893 754.6,-73.10158 489.04,9.19138 974.83,127.01978 1410.93,349.82078 637.63,325.8 1158.59,852.33 1466.56,1498.61 228.62,479.78 334.32,986.4 316.98,1519.87 C 6462.45,4913.54 5325.61,6214.29 3803.6,6471.77 3268.18,6562.34 2709.47,6518.46 2198.25,6342.36 1570.3,6126 1019.74,5720.29 627.398,5184.32 429.051,4913.42 276.473,4619.79 169.609,4303.43"
         style="fill:none;stroke:#f171bf;stroke-width:7.5;stroke-linecap:butt;stroke-linejoin:miter;stroke-miterlimit:10;stroke-dasharray:none;stroke-opacity:1"
         id="path14" />
      <path
         d="M 169.609,4303.43 C 120.59,4159.61 82.5977,4015.43 55.6367,3871.01 41.0547,3792.82 31.25,3729.4 26.1641,3680.81 c -1.2852,-12.32 -3.0625,-24.51 -5.3321,-36.71 -2.8164,-14.76 -2.0195,-31.37 -5.0859,-47.54 -3.7969,-19.98 -2.5117,-42.41 -5.6367,-62.93 -2.87893,-18.94 -4.10549,-41.24 -3.7969,-66.98 0.05859,-6.8 -2.45312,-12.68 -2.69922,-18.38 C 2.87891,3429.82 1.65234,3411.44 0,3393.06"
         style="fill:none;stroke:#9dda8e;stroke-width:7.5;stroke-linecap:butt;stroke-linejoin:miter;stroke-miterlimit:10;stroke-dasharray:none;stroke-opacity:1"
         id="path16" />
      <path
         d="M 2563.45,76.0508 2363.63,432.238 c -0.92,1.653 -2.27,2.762 -3.98,3.434 -1.9,0.68 -2.76,2.207 -2.7,4.539 0.06,2.141 -0.43,4.098 -1.47,6 -57.47,101.719 -99.69,176.168 -126.72,223.41 -5.63,9.93 -15.38,20.34 -20.83,32.539 -6.92,15.5 -10.85,24.141 -11.83,25.789 -41.42,72.492 -78.43,137.93 -111.09,196.332 -0.06,0.117 -5.94,9.438 -17.58,28 -6.44,10.301 -14.1,24.207 -22.98,41.789 -7.17,14.16 -36.95,67.34 -89.34,159.44 -2.82,4.84 -8.27,8.03 -10.23,13.91 -2.21,6.56 -3.56,10.29 -4.05,11.09 -151.23,267.1 -302.45,534.14 -453.68,801.24 -0.61,1.16 -1.53,1.47 -2.76,0.98 -1.1,-0.43 -1.96,-0.37 -2.51,0.24"
         style="fill:none;stroke:#92565c;stroke-width:7.5;stroke-linecap:butt;stroke-linejoin:miter;stroke-miterlimit:10;stroke-dasharray:none;stroke-opacity:1"
         id="path18" />
      <path
         d="m 1481.88,1980.97 c -0.18,228.19 -0.24,456.38 -0.18,684.51 0.06,64.03 6.25,106.98 33.15,154.9 328.8,585.61 534.13,950.69 616.06,1095.23 12.99,22.86 47.85,89.9 4.16,101.97 -4.71,1.28 -11.76,1.96 -21.07,2.02 -71.7,0.37 -143.45,0.43 -215.2,0.18 -51.11,-0.12 -78.86,2.27 -102.7,-42.34 -151.9,-284.62 -303.8,-569.31 -455.58,-854.05 -5.88,-10.97 -17.4,-29.35 -28.49,-34.25 -17.9,-8.03 -33.83,8.02 -41.49,22.48 -221.14,414.71 -375.981,704.97 -464.587,870.72 -7.598,14.28 -19.363,24.64 -35.297,31.07 -9.984,4.11 -24.816,6.13 -44.484,6.19 -197.734,0.43 -311.031,0.43 -339.77,-0.12 -10.05,-0.19 -18.136,-4.78 -24.328,-13.67 -5.269,-7.54 -5.453,-17.71 -7.535,-27.08"
         style="fill:none;stroke:#f171bf;stroke-width:7.5;stroke-linecap:butt;stroke-linejoin:miter;stroke-miterlimit:10;stroke-dasharray:none;stroke-opacity:1"
         id="path20" />
      <path
         d="m 354.539,3978.73 -33.824,56.74 c -0.309,0.55 -0.43,1.16 -0.309,1.78 0.246,1.22 0.125,2.69 -0.551,3.86 -48.406,86.82 -98.468,174.26 -150.246,262.32"
         style="fill:none;stroke:#92565c;stroke-width:7.5;stroke-linecap:butt;stroke-linejoin:miter;stroke-miterlimit:10;stroke-dasharray:none;stroke-opacity:1"
         id="path22" />
      <path
         d="m 2947.46,4202.08 v -8.46 c 0,-2.39 1.96,-4.35 4.35,-4.35 h 55.09 c 7.05,0 12.81,5.76 12.81,12.81 0.12,136.15 0.24,208.58 0.3,217.34 0.19,24.69 -2.63,42.65 -8.45,53.86 -37.01,71.08 -174.15,50.86 -232.3,29.41 -11.21,-4.1 -16.6,-12.19 -16.11,-24.2 l 1.16,-28.62 c 0.49,-12.31 6.37,-15.99 17.71,-11.03 39.7,17.71 77.02,30.27 120.22,25.56 18.26,-1.97 30.58,-10.05 36.89,-24.33 1.9,-4.23 2.02,-8.7 0.49,-13.48 -2.27,-7.05 -5.15,-11.15 -8.64,-12.32 -45.41,-15.32 -73.72,-24.69 -84.93,-28.12 -62.81,-19.3 -106.56,-46.39 -100.67,-119.73 2.88,-35.73 20.89,-60.48 54.04,-74.39 20.71,-8.7 47.43,-10.97 80.21,-6.87 16.85,2.15 50.61,22.62 64.65,20.59 2.14,-0.3 3.18,-1.53 3.18,-3.67 m 1337.15,60.54 c -52.57,-27.21 -141.91,-37.38 -164.83,34.31 -21.2,66.42 -11.21,163.12 77.88,169.67 34.62,2.51 56.13,-6.92 87.38,-18.81 10.23,-3.92 15.32,-0.43 15.32,10.54 v 29.9 c 0,9.38 -6.13,17.71 -15.14,20.53 -94.55,29.35 -196.81,20.04 -240.2,-80.52 -17.46,-40.32 -19.18,-97.55 -6.55,-138.97 18.26,-59.93 59.01,-94.12 122.18,-102.57 42.28,-5.64 84.13,-0.92 125.43,14.15 10.36,3.8 15.32,11.21 14.89,22.24 l -1.23,30.7 c -0.42,10.85 -5.45,13.79 -15.13,8.83 m -278.9,116.61 c -0.27,79.77 -65.16,144.24 -144.99,143.98 l -30.51,-0.11 c -79.8,-0.25 -144.26,-65.2 -143.99,-144.99 l 0.19,-54.16 c 0.28,-79.78 65.17,-144.24 144.99,-143.98 l 30.52,0.1 c 79.79,0.25 144.25,65.21 143.98,144.99 l -0.19,54.17 m -347.64,-116.61 c -52.57,-27.21 -141.91,-37.38 -164.83,34.31 -21.2,66.42 -11.27,163.12 77.88,169.67 34.62,2.51 56.13,-6.92 87.38,-18.81 10.23,-3.92 15.32,-0.43 15.32,10.54 v 29.9 c 0,9.38 -6.13,17.71 -15.14,20.53 -94.61,29.35 -196.87,20.04 -240.26,-80.52 -17.4,-40.32 -19.12,-97.55 -6.49,-139.03 18.26,-59.93 59.01,-94.12 122.18,-102.51 42.34,-5.64 84.13,-0.92 125.43,14.15 10.36,3.8 15.32,11.21 14.89,22.24 l -1.22,30.7 c -0.43,10.85 -5.46,13.79 -15.14,8.83 m 963.74,327.82 c 1.71,0 2.94,0.12 3.67,0.31 1.96,0.55 2.94,1.9 2.94,3.98 v 37.87 c 0,2.45 1.23,3.67 3.68,3.67 h 8.64 c 3.25,0 4.9,1.66 4.9,4.91 v 2.2 c 0,1.78 -1.41,3.25 -3.18,3.31 -6.01,0.12 -12.87,0.18 -20.65,0.12 -7.78,0.06 -14.71,0 -20.65,-0.12 -1.84,-0.06 -3.25,-1.53 -3.25,-3.31 v -2.2 c 0,-3.25 1.65,-4.91 4.9,-4.91 h 8.64 c 2.45,0 3.68,-1.22 3.68,-3.67 v -37.87 c 0,-2.08 0.98,-3.43 2.94,-3.98 0.74,-0.19 1.96,-0.31 3.74,-0.31 m -210.05,-247.49 c 5.39,-0.43 10.11,-3 13.35,-7.72 7.6,-10.97 39.96,-57.97 97,-140.87 2.21,-3.19 5.76,-5.09 9.62,-5.09 h 76.6 c 7.29,0 11.88,7.84 8.27,14.22 -0.92,1.65 -2.21,3.67 -3.92,6.06 -8.46,11.83 -48.78,66.42 -120.96,163.79 -0.92,1.23 -0.86,2.39 0.18,3.43 57.54,61.71 88.61,94.73 93.26,99.15 7.73,7.29 15.38,16.72 22.92,28.24 3.31,5.03 -0.3,11.77 -6.37,11.77 h -65.57 c -3.49,0 -6.86,-1.53 -9.19,-4.17 -41.17,-46.69 -75.18,-84.86 -101.96,-114.58 -3.12,-3.43 -7.17,-5.03 -12.19,-4.72 -2.33,0.18 -3.5,1.41 -3.5,3.8 v 240.75 c 0,5.33 -4.35,9.68 -9.74,9.68 h -57.41 c -7.54,0 -13.61,-6.07 -13.61,-13.6 v -431.01 c 0,-7.11 5.76,-12.87 12.87,-12.87 h 54.29 c 7.54,0 13.6,6.07 13.6,13.54 v 137.99 c 0,1.29 1.11,2.33 2.46,2.21 m -1920.62,163.85 0.25,127.08 c 0,7.11 -5.7,12.87 -12.75,12.87 l -53.92,0.12 c -7.6,0 -13.85,-6.25 -13.85,-13.97 l -0.79,-430.09 c 0,-7.41 5.94,-13.36 13.29,-13.42 26.54,-0.06 43.69,-0.06 51.29,0 4.23,0.06 6.99,0.98 8.27,2.82 1.84,2.57 2.45,5.95 1.72,10.05 -0.43,2.94 2.7,5.09 5.21,3.68 28.06,-15.44 43.69,-21.2 81.74,-21.02 224.14,1.16 196.51,391.61 -35.11,330.89 -8.27,-2.21 -20.96,-6.81 -37.99,-13.91 -3.5,-1.41 -7.36,1.16 -7.36,4.9 m 2209.65,121.69 1.53,-34.62 c 0.06,-1.9 1.11,-2.94 3.01,-3.12 l 6.37,-0.43 c 3.25,-0.25 4.72,1.34 4.41,4.71 l -4.29,48.35 c -0.18,2.08 -1.35,3.25 -3.43,3.49 -5.58,0.74 -9.87,0.49 -12.93,-0.73 -2.02,-0.8 -3.37,-2.27 -4.04,-4.35 l -8.34,-26.29 c -0.92,-2.88 -1.84,-2.88 -2.82,0 l -9.43,28.37 c -0.62,1.84 -2.33,3.06 -4.23,3.06 h -12.44 c -2.27,0 -3.49,-1.16 -3.68,-3.43 l -3.49,-49.2 c -0.18,-2.15 1.53,-3.98 3.68,-3.98 h 5.51 c 2.39,0 4.35,1.9 4.41,4.29 l 0.8,29.84 c 0.12,3.55 0.74,3.67 1.84,0.3 l 10.05,-30.21 c 0.61,-1.77 1.84,-3 3.61,-3.67 2.39,-0.86 4.84,-1.1 7.23,-0.74 1.97,0.31 3.68,1.72 4.29,3.68 l 10.97,34.86 c 0.86,2.64 1.35,2.58 1.41,-0.18 M 3148.51,4506.8 v 127.14 c 0,7.11 -5.76,12.87 -12.81,12.87 h -53.92 c -7.66,0 -13.85,-6.25 -13.85,-13.97 v -430.46 c 0,-7.35 5.94,-13.36 13.3,-13.36 26.59,-0.06 43.68,0 51.34,0.07 4.23,0.06 6.99,1.04 8.28,2.81 1.83,2.64 2.39,6.01 1.71,10.12 -0.43,2.94 2.64,5.08 5.21,3.67 28.06,-15.44 43.75,-21.14 81.8,-20.89 224.33,1.59 195.96,392.28 -35.72,331.07 -8.27,-2.21 -20.96,-6.87 -37.99,-13.97 -3.49,-1.47 -7.35,1.1 -7.35,4.9"
         style="fill:none;stroke:#f171bf;stroke-width:7.5;stroke-linecap:butt;stroke-linejoin:miter;stroke-miterlimit:10;stroke-dasharray:none;stroke-opacity:1"
         id="path24" />
      <path
         d="m 1038.25,4030.81 c -0.8,-0.55 -1.23,-1.16 -1.29,-1.96 -6.13,-69.67 9.99,-130.39 48.41,-182.17 57.96,-78 149.82,-117.95 246.26,-105.64 67.41,8.64 124.45,40.01 171.15,94.12 5.26,6.13 6.86,16.24 13.54,22.49 4.59,4.29 8.45,9.31 11.46,15.07 38.23,73.1 44.17,145.84 17.77,218.08 -14.53,39.71 -36.59,73.65 -66.24,101.78 -52.15,49.45 -117.41,73.41 -195.9,71.75 -13.24,-0.3 -23.28,-4.35 -35.42,-5.14 -40.81,-2.7 -95.16,-30.52 -123.16,-60.48 -8.95,-9.56 -15.87,-16.67 -20.77,-21.39 -12.56,-12.13 -22.06,-23.47 -28.62,-34.07 -13.91,-22.55 -24.45,-46.93 -31.68,-73.16 -3.18,-11.4 -3.06,-22 -4.23,-36.95 -0.06,-0.98 -0.49,-1.78 -1.28,-2.33"
         style="fill:none;stroke:#92565c;stroke-width:7.5;stroke-linecap:butt;stroke-linejoin:miter;stroke-miterlimit:10;stroke-dasharray:none;stroke-opacity:1"
         id="path26" />
      <path
         d="m 2939.19,4355.14 c 0,1.53 -1.47,2.64 -2.94,2.21 -24.63,-7.72 -47.18,-15.5 -67.65,-23.35 -17.16,-6.55 -28.13,-13.42 -32.9,-20.59 -14.28,-21.44 -14.77,-39.58 -1.48,-54.35 9.87,-11.03 23.72,-17.28 41.43,-18.81 22.85,-1.96 63.48,7.05 63.48,37.07 -0.06,41.3 0,67.22 0.06,77.82 m 826.91,-4.04 c 0.37,-49.88 17.65,-115.26 80.76,-114.77 63.11,0.49 79.41,66.12 79.04,115.99 -0.42,49.94 -17.7,115.32 -80.82,114.83 -63.11,-0.49 -79.35,-66.11 -78.98,-116.05 m -1275.02,1.77 c 0.13,-43.13 0.25,-65.31 0.31,-66.6 1.41,-48.9 65.75,-52.15 98.71,-39.09 44.86,17.76 55.09,61.64 54.91,106.31 -0.13,44.67 -10.73,88.48 -55.7,105.88 -33.09,12.81 -97.37,9.07 -98.47,-39.83 0,-1.28 0.06,-23.47 0.24,-66.67 m 657.67,-0.18 c 0.31,-43.2 0.49,-65.44 0.49,-66.67 1.59,-48.96 65.99,-51.96 98.9,-38.84 44.85,17.89 54.96,61.88 54.66,106.55 -0.31,44.67 -11.03,88.55 -56.07,105.83 -33.15,12.68 -97.49,8.76 -98.41,-40.2 0,-1.29 0.12,-23.47 0.43,-66.67 m 2447.7,-1911.23 c -2.14,-3.8 -6.8,-5.34 -10.72,-3.62 -7.23,3.06 -12.75,8.03 -16.61,14.89 -53.25,95.9 -323.96,593.82 -812.14,1493.89 -14.64,26.96 -26.29,44.18 -34.86,51.72 -16,14.03 -36.65,21.14 -61.95,21.2 -126.41,0.49 -268.82,0.49 -427.22,-0.06 -44.05,-0.19 -49.87,-34.13 -49.87,-72.06 -0.13,-669.37 -0.13,-1338.75 0,-2008.18 0,-42.28 5.88,-73.59 54.23,-73.77 79.84,-0.31 152.14,-0.43 216.97,-0.31 49.63,0.12 60.6,22.37 60.6,70.1 0.06,515.75 0.06,1031.57 0,1547.32 0,12.69 -1.1,24.45 3.68,35.91 2.2,5.33 8.52,7.54 13.54,4.78 7.41,-4.11 13.3,-9.93 17.59,-17.46 5.45,-9.75 270.53,-496.09 795.1,-1459.03 25.62,-46.93 55.34,-99.57 83.46,-137.19 22.12,-29.6 53.49,-44.37 94.18,-44.37 119.43,0 238.97,0 358.52,0.06 23.96,0 39.77,9.5 47.43,28.56 3.37,8.45 5.09,24.75 5.09,48.9 0.06,670.16 0.12,1340.33 0.06,2010.5 0,34.43 -8.77,65.87 -48.04,66.17 -75.06,0.56 -150.13,0.68 -225.25,0.25 -48.41,-0.25 -58.58,-19.98 -58.58,-67.03 0.18,-972.38 -0.06,-1470.3 -0.74,-1493.77 -0.18,-6.74 -1.71,-12.56 -4.47,-17.4 m -2770.5,240.87 c 0.37,21.81 13.48,30.88 34.44,31 61.95,0.31 120.83,0.74 176.59,1.23 0.31,0 23.29,0 68.82,-0.06 98.28,0 190.87,9 277.7,26.96 192.71,39.83 348.22,151.17 429.9,334.07 27.03,60.48 45.53,123.96 55.64,190.57 47.49,312.75 -76.84,635.42 -405.58,721.27 -39.22,10.23 -84.31,17.71 -135.23,22.42 -66.73,6.13 -130.4,9.38 -190.94,9.69 -49.69,0.24 -274.88,0.36 -675.56,0.3 -25.3,0 -42.22,-8.33 -50.86,-25 -4.22,-8.15 -6.37,-24.57 -6.37,-49.26 0.25,-668.82 0.25,-1337.7 0,-2006.64 0,-23.1 1.9,-38.85 5.76,-47.25 8.03,-17.52 23.65,-26.28 46.88,-26.35 95.95,-0.06 191.97,-0.06 287.99,-0.06 25.8,0 42.89,1.9 51.41,5.7 18.69,8.33 28,25.55 28,51.59 0,455.71 0.49,709.02 1.41,759.82"
         style="fill:none;stroke:#f171bf;stroke-width:7.5;stroke-linecap:butt;stroke-linejoin:miter;stroke-miterlimit:10;stroke-dasharray:none;stroke-opacity:1"
         id="path28" />
      <path
         d="m 354.539,3978.73 c 10.723,-25.74 20.223,-45.84 28.371,-60.3 210.723,-372.37 421.512,-744.8 632.24,-1117.17 23.34,-41.36 36.46,-69.18 39.34,-83.58 5.45,-27.63 8.14,-53.24 8.14,-76.84 0.07,-234.01 0.07,-468.08 0.13,-702.15 0,-23.4 1.77,-39.03 5.39,-46.94 7.97,-17.27 23.65,-25.98 47.12,-26.04 104.96,-0.36 207.29,-0.36 307.11,0 22.67,0.13 41.3,3.25 52.27,22.43 4.35,7.54 6.62,20.65 6.8,39.28 0.19,17.89 0.31,35.72 0.43,53.55"
         style="fill:none;stroke:#9edb90;stroke-width:7.5;stroke-linecap:butt;stroke-linejoin:miter;stroke-miterlimit:10;stroke-dasharray:none;stroke-opacity:1"
         id="path30" />
      <path
         d="m 3442.63,3384.91 c -3.07,151.96 -45.84,292.47 -204.48,344.67 -48.71,16.12 -95.96,25.06 -141.61,26.96 -57.96,2.39 -134.13,2.95 -228.55,1.66 -13.42,-0.18 -22.55,-1.53 -27.27,-4.05 -10.54,-5.57 -15.81,-14.15 -15.81,-25.73 -0.18,-235.79 -0.18,-471.58 0,-707.36 0.06,-23.29 4.72,-41.18 30.7,-41.98 75.12,-2.26 144.98,-2.08 209.56,0.68 164.1,7.04 313.06,67.4 358.34,240.44 13.91,53.07 20.28,107.97 19.12,164.71"
         style="fill:none;stroke:#f171bf;stroke-width:7.5;stroke-linecap:butt;stroke-linejoin:miter;stroke-miterlimit:10;stroke-dasharray:none;stroke-opacity:1"
         id="path32" />
      <path
         d="M 6519.69,6519.69 V 0 H 0 v 3126.27 c 0.917969,-15.99 2.14453,-31.93 3.67578,-47.86 1.34766,-14.15 2.32813,-30.15 2.94141,-48.04 0.73437,-21.2 2.02344,-36.58 3.80081,-46.2 3.3086,-17.71 1.9609,-36.15 4.5312,-56.86 6.1289,-48.72 11.336,-97.43 19.1797,-150.25 C 169.242,1869.7 684.813,1061.41 1446.77,550.809 1787.09,322.738 2159.34,164.469 2563.45,76.0508 c 248.96,-53.5 500.5,-77.87893 754.6,-73.10158 489.04,9.19138 974.83,127.01978 1410.93,349.82078 637.63,325.8 1158.59,852.33 1466.56,1498.61 228.62,479.78 334.32,986.4 316.98,1519.87 C 6462.45,4913.54 5325.61,6214.29 3803.6,6471.77 3268.18,6562.34 2709.47,6518.46 2198.25,6342.36 1570.3,6126 1019.74,5720.29 627.398,5184.32 429.051,4913.42 276.473,4619.79 169.609,4303.43 120.59,4159.61 82.5977,4015.43 55.6367,3871.01 41.0547,3792.82 31.25,3729.4 26.1641,3680.81 c -1.2852,-12.32 -3.0625,-24.51 -5.3321,-36.71 -2.8164,-14.76 -2.0195,-31.37 -5.0859,-47.54 -3.7969,-19.98 -2.5117,-42.41 -5.6367,-62.93 -2.87893,-18.94 -4.10549,-41.24 -3.7969,-66.98 0.05859,-6.8 -2.45312,-12.68 -2.69922,-18.38 C 2.87891,3429.82 1.65234,3411.44 0,3393.06 v 3126.63 h 6519.69 v 0"
         style="fill:#ffffff;fill-opacity:1;fill-rule:nonzero;stroke:none"
         id="path34" />
      <path
         d="m 5596.45,2441.46 c -2.14,-3.8 -6.8,-5.34 -10.72,-3.62 -7.23,3.06 -12.75,8.03 -16.61,14.89 -53.25,95.9 -323.96,593.82 -812.14,1493.89 -14.64,26.96 -26.29,44.18 -34.86,51.72 -16,14.03 -36.65,21.14 -61.95,21.2 -126.41,0.49 -268.82,0.49 -427.22,-0.06 -44.05,-0.19 -49.87,-34.13 -49.87,-72.06 -0.13,-669.37 -0.13,-1338.75 0,-2008.18 0,-42.28 5.88,-73.59 54.23,-73.77 79.84,-0.31 152.14,-0.43 216.97,-0.31 49.63,0.12 60.6,22.37 60.6,70.1 0.06,515.75 0.06,1031.57 0,1547.32 0,12.69 -1.1,24.45 3.68,35.91 2.2,5.33 8.52,7.54 13.54,4.78 7.41,-4.11 13.3,-9.93 17.59,-17.46 5.45,-9.75 270.53,-496.09 795.1,-1459.03 25.62,-46.93 55.34,-99.57 83.46,-137.19 22.12,-29.6 53.49,-44.37 94.18,-44.37 119.43,0 238.97,0 358.52,0.06 23.96,0 39.77,9.5 47.43,28.56 3.37,8.45 5.09,24.75 5.09,48.9 0.06,670.16 0.12,1340.33 0.06,2010.5 0,34.43 -8.77,65.87 -48.04,66.17 -75.06,0.56 -150.13,0.68 -225.25,0.25 -48.41,-0.25 -58.58,-19.98 -58.58,-67.03 0.18,-972.38 -0.06,-1470.3 -0.74,-1493.77 -0.18,-6.74 -1.71,-12.56 -4.47,-17.4 z m -2770.5,240.87 c 0.37,21.81 13.48,30.88 34.44,31 61.95,0.31 120.83,0.74 176.59,1.23 0.31,0 23.29,0 68.82,-0.06 98.28,0 190.87,9 277.7,26.96 192.71,39.83 348.22,151.17 429.9,334.07 27.03,60.48 45.53,123.96 55.64,190.57 47.49,312.75 -76.84,635.42 -405.58,721.27 -39.22,10.23 -84.31,17.71 -135.23,22.42 -66.73,6.13 -130.4,9.38 -190.94,9.69 -49.69,0.24 -274.88,0.36 -675.56,0.3 -25.3,0 -42.22,-8.33 -50.86,-25 -4.22,-8.15 -6.37,-24.57 -6.37,-49.26 0.25,-668.82 0.25,-1337.7 0,-2006.64 0,-23.1 1.9,-38.85 5.76,-47.25 8.03,-17.52 23.65,-26.28 46.88,-26.35 95.95,-0.06 191.97,-0.06 287.99,-0.06 25.8,0 42.89,1.9 51.41,5.7 18.69,8.33 28,25.55 28,51.59 0,455.71 0.49,709.02 1.41,759.82 m -1787.7,1348.48 c -0.8,-0.55 -1.23,-1.16 -1.29,-1.96 -6.13,-69.67 9.99,-130.39 48.41,-182.17 57.96,-78 149.82,-117.95 246.26,-105.64 67.41,8.64 124.45,40.01 171.15,94.12 5.26,6.13 6.86,16.24 13.54,22.49 4.59,4.29 8.45,9.31 11.46,15.07 38.23,73.1 44.17,145.84 17.77,218.08 -14.53,39.71 -36.59,73.65 -66.24,101.78 -52.15,49.45 -117.41,73.41 -195.9,71.75 -13.24,-0.3 -23.28,-4.35 -35.42,-5.14 -40.81,-2.7 -95.16,-30.52 -123.16,-60.48 -8.95,-9.56 -15.87,-16.67 -20.77,-21.39 -12.56,-12.13 -22.06,-23.47 -28.62,-34.07 -13.91,-22.55 -24.45,-46.93 -31.68,-73.16 -3.18,-11.4 -3.06,-22 -4.23,-36.95 -0.06,-0.98 -0.49,-1.78 -1.28,-2.33 m 1909.21,171.27 v -8.46 c 0,-2.39 1.96,-4.35 4.35,-4.35 h 55.09 c 7.05,0 12.81,5.76 12.81,12.81 0.12,136.15 0.24,208.58 0.3,217.34 0.19,24.69 -2.63,42.65 -8.45,53.86 -37.01,71.08 -174.15,50.86 -232.3,29.41 -11.21,-4.1 -16.6,-12.19 -16.11,-24.2 l 1.16,-28.62 c 0.49,-12.31 6.37,-15.99 17.71,-11.03 39.7,17.71 77.02,30.27 120.22,25.56 18.26,-1.97 30.58,-10.05 36.89,-24.33 1.9,-4.23 2.02,-8.7 0.49,-13.48 -2.27,-7.05 -5.15,-11.15 -8.64,-12.32 -45.41,-15.32 -73.72,-24.69 -84.93,-28.12 -62.81,-19.3 -106.56,-46.39 -100.67,-119.73 2.88,-35.73 20.89,-60.48 54.04,-74.39 20.71,-8.7 47.43,-10.97 80.21,-6.87 16.85,2.15 50.61,22.62 64.65,20.59 2.14,-0.3 3.18,-1.53 3.18,-3.67 m 1337.15,60.54 c -52.57,-27.21 -141.91,-37.38 -164.83,34.31 -21.2,66.42 -11.21,163.12 77.88,169.67 34.62,2.51 56.13,-6.92 87.38,-18.81 10.23,-3.92 15.32,-0.43 15.32,10.54 v 29.9 c 0,9.38 -6.13,17.71 -15.14,20.53 -94.55,29.35 -196.81,20.04 -240.2,-80.52 -17.46,-40.32 -19.18,-97.55 -6.55,-138.97 18.26,-59.93 59.01,-94.12 122.18,-102.57 42.28,-5.64 84.13,-0.92 125.43,14.15 10.36,3.8 15.32,11.21 14.89,22.24 l -1.23,30.7 c -0.42,10.85 -5.45,13.79 -15.13,8.83 m -278.9,116.61 c -0.27,79.77 -65.16,144.24 -144.99,143.98 l -30.51,-0.11 c -79.8,-0.25 -144.26,-65.2 -143.99,-144.99 l 0.19,-54.16 c 0.28,-79.78 65.17,-144.24 144.99,-143.98 l 30.52,0.1 c 79.79,0.25 144.25,65.21 143.98,144.99 l -0.19,54.17 m -347.64,-116.61 c -52.57,-27.21 -141.91,-37.38 -164.83,34.31 -21.2,66.42 -11.27,163.12 77.88,169.67 34.62,2.51 56.13,-6.92 87.38,-18.81 10.23,-3.92 15.32,-0.43 15.32,10.54 v 29.9 c 0,9.38 -6.13,17.71 -15.14,20.53 -94.61,29.35 -196.87,20.04 -240.26,-80.52 -17.4,-40.32 -19.12,-97.55 -6.49,-139.03 18.26,-59.93 59.01,-94.12 122.18,-102.51 42.34,-5.64 84.13,-0.92 125.43,14.15 10.36,3.8 15.32,11.21 14.89,22.24 l -1.22,30.7 c -0.43,10.85 -5.46,13.79 -15.14,8.83 m 963.74,327.82 c 1.71,0 2.94,0.12 3.67,0.31 1.96,0.55 2.94,1.9 2.94,3.98 v 37.87 c 0,2.45 1.23,3.67 3.68,3.67 h 8.64 c 3.25,0 4.9,1.66 4.9,4.91 v 2.2 c 0,1.78 -1.41,3.25 -3.18,3.31 -6.01,0.12 -12.87,0.18 -20.65,0.12 -7.78,0.06 -14.71,0 -20.65,-0.12 -1.84,-0.06 -3.25,-1.53 -3.25,-3.31 v -2.2 c 0,-3.25 1.65,-4.91 4.9,-4.91 h 8.64 c 2.45,0 3.68,-1.22 3.68,-3.67 v -37.87 c 0,-2.08 0.98,-3.43 2.94,-3.98 0.74,-0.19 1.96,-0.31 3.74,-0.31 m -210.05,-247.49 c 5.39,-0.43 10.11,-3 13.35,-7.72 7.6,-10.97 39.96,-57.97 97,-140.87 2.21,-3.19 5.76,-5.09 9.62,-5.09 h 76.6 c 7.29,0 11.88,7.84 8.27,14.22 -0.92,1.65 -2.21,3.67 -3.92,6.06 -8.46,11.83 -48.78,66.42 -120.96,163.79 -0.92,1.23 -0.86,2.39 0.18,3.43 57.54,61.71 88.61,94.73 93.26,99.15 7.73,7.29 15.38,16.72 22.92,28.24 3.31,5.03 -0.3,11.77 -6.37,11.77 h -65.57 c -3.49,0 -6.86,-1.53 -9.19,-4.17 -41.17,-46.69 -75.18,-84.86 -101.96,-114.58 -3.12,-3.43 -7.17,-5.03 -12.19,-4.72 -2.33,0.18 -3.5,1.41 -3.5,3.8 v 240.75 c 0,5.33 -4.35,9.68 -9.74,9.68 h -57.41 c -7.54,0 -13.61,-6.07 -13.61,-13.6 v -431.01 c 0,-7.11 5.76,-12.87 12.87,-12.87 h 54.29 c 7.54,0 13.6,6.07 13.6,13.54 v 137.99 c 0,1.29 1.11,2.33 2.46,2.21 m -1920.62,163.85 0.25,127.08 c 0,7.11 -5.7,12.87 -12.75,12.87 l -53.92,0.12 c -7.6,0 -13.85,-6.25 -13.85,-13.97 l -0.79,-430.09 c 0,-7.41 5.94,-13.36 13.29,-13.42 26.54,-0.06 43.69,-0.06 51.29,0 4.23,0.06 6.99,0.98 8.27,2.82 1.84,2.57 2.45,5.95 1.72,10.05 -0.43,2.94 2.7,5.09 5.21,3.68 28.06,-15.44 43.69,-21.2 81.74,-21.02 224.14,1.16 196.51,391.61 -35.11,330.89 -8.27,-2.21 -20.96,-6.81 -37.99,-13.91 -3.5,-1.41 -7.36,1.16 -7.36,4.9 m 2209.65,121.69 1.53,-34.62 c 0.06,-1.9 1.11,-2.94 3.01,-3.12 l 6.37,-0.43 c 3.25,-0.25 4.72,1.34 4.41,4.71 l -4.29,48.35 c -0.18,2.08 -1.35,3.25 -3.43,3.49 -5.58,0.74 -9.87,0.49 -12.93,-0.73 -2.02,-0.8 -3.37,-2.27 -4.04,-4.35 l -8.34,-26.29 c -0.92,-2.88 -1.84,-2.88 -2.82,0 l -9.43,28.37 c -0.62,1.84 -2.33,3.06 -4.23,3.06 h -12.44 c -2.27,0 -3.49,-1.16 -3.68,-3.43 l -3.49,-49.2 c -0.18,-2.15 1.53,-3.98 3.68,-3.98 h 5.51 c 2.39,0 4.35,1.9 4.41,4.29 l 0.8,29.84 c 0.12,3.55 0.74,3.67 1.84,0.3 l 10.05,-30.21 c 0.61,-1.77 1.84,-3 3.61,-3.67 2.39,-0.86 4.84,-1.1 7.23,-0.74 1.97,0.31 3.68,1.72 4.29,3.68 l 10.97,34.86 c 0.86,2.64 1.35,2.58 1.41,-0.18 M 3148.51,4506.8 v 127.14 c 0,7.11 -5.76,12.87 -12.81,12.87 h -53.92 c -7.66,0 -13.85,-6.25 -13.85,-13.97 v -430.46 c 0,-7.35 5.94,-13.36 13.3,-13.36 26.59,-0.06 43.68,0 51.34,0.07 4.23,0.06 6.99,1.04 8.28,2.81 1.83,2.64 2.39,6.01 1.71,10.12 -0.43,2.94 2.64,5.08 5.21,3.67 28.06,-15.44 43.75,-21.14 81.8,-20.89 224.33,1.59 195.96,392.28 -35.72,331.07 -8.27,-2.21 -20.96,-6.87 -37.99,-13.97 -3.49,-1.47 -7.35,1.1 -7.35,4.9 M 2563.45,76.0508 2363.63,432.238 c -0.92,1.653 -2.27,2.762 -3.98,3.434 -1.9,0.68 -2.76,2.207 -2.7,4.539 0.06,2.141 -0.43,4.098 -1.47,6 -57.47,101.719 -99.69,176.168 -126.72,223.41 -5.63,9.93 -15.38,20.34 -20.83,32.539 -6.92,15.5 -10.85,24.141 -11.83,25.789 -41.42,72.492 -78.43,137.93 -111.09,196.332 -0.06,0.117 -5.94,9.438 -17.58,28 -6.44,10.301 -14.1,24.207 -22.98,41.789 -7.17,14.16 -36.95,67.34 -89.34,159.44 -2.82,4.84 -8.27,8.03 -10.23,13.91 -2.21,6.56 -3.56,10.29 -4.05,11.09 -151.23,267.1 -302.45,534.14 -453.68,801.24 -0.61,1.16 -1.53,1.47 -2.76,0.98 -1.1,-0.43 -1.96,-0.37 -2.51,0.24 -0.18,228.19 -0.24,456.38 -0.18,684.51 0.06,64.03 6.25,106.98 33.15,154.9 328.8,585.61 534.13,950.69 616.06,1095.23 12.99,22.86 47.85,89.9 4.16,101.97 -4.71,1.28 -11.76,1.96 -21.07,2.02 -71.7,0.37 -143.45,0.43 -215.2,0.18 -51.11,-0.12 -78.86,2.27 -102.7,-42.34 -151.9,-284.62 -303.8,-569.31 -455.58,-854.05 -5.88,-10.97 -17.4,-29.35 -28.49,-34.25 -17.9,-8.03 -33.83,8.02 -41.49,22.48 -221.14,414.71 -375.981,704.97 -464.587,870.72 -7.598,14.28 -19.363,24.64 -35.297,31.07 -9.984,4.11 -24.816,6.13 -44.484,6.19 -197.734,0.43 -311.031,0.43 -339.77,-0.12 -10.05,-0.19 -18.136,-4.78 -24.328,-13.67 -5.269,-7.54 -5.453,-17.71 -7.535,-27.08 l -33.824,56.74 c -0.309,0.55 -0.43,1.16 -0.309,1.78 0.246,1.22 0.125,2.69 -0.551,3.86 -48.406,86.82 -98.468,174.26 -150.246,262.32 106.864,316.36 259.442,609.99 457.789,880.89 392.342,535.97 942.902,941.68 1570.852,1158.04 511.22,176.1 1069.93,219.98 1605.35,129.41 C 5325.61,6214.29 6462.45,4913.54 6512.52,3371.25 6529.86,2837.78 6424.16,2331.16 6195.54,1851.38 5887.57,1205.1 5366.61,678.57 4728.98,352.77 4292.88,129.969 3807.09,12.1406 3318.05,2.94922 3063.95,-1.82813 2812.41,22.5508 2563.45,76.0508"
         style="fill:#e80a87;fill-opacity:1;fill-rule:nonzero;stroke:none"
         id="path36" />
      <path
         d="m 3148.75,4352.69 c 0.31,-43.2 0.49,-65.44 0.49,-66.67 1.59,-48.96 65.99,-51.96 98.9,-38.84 44.85,17.89 54.96,61.88 54.66,106.55 -0.31,44.67 -11.03,88.55 -56.07,105.83 -33.15,12.68 -97.49,8.76 -98.41,-40.2 0,-1.29 0.12,-23.47 0.43,-66.67 z m -0.24,154.11 c 0,-3.8 3.86,-6.37 7.35,-4.9 17.03,7.1 29.72,11.76 37.99,13.97 231.68,61.21 260.05,-329.48 35.72,-331.07 -38.05,-0.25 -53.74,5.45 -81.8,20.89 -2.57,1.41 -5.64,-0.73 -5.21,-3.67 0.68,-4.11 0.12,-7.48 -1.71,-10.12 -1.29,-1.77 -4.05,-2.75 -8.28,-2.81 -7.66,-0.07 -24.75,-0.13 -51.34,-0.07 -7.36,0 -13.3,6.01 -13.3,13.36 v 430.46 c 0,7.72 6.19,13.97 13.85,13.97 h 53.92 c 7.05,0 12.81,-5.76 12.81,-12.87 V 4506.8"
         style="fill:#ffffff;fill-opacity:1;fill-rule:nonzero;stroke:none"
         id="path38" />
      <path
         d="m 4699.38,4628.67 -10.97,-34.86 c -0.61,-1.96 -2.32,-3.37 -4.29,-3.68 -2.39,-0.36 -4.84,-0.12 -7.23,0.74 -1.77,0.67 -3,1.9 -3.61,3.67 l -10.05,30.21 c -1.1,3.37 -1.72,3.25 -1.84,-0.3 l -0.8,-29.84 c -0.06,-2.39 -2.02,-4.29 -4.41,-4.29 h -5.51 c -2.15,0 -3.86,1.83 -3.68,3.98 l 3.49,49.2 c 0.19,2.27 1.41,3.43 3.68,3.43 h 12.44 c 1.9,0 3.61,-1.22 4.23,-3.06 l 9.43,-28.37 c 0.98,-2.88 1.9,-2.88 2.82,0 l 8.34,26.29 c 0.67,2.08 2.02,3.55 4.04,4.35 3.06,1.22 7.35,1.47 12.93,0.73 2.08,-0.24 3.25,-1.41 3.43,-3.49 l 4.29,-48.35 c 0.31,-3.37 -1.16,-4.96 -4.41,-4.71 l -6.37,0.43 c -1.9,0.18 -2.95,1.22 -3.01,3.12 l -1.53,34.62 c -0.06,2.76 -0.55,2.82 -1.41,0.18 v 0"
         style="fill:#ffffff;fill-opacity:1;fill-rule:nonzero;stroke:none"
         id="path40" />
      <path
         d="m 2491.08,4352.87 c 0.13,-43.13 0.25,-65.31 0.31,-66.6 1.41,-48.9 65.75,-52.15 98.71,-39.09 44.86,17.76 55.09,61.64 54.91,106.31 -0.13,44.67 -10.73,88.48 -55.7,105.88 -33.09,12.81 -97.37,9.07 -98.47,-39.83 0,-1.28 0.06,-23.47 0.24,-66.67 z m 0.06,153.93 c 0,-3.74 3.86,-6.31 7.36,-4.9 17.03,7.1 29.72,11.7 37.99,13.91 231.62,60.72 259.25,-329.73 35.11,-330.89 -38.05,-0.18 -53.68,5.58 -81.74,21.02 -2.51,1.41 -5.64,-0.74 -5.21,-3.68 0.73,-4.1 0.12,-7.48 -1.72,-10.05 -1.28,-1.84 -4.04,-2.76 -8.27,-2.82 -7.6,-0.06 -24.75,-0.06 -51.29,0 -7.35,0.06 -13.29,6.01 -13.29,13.42 l 0.79,430.09 c 0,7.72 6.25,13.97 13.85,13.97 l 53.92,-0.12 c 7.05,0 12.75,-5.76 12.75,-12.87 l -0.25,-127.08"
         style="fill:#ffffff;fill-opacity:1;fill-rule:nonzero;stroke:none"
         id="path42" />
      <path
         d="m 4411.76,4342.95 c -1.35,0.12 -2.46,-0.92 -2.46,-2.21 v -137.99 c 0,-7.47 -6.06,-13.54 -13.6,-13.54 h -54.29 c -7.11,0 -12.87,5.76 -12.87,12.87 v 431.01 c 0,7.53 6.07,13.6 13.61,13.6 h 57.41 c 5.39,0 9.74,-4.35 9.74,-9.68 v -240.75 c 0,-2.39 1.17,-3.62 3.5,-3.8 5.02,-0.31 9.07,1.29 12.19,4.72 26.78,29.72 60.79,67.89 101.96,114.58 2.33,2.64 5.7,4.17 9.19,4.17 h 65.57 c 6.07,0 9.68,-6.74 6.37,-11.77 -7.54,-11.52 -15.19,-20.95 -22.92,-28.24 -4.65,-4.42 -35.72,-37.44 -93.26,-99.15 -1.04,-1.04 -1.1,-2.2 -0.18,-3.43 72.18,-97.37 112.5,-151.96 120.96,-163.79 1.71,-2.39 3,-4.41 3.92,-6.06 3.61,-6.38 -0.98,-14.22 -8.27,-14.22 h -76.6 c -3.86,0 -7.41,1.9 -9.62,5.09 -57.04,82.9 -89.4,129.9 -97,140.87 -3.24,4.72 -7.96,7.29 -13.35,7.72 v 0"
         style="fill:#ffffff;fill-opacity:1;fill-rule:nonzero;stroke:none"
         id="path44" />
      <path
         d="m 4621.81,4646.81 c 7.78,0.06 14.64,0 20.65,-0.12 1.77,-0.06 3.18,-1.53 3.18,-3.31 v -2.2 c 0,-3.25 -1.65,-4.91 -4.9,-4.91 h -8.64 c -2.45,0 -3.68,-1.22 -3.68,-3.67 v -37.87 c 0,-2.08 -0.98,-3.43 -2.94,-3.98 -0.73,-0.19 -1.96,-0.31 -3.67,-0.31 -1.78,0 -3,0.12 -3.74,0.31 -1.96,0.55 -2.94,1.9 -2.94,3.98 v 37.87 c 0,2.45 -1.23,3.67 -3.68,3.67 h -8.64 c -3.25,0 -4.9,1.66 -4.9,4.91 v 2.2 c 0,1.78 1.41,3.25 3.25,3.31 5.94,0.12 12.87,0.18 20.65,0.12 v 0"
         style="fill:#ffffff;fill-opacity:1;fill-rule:nonzero;stroke:none"
         id="path46" />
      <path
         d="m 3493.24,4296.93 c 22.92,-71.69 112.26,-61.52 164.83,-34.31 9.68,4.96 14.71,2.02 15.14,-8.83 l 1.22,-30.7 c 0.43,-11.03 -4.53,-18.44 -14.89,-22.24 -41.3,-15.07 -83.09,-19.79 -125.43,-14.15 -63.17,8.39 -103.92,42.58 -122.18,102.51 -12.63,41.48 -10.91,98.71 6.49,139.03 43.39,100.56 145.65,109.87 240.26,80.52 9.01,-2.82 15.14,-11.15 15.14,-20.53 v -29.9 c 0,-10.97 -5.09,-14.46 -15.32,-10.54 -31.25,11.89 -52.76,21.32 -87.38,18.81 -89.15,-6.55 -99.08,-103.25 -77.88,-169.67 v 0"
         style="fill:#ffffff;fill-opacity:1;fill-rule:nonzero;stroke:none"
         id="path48" />
      <path
         d="m 3766.1,4351.1 c 0.37,-49.88 17.65,-115.26 80.76,-114.77 63.11,0.49 79.41,66.12 79.04,115.99 -0.42,49.94 -17.7,115.32 -80.82,114.83 -63.11,-0.49 -79.35,-66.11 -78.98,-116.05 z m 239.8,-26.04 c 0.27,-79.78 -64.19,-144.74 -143.98,-144.99 l -30.52,-0.1 c -79.82,-0.26 -144.71,64.2 -144.99,143.98 l -0.19,54.16 c -0.27,79.79 64.19,144.74 143.99,144.99 l 30.51,0.11 c 79.83,0.26 144.72,-64.21 144.99,-143.98 l 0.19,-54.17"
         style="fill:#ffffff;fill-opacity:1;fill-rule:nonzero;stroke:none"
         id="path50" />
      <path
         d="m 4284.61,4262.62 c 9.68,4.96 14.71,2.02 15.13,-8.83 l 1.23,-30.7 c 0.43,-11.03 -4.53,-18.44 -14.89,-22.24 -41.3,-15.07 -83.15,-19.79 -125.43,-14.15 -63.17,8.45 -103.92,42.64 -122.18,102.57 -12.63,41.42 -10.91,98.65 6.55,138.97 43.39,100.56 145.65,109.87 240.2,80.52 9.01,-2.82 15.14,-11.15 15.14,-20.53 v -29.9 c 0,-10.97 -5.09,-14.46 -15.32,-10.54 -31.25,11.89 -52.76,21.32 -87.38,18.81 -89.09,-6.55 -99.08,-103.25 -77.88,-169.67 22.92,-71.69 112.26,-61.52 164.83,-34.31 v 0"
         style="fill:#ffffff;fill-opacity:1;fill-rule:nonzero;stroke:none"
         id="path52" />
      <path
         d="m 2939.19,4355.14 c 0,1.53 -1.47,2.64 -2.94,2.21 -24.63,-7.72 -47.18,-15.5 -67.65,-23.35 -17.16,-6.55 -28.13,-13.42 -32.9,-20.59 -14.28,-21.44 -14.77,-39.58 -1.48,-54.35 9.87,-11.03 23.72,-17.28 41.43,-18.81 22.85,-1.96 63.48,7.05 63.48,37.07 -0.06,41.3 0,67.22 0.06,77.82 z m 5.09,-149.39 c -14.04,2.03 -47.8,-18.44 -64.65,-20.59 -32.78,-4.1 -59.5,-1.83 -80.21,6.87 -33.15,13.91 -51.16,38.66 -54.04,74.39 -5.89,73.34 37.86,100.43 100.67,119.73 11.21,3.43 39.52,12.8 84.93,28.12 3.49,1.17 6.37,5.27 8.64,12.32 1.53,4.78 1.41,9.25 -0.49,13.48 -6.31,14.28 -18.63,22.36 -36.89,24.33 -43.2,4.71 -80.52,-7.85 -120.22,-25.56 -11.34,-4.96 -17.22,-1.28 -17.71,11.03 l -1.16,28.62 c -0.49,12.01 4.9,20.1 16.11,24.2 58.15,21.45 195.29,41.67 232.3,-29.41 5.82,-11.21 8.64,-29.17 8.45,-53.86 -0.06,-8.76 -0.18,-81.19 -0.3,-217.34 0,-7.05 -5.76,-12.81 -12.81,-12.81 h -55.09 c -2.39,0 -4.35,1.96 -4.35,4.35 v 8.46 c 0,2.14 -1.04,3.37 -3.18,3.67"
         style="fill:#ffffff;fill-opacity:1;fill-rule:nonzero;stroke:none"
         id="path54" />
      <path
         d="m 3302.8,4353.73 c 0.3,-44.67 -9.81,-88.66 -54.66,-106.55 -32.91,-13.12 -97.31,-10.12 -98.9,38.84 0,1.23 -0.18,23.47 -0.49,66.67 -0.31,43.2 -0.43,65.38 -0.43,66.67 0.92,48.96 65.26,52.88 98.41,40.2 45.04,-17.28 55.76,-61.16 56.07,-105.83 v 0"
         style="fill:#e80a87;fill-opacity:1;fill-rule:nonzero;stroke:none"
         id="path56" />
      <path
         d="m 3845.08,4467.15 c 63.12,0.49 80.4,-64.89 80.82,-114.83 0.37,-49.87 -15.93,-115.5 -79.04,-115.99 -63.11,-0.49 -80.39,64.89 -80.76,114.77 -0.37,49.94 15.87,115.56 78.98,116.05 v 0"
         style="fill:#e80a87;fill-opacity:1;fill-rule:nonzero;stroke:none"
         id="path58" />
      <path
         d="m 2491.08,4352.87 c -0.18,43.2 -0.24,65.39 -0.24,66.67 1.1,48.9 65.38,52.64 98.47,39.83 44.97,-17.4 55.57,-61.21 55.7,-105.88 0.18,-44.67 -10.05,-88.55 -54.91,-106.31 -32.96,-13.06 -97.3,-9.81 -98.71,39.09 -0.06,1.29 -0.18,23.47 -0.31,66.6 v 0"
         style="fill:#e80a87;fill-opacity:1;fill-rule:nonzero;stroke:none"
         id="path60" />
      <path
         d="m 2939.19,4355.14 c -0.06,-10.6 -0.12,-36.52 -0.06,-77.82 0,-30.02 -40.63,-39.03 -63.48,-37.07 -17.71,1.53 -31.56,7.78 -41.43,18.81 -13.29,14.77 -12.8,32.91 1.48,54.35 4.77,7.17 15.74,14.04 32.9,20.59 20.47,7.85 43.02,15.63 67.65,23.35 1.47,0.43 2.94,-0.68 2.94,-2.21 v 0"
         style="fill:#e80a87;fill-opacity:1;fill-rule:nonzero;stroke:none"
         id="path62" />
      <path
         d="m 169.609,4303.43 c 51.778,-88.06 101.84,-175.5 150.246,-262.32 0.676,-1.17 0.797,-2.64 0.551,-3.86 -0.121,-0.62 0,-1.23 0.309,-1.78 l 33.824,-56.74 c 10.723,-25.74 20.223,-45.84 28.371,-60.3 210.723,-372.37 421.512,-744.8 632.24,-1117.17 23.34,-41.36 36.46,-69.18 39.34,-83.58 5.45,-27.63 8.14,-53.24 8.14,-76.84 0.07,-234.01 0.07,-468.08 0.13,-702.15 0,-23.4 1.77,-39.03 5.39,-46.94 7.97,-17.27 23.65,-25.98 47.12,-26.04 104.96,-0.36 207.29,-0.36 307.11,0 22.67,0.13 41.3,3.25 52.27,22.43 4.35,7.54 6.62,20.65 6.8,39.28 0.19,17.89 0.31,35.72 0.43,53.55 0.55,-0.61 1.41,-0.67 2.51,-0.24 1.23,0.49 2.15,0.18 2.76,-0.98 151.23,-267.1 302.45,-534.14 453.68,-801.24 0.49,-0.8 1.84,-4.53 4.05,-11.09 1.96,-5.88 7.41,-9.07 10.23,-13.91 52.39,-92.1 82.17,-145.28 89.34,-159.44 8.88,-17.582 16.54,-31.488 22.98,-41.789 11.64,-18.562 17.52,-27.883 17.58,-28 32.66,-58.402 69.67,-123.84 111.09,-196.332 0.98,-1.648 4.91,-10.289 11.83,-25.789 5.45,-12.199 15.2,-22.609 20.83,-32.539 27.03,-47.242 69.25,-121.691 126.72,-223.41 1.04,-1.902 1.53,-3.859 1.47,-6 -0.06,-2.332 0.8,-3.859 2.7,-4.539 1.71,-0.672 3.06,-1.781 3.98,-3.434 L 2563.45,76.0508 C 2159.34,164.469 1787.09,322.738 1446.77,550.809 684.813,1061.41 169.242,1869.7 34.1289,2777.06 c -7.8437,52.82 -13.0508,101.53 -19.1797,150.25 -2.5703,20.71 -1.2226,39.15 -4.5312,56.86 -1.77737,9.62 -3.06644,25 -3.80081,46.2 -0.61328,17.89 -1.59375,33.89 -2.94141,48.04 C 2.14453,3094.34 0.917969,3110.28 0,3126.27 v 266.79 c 1.65234,18.38 2.87891,36.76 3.61328,55.21 0.2461,5.7 2.75781,11.58 2.69922,18.38 -0.30859,25.74 0.91797,48.04 3.7969,66.98 3.125,20.52 1.8398,42.95 5.6367,62.93 3.0664,16.17 2.2695,32.78 5.0859,47.54 2.2696,12.2 4.0469,24.39 5.3321,36.71 5.0859,48.59 14.8906,112.01 29.4726,190.2 26.961,144.42 64.9533,288.6 113.9723,432.42 v 0"
         style="fill:#44b23b;fill-opacity:1;fill-rule:nonzero;stroke:none"
         id="path64" />
      <path
         d="m 1039.53,4033.14 c 1.17,14.95 1.05,25.55 4.23,36.95 7.23,26.23 17.77,50.61 31.68,73.16 6.56,10.6 16.06,21.94 28.62,34.07 4.9,4.72 11.82,11.83 20.77,21.39 28,29.96 82.35,57.78 123.16,60.48 12.14,0.79 22.18,4.84 35.42,5.14 78.49,1.66 143.75,-22.3 195.9,-71.75 29.65,-28.13 51.71,-62.07 66.24,-101.78 26.4,-72.24 20.46,-144.98 -17.77,-218.08 -3.01,-5.76 -6.87,-10.78 -11.46,-15.07 -6.68,-6.25 -8.28,-16.36 -13.54,-22.49 -46.7,-54.11 -103.74,-85.48 -171.15,-94.12 -96.44,-12.31 -188.3,27.64 -246.26,105.64 -38.42,51.78 -54.54,112.5 -48.41,182.17 0.06,0.8 0.49,1.41 1.29,1.96 0.79,0.55 1.22,1.35 1.28,2.33 v 0"
         style="fill:#44b23b;fill-opacity:1;fill-rule:nonzero;stroke:none"
         id="path66" />
      <path
         d="m 1481.88,1980.97 c -0.12,-17.83 -0.24,-35.66 -0.43,-53.55 -0.18,-18.63 -2.45,-31.74 -6.8,-39.28 -10.97,-19.18 -29.6,-22.3 -52.27,-22.43 -99.82,-0.36 -202.15,-0.36 -307.11,0 -23.47,0.06 -39.15,8.77 -47.12,26.04 -3.62,7.91 -5.39,23.54 -5.39,46.94 -0.06,234.07 -0.06,468.14 -0.13,702.15 0,23.6 -2.69,49.21 -8.14,76.84 -2.88,14.4 -16,42.22 -39.34,83.58 -210.728,372.37 -421.517,744.8 -632.24,1117.17 -8.148,14.46 -17.648,34.56 -28.371,60.3 2.082,9.37 2.266,19.54 7.535,27.08 6.192,8.89 14.278,13.48 24.328,13.67 28.739,0.55 142.036,0.55 339.77,0.12 19.668,-0.06 34.5,-2.08 44.484,-6.19 15.934,-6.43 27.699,-16.79 35.297,-31.07 88.606,-165.75 243.447,-456.01 464.587,-870.72 7.66,-14.46 23.59,-30.51 41.49,-22.48 11.09,4.9 22.61,23.28 28.49,34.25 151.78,284.74 303.68,569.43 455.58,854.05 23.84,44.61 51.59,42.22 102.7,42.34 71.75,0.25 143.5,0.19 215.2,-0.18 9.31,-0.06 16.36,-0.74 21.07,-2.02 43.69,-12.07 8.83,-79.11 -4.16,-101.97 -81.93,-144.54 -287.26,-509.62 -616.06,-1095.23 -26.9,-47.92 -33.09,-90.87 -33.15,-154.9 -0.06,-228.13 0,-456.32 0.18,-684.51 v 0"
         style="fill:#ffffff;fill-opacity:1;fill-rule:nonzero;stroke:none"
         id="path68" />
      <path
         d="m 3442.63,3384.91 c -3.07,151.96 -45.84,292.47 -204.48,344.67 -48.71,16.12 -95.96,25.06 -141.61,26.96 -57.96,2.39 -134.13,2.95 -228.55,1.66 -13.42,-0.18 -22.55,-1.53 -27.27,-4.05 -10.54,-5.57 -15.81,-14.15 -15.81,-25.73 -0.18,-235.79 -0.18,-471.58 0,-707.36 0.06,-23.29 4.72,-41.18 30.7,-41.98 75.12,-2.26 144.98,-2.08 209.56,0.68 164.1,7.04 313.06,67.4 358.34,240.44 13.91,53.07 20.28,107.97 19.12,164.71 z m -582.24,-671.58 c -20.96,-0.12 -34.07,-9.19 -34.44,-31 -0.92,-50.8 -1.41,-304.11 -1.41,-759.82 0,-26.04 -9.31,-43.26 -28,-51.59 -8.52,-3.8 -25.61,-5.7 -51.41,-5.7 -96.02,0 -192.04,0 -287.99,0.06 -23.23,0.07 -38.85,8.83 -46.88,26.35 -3.86,8.4 -5.76,24.15 -5.76,47.25 0.25,668.94 0.25,1337.82 0,2006.64 0,24.69 2.15,41.11 6.37,49.26 8.64,16.67 25.56,25 50.86,25 400.68,0.06 625.87,-0.06 675.56,-0.3 60.54,-0.31 124.21,-3.56 190.94,-9.69 50.92,-4.71 96.01,-12.19 135.23,-22.42 328.74,-85.85 453.07,-408.52 405.58,-721.27 -10.11,-66.61 -28.61,-130.09 -55.64,-190.57 -81.68,-182.9 -237.19,-294.24 -429.9,-334.07 -86.83,-17.96 -179.42,-26.96 -277.7,-26.96 -45.53,0.06 -68.51,0.06 -68.82,0.06 -55.76,-0.49 -114.64,-0.92 -176.59,-1.23"
         style="fill:#ffffff;fill-opacity:1;fill-rule:nonzero;stroke:none"
         id="path70" />
      <path
         d="m 5596.45,2441.46 c 2.76,4.84 4.29,10.66 4.47,17.4 0.68,23.47 0.92,521.39 0.74,1493.77 0,47.05 10.17,66.78 58.58,67.03 75.12,0.43 150.19,0.31 225.25,-0.25 39.27,-0.3 48.04,-31.74 48.04,-66.17 0.06,-670.17 0,-1340.34 -0.06,-2010.5 0,-24.15 -1.72,-40.45 -5.09,-48.9 -7.66,-19.06 -23.47,-28.56 -47.43,-28.56 -119.55,-0.06 -239.09,-0.06 -358.52,-0.06 -40.69,0 -72.06,14.77 -94.18,44.37 -28.12,37.62 -57.84,90.26 -83.46,137.19 -524.57,962.94 -789.65,1449.28 -795.1,1459.03 -4.29,7.53 -10.18,13.35 -17.59,17.46 -5.02,2.76 -11.34,0.55 -13.54,-4.78 -4.78,-11.46 -3.68,-23.22 -3.68,-35.91 0.06,-515.75 0.06,-1031.57 0,-1547.32 0,-47.73 -10.97,-69.98 -60.6,-70.1 -64.83,-0.12 -137.13,0 -216.97,0.31 -48.35,0.18 -54.23,31.49 -54.23,73.77 -0.13,669.43 -0.13,1338.81 0,2008.18 0,37.93 5.82,71.87 49.87,72.06 158.4,0.55 300.81,0.55 427.22,0.06 25.3,-0.06 45.95,-7.17 61.95,-21.2 8.57,-7.54 20.22,-24.76 34.86,-51.72 488.18,-900.07 758.89,-1397.99 812.14,-1493.89 3.86,-6.86 9.38,-11.83 16.61,-14.89 3.92,-1.72 8.58,-0.18 10.72,3.62 v 0"
         style="fill:#ffffff;fill-opacity:1;fill-rule:nonzero;stroke:none"
         id="path72" />
      <path
         d="m 3442.63,3384.91 c 1.16,-56.74 -5.21,-111.64 -19.12,-164.71 -45.28,-173.04 -194.24,-233.4 -358.34,-240.44 -64.58,-2.76 -134.44,-2.94 -209.56,-0.68 -25.98,0.8 -30.64,18.69 -30.7,41.98 -0.18,235.78 -0.18,471.57 0,707.36 0,11.58 5.27,20.16 15.81,25.73 4.72,2.52 13.85,3.87 27.27,4.05 94.42,1.29 170.59,0.73 228.55,-1.66 45.65,-1.9 92.9,-10.84 141.61,-26.96 158.64,-52.2 201.41,-192.71 204.48,-344.67 v 0"
         style="fill:#e80a87;fill-opacity:1;fill-rule:nonzero;stroke:none"
         id="path74" />
    </g>
  </g>
</svg>
