<?xml version="1.0" encoding="UTF-8" standalone="no"?>
<!-- Created with Inkscape (http://www.inkscape.org/) -->

<svg
   version="1.1"
   id="svg2"
   width="321.39999"
   height="134.93333"
   viewBox="0 0 321.39999 134.93333"
   sodipodi:docname="25011771566 - COOP Logo_85mm (cyan).eps"
   xmlns:inkscape="http://www.inkscape.org/namespaces/inkscape"
   xmlns:sodipodi="http://sodipodi.sourceforge.net/DTD/sodipodi-0.dtd"
   xmlns="http://www.w3.org/2000/svg"
   xmlns:svg="http://www.w3.org/2000/svg">
  <defs
     id="defs6" />
  <sodipodi:namedview
     id="namedview4"
     pagecolor="#ffffff"
     bordercolor="#000000"
     borderopacity="0.25"
     inkscape:showpageshadow="2"
     inkscape:pageopacity="0.0"
     inkscape:pagecheckerboard="0"
     inkscape:deskcolor="#d1d1d1" />
  <g
     id="g8"
     inkscape:groupmode="layer"
     inkscape:label="ink_ext_XXXXXX"
     transform="matrix(1.3333333,0,0,-1.3333333,0,134.93333)">
    <g
       id="g10"
       transform="scale(0.1)">
      <path
         d="m 1010.6,887.359 c 89.84,-20.949 160.26,-89.257 183.8,-178.129 8.33,-31.472 40.68,-50.191 72.01,-41.902 31.44,8.34 50.19,40.574 41.85,72.027 -7.45,28.106 -18.09,54.895 -31.51,79.821 60.71,62.168 149.23,88.34 234.29,68.523 133.53,-31.176 216.91,-165.054 185.86,-298.367 -31.19,-133.48 -165.2,-216.793 -298.5,-185.871 -96.67,22.57 -170.54,100.082 -188.14,197.508 -5.78,32.008 -36.49,53.336 -68.4,47.461 -32.05,-5.797 -53.3,-36.442 -47.5,-68.461 6.98,-38.531 19.92,-74.903 37.81,-108.203 C 1072,410.059 983.266,383.34 897.816,403.145 764.359,434.297 681.094,568.223 712.102,701.73 c 26.773,114.594 129.238,192.192 242.105,192.192 18.582,0 37.543,-2.125 56.393,-6.563 z m 194,-509.504 c 45.97,-42.929 103.12,-74.175 167.1,-89.062 196.65,-45.699 393.95,77.09 439.87,273.773 45.82,196.559 -76.96,393.899 -273.72,439.814 -120.11,28.07 -244.68,-6.103 -333.48,-89.259 -46.01,42.918 -103.15,74.031 -167,88.939 C 840.734,1047.95 643.336,925.242 597.406,728.445 551.66,531.695 674.402,334.32 871.074,288.477 c 27.614,-6.391 55.489,-9.543 83.098,-9.543 92.688,0 182.428,35.269 250.428,98.921"
         style="fill:#41a5e1;fill-opacity:1;fill-rule:evenodd;stroke:none"
         id="path12" />
      <path
         d="M 1940.26,58.8633 V 300.684 c 32.37,-12.653 67.17,-21.34 103.99,-21.34 201.96,0 366.29,164.34 366.29,366.355 0,201.992 -164.33,366.261 -366.29,366.261 -81.31,0 -158.33,-26.062 -222.66,-75.351 -25.83,-19.781 -30.71,-56.754 -10.93,-82.55 19.77,-25.797 56.72,-30.727 82.57,-10.911 43.55,33.375 95.83,51.028 151.02,51.028 137.03,0 248.52,-111.442 248.52,-248.477 0,-137.082 -111.49,-248.57 -248.52,-248.57 -34.41,0 -69.86,15.008 -103.99,33.711 v 21.144 c 0,32.504 -26.36,58.907 -58.88,58.907 -32.54,0 -58.86,-26.403 -58.86,-58.907 V 58.8633 C 1822.52,26.375 1848.84,0 1881.38,0 c 32.52,0 58.88,26.375 58.88,58.8633"
         style="fill:#41a5e1;fill-opacity:1;fill-rule:evenodd;stroke:none"
         id="path14" />
      <path
         d="M 366.297,279.344 C 164.293,279.344 0,443.648 0,645.629 c 0,0.035 0,0.035 0,0.07 0,201.992 164.293,366.261 366.297,366.261 h 0.289 0.18 0.121 c 81.101,-0.12 157.855,-26.136 222.074,-75.351 25.809,-19.781 30.715,-56.754 10.937,-82.55 -19.804,-25.797 -56.804,-30.641 -82.578,-10.946 -7.343,5.641 -14.968,10.836 -22.761,15.575 -0.532,0.265 -1.028,0.566 -1.524,0.871 -38.109,22.617 -81.754,34.543 -126.375,34.617 h -0.074 -0.156 -0.121 c -137.059,0 -248.547,-111.442 -248.559,-248.512 0.012,-137.047 111.5,-248.535 248.547,-248.535 0.012,0.035 0.121,0.035 0.219,0 0.011,0.035 0.07,0.035 0.144,0 44.621,0.07 88.266,12.082 126.375,34.68 0.496,0.289 0.992,0.554 1.524,0.855 7.793,4.699 15.418,9.922 22.761,15.539 25.774,19.77 62.774,14.875 82.578,-10.91 19.778,-25.848 14.872,-62.82 -10.937,-82.59 -64.219,-49.176 -140.973,-75.238 -222.074,-75.359 -0.035,0.047 -0.121,0.047 -0.192,0 h -0.109"
         style="fill:#41a5e1;fill-opacity:1;fill-rule:evenodd;stroke:none"
         id="path16" />
    </g>
  </g>
</svg>
