<?xml version="1.0" encoding="UTF-8" standalone="no"?>
<!-- Created with Inkscape (http://www.inkscape.org/) -->

<svg
   version="1.1"
   id="svg2"
   width="379.02667"
   height="247.41333"
   viewBox="0 0 379.02667 247.41333"
   sodipodi:docname="25012936574 - Carparison Beanies logos white out text.eps"
   xmlns:inkscape="http://www.inkscape.org/namespaces/inkscape"
   xmlns:sodipodi="http://sodipodi.sourceforge.net/DTD/sodipodi-0.dtd"
   xmlns="http://www.w3.org/2000/svg"
   xmlns:svg="http://www.w3.org/2000/svg">
  <defs
     id="defs6" />
  <sodipodi:namedview
     id="namedview4"
     pagecolor="#ffffff"
     bordercolor="#000000"
     borderopacity="0.25"
     inkscape:showpageshadow="2"
     inkscape:pageopacity="0.0"
     inkscape:pagecheckerboard="0"
     inkscape:deskcolor="#d1d1d1" />
  <g
     id="g8"
     inkscape:groupmode="layer"
     inkscape:label="ink_ext_XXXXXX"
     transform="matrix(1.3333333,0,0,-1.3333333,0,247.41333)">
    <g
       id="g10"
       transform="scale(0.1)">
      <path
         d="M 823.539,280.609 C 748.938,280.609 667.41,219 667.41,142.98 667.41,66.9805 735.781,0 810.383,0 c 74.597,0 142.969,45.5313 142.969,121.539 0,76 -55.211,159.07 -129.813,159.07"
         style="fill:#6dcded;fill-opacity:1;fill-rule:nonzero;stroke:none"
         id="path12" />
      <path
         d="m 1037.02,41.0586 h 18.69 v 43.9219 c 2.73,-3.5703 6.5,-6.5703 11.31,-9.0196 4.81,-2.4492 10.32,-3.6718 16.55,-3.6718 6.01,0 11.56,1.082 16.64,3.25 5.08,2.1718 9.51,5.2109 13.28,9.1093 3.77,3.8907 6.72,8.543 8.85,13.9414 2.13,5.3982 3.19,11.3322 3.19,17.7812 0,6.348 -1.09,12.25 -3.27,17.707 -2.19,5.453 -5.22,10.133 -9.1,14.024 -3.88,3.898 -8.44,6.957 -13.69,9.187 -5.24,2.231 -10.98,3.34 -17.21,3.34 -6.77,0 -12.95,-1.059 -18.52,-3.168 -5.57,-2.121 -10.33,-5.211 -14.26,-9.27 -3.93,-4.07 -6.99,-9.082 -9.18,-15.031 -2.18,-5.961 -3.28,-12.84 -3.28,-20.629 z m 33.52,50.1797 c -3.11,1.3906 -5.76,3.3125 -7.95,5.7617 -2.18,2.4492 -3.9,5.352 -5.16,8.691 -1.26,3.34 -1.88,6.95 -1.88,10.848 0,4.012 0.62,7.66 1.88,10.941 1.26,3.282 3,6.102 5.25,8.43 2.23,2.34 4.91,4.18 8.03,5.512 3.11,1.34 6.53,2.008 10.24,2.008 3.71,0 7.13,-0.7 10.24,-2.09 3.12,-1.391 5.8,-3.281 8.04,-5.68 2.23,-2.39 3.96,-5.23 5.16,-8.512 1.2,-3.289 1.8,-6.828 1.8,-10.609 0,-3.898 -0.6,-7.508 -1.8,-10.848 -1.2,-3.339 -2.93,-6.2418 -5.16,-8.691 -2.24,-2.4492 -4.92,-4.3711 -8.04,-5.7617 -3.11,-1.3867 -6.53,-2.0899 -10.24,-2.0899 -3.83,0 -7.29,0.7032 -10.41,2.0899 m 161.37,33.8207 c 0,6.453 -1.07,11.972 -3.2,16.531 -2.13,4.558 -5.11,8.242 -8.93,11.019 -3.83,2.782 -8.39,4.821 -13.69,6.102 -5.3,1.277 -11.17,1.918 -17.62,1.918 -5.35,0 -9.78,-0.328 -13.27,-1 -3.5,-0.668 -6.29,-1.59 -8.36,-2.758 -2.08,-1.172 -3.53,-2.5 -4.35,-4.012 -0.81,-1.5 -1.22,-3.027 -1.22,-4.589 0,-2.231 0.57,-4.122 1.72,-5.68 1.14,-1.559 2.04,-2.61 2.7,-3.168 1.2,1 3.69,2.226 7.46,3.668 3.77,1.449 8.77,2.18 15,2.18 3.71,0 7.1,-0.282 10.16,-0.84 3.06,-0.559 5.68,-1.559 7.87,-3.008 2.18,-1.442 3.9,-3.453 5.16,-6.012 1.25,-2.558 1.88,-5.789 1.88,-9.68 -1.86,0.219 -4.64,0.469 -8.36,0.75 -3.71,0.27 -7.64,0.418 -11.8,0.418 -7.21,0 -13.33,-0.589 -18.35,-1.757 -5.03,-1.172 -9.1,-2.922 -12.22,-5.262 -3.11,-2.34 -5.35,-5.231 -6.72,-8.68 -1.36,-3.449 -2.04,-7.461 -2.04,-12.0271 0,-3.4531 0.57,-6.8203 1.72,-10.1016 1.14,-3.289 3.27,-6.1797 6.39,-8.6797 3.11,-2.5117 7.38,-4.5117 12.78,-6.0195 5.41,-1.5 12.38,-2.25 20.9,-2.25 4.26,0 8.36,0.1094 12.3,0.3281 3.93,0.2305 7.48,0.4805 10.65,0.7617 3.17,0.2696 5.93,0.5508 8.28,0.8282 2.34,0.2812 4.07,0.5312 5.16,0.75 z m -18.52,-37.5785 c -0.99,-0.2188 -2.95,-0.5313 -5.9,-0.9219 -2.95,-0.3867 -6.94,-0.5781 -11.97,-0.5781 -4.48,0 -8.22,0.3086 -11.23,0.9179 -3,0.6133 -5.38,1.5 -7.13,2.6719 -1.74,1.168 -2.97,2.5899 -3.68,4.2578 -0.72,1.6719 -1.07,3.5117 -1.07,5.5117 0,4.8982 1.69,8.4882 5.08,10.7692 3.39,2.282 8.8,3.43 16.23,3.43 6.01,0 10.52,-0.23 13.52,-0.668 3.01,-0.449 5.05,-0.781 6.15,-1 z m 54.08,-13.0196 h 18.69 v 48.4301 c 0,13.8 6.39,20.699 19.18,20.699 3.49,0 6.61,-0.391 9.34,-1.16 2.73,-0.782 5.02,-1.621 6.88,-2.508 0.66,0.437 1.5,1.558 2.54,3.34 1.04,1.777 1.56,3.617 1.56,5.508 0,4.011 -2.16,6.992 -6.47,8.941 -4.32,1.937 -9.92,2.918 -16.8,2.918 -10.93,0 -19.48,-2.809 -25.65,-8.43 -6.18,-5.629 -9.27,-13.558 -9.27,-23.801 z m 85.4,0 h 18.68 v 81.9881 c -0.55,0.231 -1.64,0.59 -3.28,1.09 -1.64,0.5 -3.44,0.75 -5.4,0.75 -3.18,0 -5.63,-0.699 -7.38,-2.09 -1.75,-1.39 -2.62,-3.64 -2.62,-6.758 z m 1.31,118.0591 c -2.19,-2.219 -3.28,-4.95 -3.28,-8.18 0,-3.231 1.09,-5.949 3.28,-8.18 2.18,-2.23 4.86,-3.34 8.03,-3.34 3.17,0 5.84,1.11 8.03,3.34 2.19,2.231 3.28,4.949 3.28,8.18 0,3.23 -1.09,5.961 -3.28,8.18 -2.19,2.23 -4.86,3.351 -8.03,3.351 -3.17,0 -5.85,-1.121 -8.03,-3.351 m 48.84,-110.0512 c 0.66,-0.5586 2.08,-1.3868 4.26,-2.5 2.19,-1.1172 5.06,-2.2579 8.61,-3.418 3.55,-1.1719 7.73,-2.1992 12.54,-3.0899 4.81,-0.8906 10.16,-1.3398 16.06,-1.3398 12.24,0 21.61,2.5078 28.11,7.5195 6.5,5.0078 9.75,11.6797 9.75,20.0313 0,7.4571 -2.5,13.1091 -7.52,16.9571 -5.01,3.84 -12.04,6.371 -21.08,7.59 l -16.67,2.172 c -4.47,0.558 -7.9,1.589 -10.3,3.089 -2.4,1.508 -3.6,3.7 -3.6,6.602 0,6.789 6.34,10.188 19.02,10.188 4.59,0 8.63,-0.372 12.13,-1.09 3.49,-0.719 6.5,-1.559 9.01,-2.5 2.51,-0.95 4.51,-1.899 5.98,-2.84 1.48,-0.949 2.43,-1.649 2.87,-2.09 0.33,0.109 0.82,0.422 1.48,0.922 0.65,0.5 1.28,1.137 1.88,1.918 0.6,0.781 1.15,1.672 1.64,2.672 0.49,1 0.74,2.168 0.74,3.508 0,4.121 -3.14,7.46 -9.43,10.019 -6.28,2.563 -15.1,3.84 -26.47,3.84 -6.77,0 -12.55,-0.699 -17.31,-2.09 -4.77,-1.391 -8.65,-3.309 -11.62,-5.758 -2.98,-2.453 -5.16,-5.261 -6.53,-8.429 -1.38,-3.18 -2.07,-6.543 -2.07,-10.114 0,-4.117 0.74,-7.648 2.21,-10.597 1.48,-2.95 3.52,-5.43 6.15,-7.43 2.62,-2.012 5.76,-3.59 9.42,-4.762 3.66,-1.168 7.68,-1.98 12.05,-2.418 l 12.78,-1.511 c 5.9,-0.661 10,-1.809 12.3,-3.418 2.29,-1.614 3.44,-3.981 3.44,-7.102 0,-3.6719 -1.8,-6.2617 -5.41,-7.7617 -3.61,-1.5078 -8.25,-2.2578 -13.93,-2.2578 -4.37,0 -8.42,0.3398 -12.13,1 -3.72,0.6679 -7.02,1.4804 -9.92,2.4297 -2.9,0.9414 -5.32,1.8593 -7.29,2.75 -1.97,0.8906 -3.34,1.6093 -4.1,2.1679 z m 133.51,74.8202 c -5.52,-2.23 -10.3,-5.32 -14.35,-9.269 -4.04,-3.95 -7.21,-8.629 -9.5,-14.032 -2.3,-5.398 -3.44,-11.269 -3.44,-17.617 0,-6.23 1.14,-12.051 3.44,-17.4491 2.29,-5.4024 5.46,-10.0703 9.5,-14.0235 4.05,-3.957 8.83,-7.0781 14.35,-9.3593 5.51,-2.2774 11.44,-3.418 17.78,-3.418 6.34,0 12.26,1.1406 17.78,3.418 5.52,2.2812 10.3,5.4023 14.35,9.3593 4.04,3.9532 7.21,8.6211 9.5,14.0235 2.3,5.3981 3.44,11.2191 3.44,17.4491 0,6.348 -1.14,12.219 -3.44,17.617 -2.29,5.403 -5.46,10.082 -9.5,14.032 -4.05,3.949 -8.83,7.039 -14.35,9.269 -5.52,2.231 -11.44,3.34 -17.78,3.34 -6.34,0 -12.27,-1.109 -17.78,-3.34 m 7.37,-66.2187 c -3.11,1.3985 -5.79,3.3399 -8.03,5.8516 -2.24,2.5 -3.99,5.3981 -5.24,8.6801 -1.26,3.289 -1.89,6.878 -1.89,10.769 0,3.899 0.63,7.551 1.89,10.938 1.25,3.402 3,6.32 5.24,8.773 2.24,2.449 4.92,4.367 8.03,5.758 3.12,1.39 6.58,2.09 10.41,2.09 3.71,0 7.16,-0.7 10.33,-2.09 3.16,-1.391 5.87,-3.309 8.11,-5.758 2.24,-2.453 3.99,-5.371 5.24,-8.773 1.26,-3.387 1.89,-7.039 1.89,-10.938 0,-3.891 -0.63,-7.48 -1.89,-10.769 -1.25,-3.282 -3,-6.1801 -5.24,-8.6801 -2.24,-2.5117 -4.95,-4.4531 -8.11,-5.8516 -3.17,-1.3906 -6.62,-2.082 -10.33,-2.082 -3.83,0 -7.29,0.6914 -10.41,2.082 m 87.61,-16.6094 h 18.68 v 45.7581 c 0,7.57 1.78,13.332 5.33,17.281 3.55,3.949 8.88,5.93 15.98,5.93 6.99,0 12.29,-1.981 15.9,-5.93 3.61,-3.949 5.41,-9.711 5.41,-17.281 V 74.4609 h 18.69 v 50.5981 c 0,5.562 -0.99,10.55 -2.96,14.941 -1.96,4.398 -4.72,8.129 -8.27,11.191 -3.55,3.059 -7.79,5.399 -12.7,7.02 -4.92,1.609 -10.28,2.418 -16.07,2.418 -5.79,0 -11.12,-0.809 -15.98,-2.418 -4.86,-1.621 -9.07,-3.961 -12.62,-7.02 -3.55,-3.062 -6.34,-6.793 -8.36,-11.191 -2.02,-4.391 -3.03,-9.379 -3.03,-14.941 V 74.4609"
         style="fill:#ffffff;fill-opacity:1;fill-rule:nonzero;stroke:none"
         id="path14" />
      <path
         d="m 880.391,114.801 c -1.125,0.23 -3.231,0.57 -6.321,1.027 -3.09,0.461 -7.726,0.692 -13.902,0.692 -7.645,0 -13.207,-1.18 -16.688,-3.52 -3.484,-2.352 -5.226,-6.039 -5.226,-11.078 0,-2.0626 0.363,-3.9532 1.098,-5.6603 0.726,-1.7226 1.992,-3.1836 3.793,-4.3828 1.793,-1.1992 4.238,-2.1172 7.332,-2.75 3.086,-0.6289 6.933,-0.9492 11.543,-0.9492 5.168,0 9.269,0.1992 12.304,0.6094 3.035,0.4023 5.055,0.7109 6.067,0.9414 z m 19.047,-38.1213 c -1.125,-0.2305 -2.895,-0.4883 -5.309,-0.7695 -2.418,-0.2891 -5.254,-0.5704 -8.512,-0.8594 -3.262,-0.2891 -6.91,-0.5391 -10.957,-0.7813 -4.043,-0.2187 -8.258,-0.3398 -12.64,-0.3398 -8.766,0 -15.926,0.7695 -21.489,2.3203 -5.562,1.5508 -9.945,3.6094 -13.148,6.1797 -3.203,2.582 -5.395,5.5508 -6.574,8.9297 -1.18,3.3789 -1.77,6.8398 -1.77,10.3906 0,4.691 0.703,8.82 2.109,12.371 1.403,3.539 3.707,6.52 6.911,8.93 3.203,2.398 7.386,4.199 12.554,5.41 5.168,1.199 11.461,1.801 18.879,1.801 4.27,0 8.313,-0.153 12.137,-0.43 3.816,-0.293 6.684,-0.551 8.594,-0.773 0,4 -0.649,7.32 -1.938,9.961 -1.293,2.628 -3.062,4.691 -5.308,6.179 -2.25,1.481 -4.95,2.512 -8.09,3.09 -3.149,0.57 -6.633,0.859 -10.453,0.859 -6.403,0 -11.543,-0.75 -15.422,-2.226 -3.875,-1.492 -6.434,-2.75 -7.668,-3.781 -0.672,0.57 -1.602,1.66 -2.781,3.257 -1.18,1.602 -1.77,3.551 -1.77,5.84 0,1.602 0.422,3.184 1.266,4.723 0.839,1.551 2.328,2.918 4.464,4.121 2.133,1.207 5,2.148 8.598,2.84 3.594,0.68 8.145,1.027 13.652,1.027 6.629,0 12.668,-0.66 18.118,-1.98 5.449,-1.321 10.14,-3.399 14.074,-6.27 3.933,-2.859 6.996,-6.64 9.187,-11.328 2.192,-4.691 3.286,-10.359 3.286,-17 V 76.6797"
         style="fill:#ffffff;fill-opacity:1;fill-rule:nonzero;stroke:none"
         id="path16" />
      <path
         d="m 929.684,128.371 c 0,5.719 1.035,10.84 3.117,15.367 2.078,4.524 4.941,8.352 8.597,11.5 3.649,3.153 7.977,5.563 12.977,7.223 5,1.66 10.477,2.488 16.434,2.488 5.953,0 11.461,-0.828 16.515,-2.488 5.059,-1.66 9.41,-4.07 13.066,-7.223 3.65,-3.148 6.49,-6.976 8.51,-11.5 2.02,-4.527 3.03,-9.648 3.03,-15.367 V 76.3398 h -19.211 v 47.0512 c 0,7.781 -1.852,13.711 -5.563,17.769 -3.707,4.07 -9.16,6.102 -16.347,6.102 -7.305,0 -12.786,-2.032 -16.434,-6.102 -3.652,-4.058 -5.477,-9.988 -5.477,-17.769 V 76.3398 h -19.214 v 52.0312"
         style="fill:#ffffff;fill-opacity:1;fill-rule:nonzero;stroke:none"
         id="path18" />
      <path
         d="m 745.422,78.7188 c -5.207,9.8203 -9.969,19.0507 -14.285,27.6792 -4.321,8.633 -8.032,16.332 -11.133,23.102 -3.102,6.77 -5.481,12.422 -7.145,16.93 -1.66,4.511 -2.492,7.449 -2.492,8.8 0,2.372 0.778,4.372 2.328,6.008 1.551,1.641 3.93,2.461 7.145,2.461 2.324,0 4.234,-0.23 5.73,-0.679 1.496,-0.45 2.352,-0.79 2.575,-1.02 2.214,-6.09 4.593,-12.27 7.144,-18.531 2.547,-6.258 5.066,-12.188 7.559,-17.77 2.492,-5.59 4.82,-10.668 6.976,-15.238 2.16,-4.57 3.961,-8.32 5.403,-11.2501 2.101,4.0591 4.371,8.8481 6.808,14.3791 2.438,5.531 4.789,11.012 7.063,16.422 2.269,5.418 4.32,10.347 6.144,14.808 1.828,4.461 3.129,7.7 3.906,9.739 1.106,2.812 2.434,5.043 3.989,6.679 1.547,1.641 3.988,2.461 7.308,2.461 3.102,0 5.621,-0.539 7.559,-1.609 1.937,-1.078 3.016,-1.719 3.238,-1.949 -0.664,-2.371 -1.801,-5.61 -3.402,-9.731 -1.61,-4.121 -3.547,-8.719 -5.817,-13.801 -2.269,-5.07 -4.707,-10.379 -7.308,-15.91 -2.606,-5.527 -5.18,-10.918 -7.727,-16.16 -2.547,-5.2499 -4.957,-10.1288 -7.226,-14.6406 -2.274,-4.5195 -4.184,-8.2382 -5.731,-11.1796 h -18.609"
         style="fill:#ffffff;fill-opacity:1;fill-rule:nonzero;stroke:none"
         id="path20" />
      <path
         d="m 402.637,1065.37 c 210.09,0 402.633,128.22 402.633,342.27 0,214.04 -155.489,447.98 -365.582,447.98 C 229.594,1855.62 0,1682.11 0,1468.04 0,1253.99 192.543,1065.37 402.637,1065.37"
         style="fill:#f8d506;fill-opacity:1;fill-rule:nonzero;stroke:none"
         id="path22" />
      <path
         d="m 310.418,1331.96 c -3.391,-2.19 -9.773,-5.41 -19.156,-9.64 -9.391,-4.23 -21.774,-6.35 -37.16,-6.35 -10.774,0 -20.77,1.48 -30.004,4.47 -9.231,2.98 -17.387,7.6 -24.465,13.87 -7.082,6.27 -12.621,14.26 -16.617,23.99 -4.004,9.71 -5.996,21.47 -5.996,35.27 0,13.17 1.914,24.53 5.765,34.09 3.848,9.57 9.074,17.56 15.695,24 6.614,6.41 14.461,11.2 23.54,14.34 9.074,3.13 18.847,4.7 29.316,4.7 15.383,0 28.309,-2.43 38.773,-7.29 10.457,-4.86 18.461,-9.95 24,-15.28 3.696,2.82 7.618,6.89 11.774,12.23 4.152,5.32 6.23,11.12 6.23,17.39 0,4.71 -1.465,9.41 -4.386,14.11 -2.926,4.71 -7.696,8.94 -14.309,12.7 -6.621,3.76 -15.23,6.89 -25.848,9.41 -10.617,2.5 -23.472,3.76 -38.547,3.76 -17.847,0 -34.546,-2.75 -50.082,-8.23 -15.543,-5.49 -29.007,-13.57 -40.386,-24.22 -11.391,-10.66 -20.313,-23.83 -26.778,-39.51 -6.461,-15.68 -9.691,-33.55 -9.691,-53.61 0,-20.07 3.305,-37.78 9.926,-53.14 6.613,-15.37 15.613,-28.31 27.004,-38.81 11.379,-10.5 24.613,-18.42 39.695,-23.75 15.07,-5.32 31.23,-7.99 48.469,-7.99 11.078,0 21,0.79 29.773,2.35 8.77,1.57 16.617,3.53 23.539,5.88 6.926,2.35 13.078,4.85 18.465,7.52 5.383,2.66 9.926,5.25 13.617,7.76 z m 306.961,85.59 c 0,18.18 -3.004,33.71 -9.004,46.57 -6,12.85 -14.391,23.19 -25.156,31.04 -10.774,7.83 -23.621,13.55 -38.543,17.16 -14.93,3.61 -31.469,5.41 -49.625,5.41 -15.078,0 -27.543,-0.94 -37.387,-2.82 -9.851,-1.88 -17.699,-4.47 -23.543,-7.76 -5.848,-3.29 -9.922,-7.05 -12.23,-11.29 -2.309,-4.23 -3.461,-8.55 -3.461,-12.93 0,-6.28 1.613,-11.61 4.843,-15.99 3.235,-4.4 5.774,-7.37 7.618,-8.94 3.382,2.82 10.386,6.27 21.004,10.35 10.617,4.07 24.695,6.11 42.234,6.11 10.461,0 20,-0.78 28.617,-2.35 8.613,-1.57 16,-4.4 22.16,-8.47 6.153,-4.07 11,-9.72 14.543,-16.93 3.531,-7.21 5.305,-16.3 5.305,-27.27 -5.234,0.62 -13.082,1.33 -23.543,2.11 -10.465,0.78 -21.539,1.18 -33.231,1.18 -20.312,0 -37.55,-1.64 -51.703,-4.94 -14.156,-3.29 -25.617,-8.23 -34.386,-14.81 -8.774,-6.59 -15.082,-14.75 -18.926,-24.46 -3.852,-9.72 -5.77,-21.01 -5.77,-33.86 0,-9.73 1.618,-19.21 4.848,-28.46 3.23,-9.25 9.23,-17.4 18,-24.45 8.77,-7.05 20.773,-12.7 36.008,-16.93 15.23,-4.23 34.847,-6.35 58.851,-6.35 12,0 23.543,0.32 34.621,0.94 11.079,0.63 21.075,1.34 30,2.12 8.926,0.78 16.692,1.57 23.313,2.35 6.613,0.78 11.461,1.48 14.543,2.11 z m -52.164,-105.82 c -2.77,-0.62 -8.305,-1.48 -16.617,-2.58 -8.309,-1.1 -19.543,-1.65 -33.696,-1.65 -12.625,0 -23.16,0.86 -31.621,2.59 -8.465,1.72 -15.16,4.23 -20.078,7.53 -4.926,3.29 -8.39,7.29 -10.387,11.99 -2.007,4.7 -3,9.88 -3,15.52 0,13.8 4.77,23.91 14.309,30.33 9.535,6.43 24.77,9.65 45.699,9.65 16.918,0 29.617,-0.64 38.082,-1.89 8.457,-1.25 14.231,-2.19 17.309,-2.82 z m 152.32,-36.68 h 52.625 v 136.39 c 0,38.87 18,58.32 54.008,58.32 9.844,0 18.613,-1.1 26.309,-3.29 7.687,-2.2 14.152,-4.55 19.386,-7.06 1.848,1.25 4.231,4.39 7.157,9.41 2.921,5.01 4.386,10.19 4.386,15.52 0,11.29 -6.082,19.67 -18.234,25.16 -12.16,5.48 -27.926,8.23 -47.317,8.23 -30.773,0 -54.855,-7.92 -72.238,-23.75 -17.39,-15.84 -26.082,-38.18 -26.082,-67.02 z m 225.719,-94.06 h 52.621 v 123.69 c 7.685,-10.04 18.305,-18.5 31.845,-25.39 13.54,-6.9 29.08,-10.35 46.63,-10.35 16.92,0 32.54,3.06 46.85,9.17 14.31,6.11 26.77,14.65 37.39,25.63 10.62,10.97 18.92,24.06 24.92,39.28 6.01,15.2 9,31.89 9,50.08 0,17.87 -3.07,34.49 -9.23,49.85 -6.16,15.36 -14.7,28.53 -25.62,39.51 -10.92,10.97 -23.77,19.59 -38.54,25.86 -14.77,6.27 -30.93,9.41 -48.47,9.41 -19.08,0 -36.46,-2.98 -52.16,-8.93 -15.69,-5.96 -29.08,-14.66 -40.158,-26.11 -11.078,-11.45 -19.695,-25.56 -25.848,-42.33 -6.16,-16.77 -9.23,-36.14 -9.23,-58.08 z m 94.396,141.33 c -8.77,3.91 -16.24,9.32 -22.39,16.22 -6.16,6.9 -11,15.06 -14.54,24.46 -3.54,9.41 -5.31,19.59 -5.31,30.57 0,11.29 1.77,21.56 5.31,30.81 3.54,9.24 8.46,17.16 14.77,23.75 6.31,6.58 13.85,11.75 22.62,15.51 8.77,3.77 18.39,5.65 28.85,5.65 10.46,0 20.08,-1.96 28.85,-5.88 8.77,-3.92 16.31,-9.25 22.62,-15.99 6.3,-6.74 11.15,-14.74 14.54,-23.98 3.38,-9.26 5.08,-19.22 5.08,-29.87 0,-10.98 -1.7,-21.16 -5.08,-30.57 -3.39,-9.4 -8.24,-17.56 -14.54,-24.46 -6.31,-6.9 -13.85,-12.31 -22.62,-16.22 -8.77,-3.93 -18.39,-5.88 -28.85,-5.88 -10.77,0 -20.54,1.95 -29.31,5.88 m 454.44,95.23 c 0,18.18 -3,33.71 -9,46.57 -6,12.85 -14.39,23.19 -25.15,31.04 -10.78,7.83 -23.63,13.55 -38.55,17.16 -14.93,3.61 -31.47,5.41 -49.62,5.41 -15.08,0 -27.55,-0.94 -37.39,-2.82 -9.85,-1.88 -17.7,-4.47 -23.54,-7.76 -5.85,-3.29 -9.93,-7.05 -12.24,-11.29 -2.3,-4.23 -3.46,-8.55 -3.46,-12.93 0,-6.28 1.62,-11.61 4.85,-15.99 3.23,-4.4 5.77,-7.37 7.62,-8.94 3.38,2.82 10.38,6.27 21,10.35 10.62,4.07 24.69,6.11 42.24,6.11 10.46,0 20,-0.78 28.61,-2.35 8.62,-1.57 16,-4.4 22.16,-8.47 6.16,-4.07 11,-9.72 14.54,-16.93 3.54,-7.21 5.31,-16.3 5.31,-27.27 -5.24,0.62 -13.08,1.33 -23.54,2.11 -10.47,0.78 -21.54,1.18 -33.23,1.18 -20.32,0 -37.56,-1.64 -51.71,-4.94 -14.15,-3.29 -25.61,-8.23 -34.39,-14.81 -8.76,-6.59 -15.08,-14.75 -18.92,-24.46 -3.85,-9.72 -5.77,-21.01 -5.77,-33.86 0,-9.73 1.61,-19.21 4.85,-28.46 3.23,-9.25 9.23,-17.4 18,-24.45 8.77,-7.05 20.77,-12.7 36,-16.93 15.24,-4.23 34.86,-6.35 58.86,-6.35 12,0 23.54,0.32 34.62,0.94 11.08,0.63 21.07,1.34 30,2.12 8.92,0.78 16.69,1.57 23.31,2.35 6.62,0.78 11.46,1.48 14.54,2.11 z m -52.16,-105.82 c -2.77,-0.62 -8.31,-1.48 -16.62,-2.58 -8.3,-1.1 -19.54,-1.65 -33.69,-1.65 -12.62,0 -23.16,0.86 -31.62,2.59 -8.47,1.72 -15.16,4.23 -20.08,7.53 -4.93,3.29 -8.39,7.29 -10.39,11.99 -2,4.7 -3,9.88 -3,15.52 0,13.8 4.77,23.91 14.31,30.33 9.54,6.43 24.77,9.65 45.7,9.65 16.92,0 29.62,-0.64 38.08,-1.89 8.46,-1.25 14.23,-2.19 17.31,-2.82 z m 152.32,-36.68 h 52.62 v 136.39 c 0,38.87 18.01,58.32 54.01,58.32 9.85,0 18.62,-1.1 26.31,-3.29 7.69,-2.2 14.15,-4.55 19.39,-7.06 1.84,1.25 4.23,4.39 7.15,9.41 2.93,5.01 4.39,10.19 4.39,15.52 0,11.29 -6.08,19.67 -18.24,25.16 -12.15,5.48 -27.92,8.23 -47.31,8.23 -30.77,0 -54.85,-7.92 -72.24,-23.75 -17.39,-15.84 -26.08,-38.18 -26.08,-67.02 z m 240.49,0 h 52.62 v 230.92 c -1.54,0.63 -4.61,1.65 -9.23,3.06 -4.62,1.41 -9.69,2.11 -15.24,2.11 -8.92,0 -15.85,-1.95 -20.76,-5.87 -4.93,-3.93 -7.39,-10.28 -7.39,-19.05 z m 3.69,332.5 c -6.16,-6.26 -9.23,-13.94 -9.23,-23.03 0,-9.1 3.07,-16.78 9.23,-23.05 6.15,-6.28 13.69,-9.41 22.62,-9.41 8.92,0 16.46,3.13 22.62,9.41 6.15,6.27 9.23,13.95 9.23,23.05 0,9.09 -3.08,16.77 -9.23,23.03 -6.16,6.28 -13.7,9.41 -22.62,9.41 -8.93,0 -16.47,-3.13 -22.62,-9.41 m 137.56,-309.92 c 1.84,-1.58 5.84,-3.93 12,-7.06 6.15,-3.13 14.23,-6.35 24.23,-9.64 10,-3.29 21.77,-6.18 35.31,-8.7 13.54,-2.5 28.62,-3.76 45.24,-3.76 34.46,0 60.85,7.05 79.17,21.16 18.3,14.11 27.46,32.92 27.46,56.44 0,21 -7.06,36.92 -21.18,47.73 -14.12,10.83 -33.91,17.95 -59.37,21.4 l -46.96,6.12 c -12.58,1.56 -22.25,4.47 -29,8.7 -6.75,4.23 -10.13,10.42 -10.13,18.57 0,19.12 17.85,28.7 53.55,28.7 12.93,0 24.31,-1.02 34.16,-3.06 9.84,-2.05 18.3,-4.4 25.38,-7.06 7.08,-2.67 12.7,-5.33 16.85,-7.99 4.16,-2.67 6.85,-4.63 8.08,-5.88 0.93,0.31 2.31,1.17 4.16,2.58 1.84,1.42 3.61,3.21 5.3,5.41 1.69,2.19 3.23,4.71 4.62,7.53 1.39,2.82 2.08,6.11 2.08,9.87 0,11.6 -8.85,21.01 -26.54,28.22 -17.7,7.21 -42.55,10.82 -74.55,10.82 -19.09,0 -35.35,-1.96 -48.77,-5.88 -13.43,-3.92 -24.35,-9.33 -32.73,-16.22 -8.38,-6.9 -14.51,-14.82 -18.39,-23.75 -3.88,-8.94 -5.82,-18.42 -5.82,-28.46 0,-11.6 2.08,-21.56 6.23,-29.86 4.16,-8.31 9.93,-15.29 17.31,-20.93 7.39,-5.65 16.23,-10.11 26.55,-13.4 10.3,-3.3 21.61,-5.57 33.92,-6.82 l 36.01,-4.24 c 16.61,-1.88 28.15,-5.1 34.62,-9.64 6.46,-4.55 9.69,-11.21 9.69,-19.99 0,-10.34 -5.08,-17.63 -15.23,-21.86 -10.16,-4.24 -23.24,-6.36 -39.24,-6.36 -12.31,0 -23.7,0.95 -34.16,2.83 -10.46,1.88 -19.77,4.15 -27.93,6.82 -8.15,2.66 -14.99,5.24 -20.54,7.76 -5.53,2.5 -9.39,4.54 -11.53,6.11 z m 375.97,210.69 c -15.54,-6.27 -29,-14.97 -40.39,-26.1 -11.39,-11.13 -20.31,-24.3 -26.77,-39.5 -6.46,-15.22 -9.69,-31.75 -9.69,-49.62 0,-17.56 3.23,-33.94 9.69,-49.15 6.46,-15.21 15.38,-28.38 26.77,-39.5 11.39,-11.14 24.85,-19.92 40.39,-26.34 15.54,-6.42 32.24,-9.64 50.09,-9.64 17.84,0 34.54,3.22 50.08,9.64 15.54,6.42 29,15.2 40.39,26.34 11.38,11.12 20.31,24.29 26.77,39.5 6.47,15.21 9.7,31.59 9.7,49.15 0,17.87 -3.23,34.4 -9.7,49.62 -6.46,15.2 -15.39,28.37 -26.77,39.5 -11.39,11.13 -24.85,19.83 -40.39,26.1 -15.54,6.27 -32.24,9.41 -50.08,9.41 -17.85,0 -34.55,-3.14 -50.09,-9.41 m 20.77,-186.47 c -8.76,3.92 -16.31,9.4 -22.61,16.46 -6.31,7.05 -11.24,15.21 -14.77,24.46 -3.55,9.24 -5.31,19.35 -5.31,30.33 0,10.97 1.76,21.24 5.31,30.8 3.53,9.56 8.46,17.8 14.77,24.69 6.3,6.9 13.85,12.31 22.61,16.23 8.78,3.92 18.54,5.88 29.32,5.88 10.46,0 20.15,-1.96 29.08,-5.88 8.92,-3.92 16.53,-9.33 22.85,-16.23 6.3,-6.89 11.23,-15.13 14.77,-24.69 3.53,-9.56 5.3,-19.83 5.3,-30.8 0,-10.98 -1.77,-21.09 -5.3,-30.33 -3.54,-9.25 -8.47,-17.41 -14.77,-24.46 -6.32,-7.06 -13.93,-12.54 -22.85,-16.46 -8.93,-3.92 -18.62,-5.88 -29.08,-5.88 -10.78,0 -20.54,1.96 -29.32,5.88 m 246.73,-46.8 h 52.62 v 128.87 c 0,21.31 5,37.54 15,48.67 9.99,11.13 25,16.7 45.01,16.7 19.69,0 34.62,-5.57 44.77,-16.7 10.16,-11.13 15.24,-27.36 15.24,-48.67 v -128.87 h 52.62 v 142.5 c 0,15.68 -2.77,29.71 -8.32,42.1 -5.53,12.38 -13.31,22.88 -23.3,31.51 -10.01,8.62 -21.93,15.2 -35.78,19.75 -13.84,4.54 -28.93,6.82 -45.23,6.82 -16.32,0 -31.32,-2.28 -45.01,-6.82 -13.7,-4.55 -25.55,-11.13 -35.54,-19.75 -10.01,-8.63 -17.85,-19.13 -23.54,-31.51 -5.7,-12.39 -8.54,-26.42 -8.54,-42.1 v -142.5"
         style="fill:#ffffff;fill-opacity:1;fill-rule:nonzero;stroke:none"
         id="path24" />
    </g>
  </g>
</svg>
