<?xml version="1.0" encoding="UTF-8" standalone="no"?>
<!-- Created with Inkscape (http://www.inkscape.org/) -->

<svg
   version="1.1"
   id="svg2"
   width="224.17332"
   height="13.946667"
   viewBox="0 0 224.17332 13.946667"
   sodipodi:docname="Submarine Commissioning Group.eps"
   xmlns:inkscape="http://www.inkscape.org/namespaces/inkscape"
   xmlns:sodipodi="http://sodipodi.sourceforge.net/DTD/sodipodi-0.dtd"
   xmlns="http://www.w3.org/2000/svg"
   xmlns:svg="http://www.w3.org/2000/svg">
  <defs
     id="defs6" />
  <sodipodi:namedview
     id="namedview4"
     pagecolor="#ffffff"
     bordercolor="#000000"
     borderopacity="0.25"
     inkscape:showpageshadow="2"
     inkscape:pageopacity="0.0"
     inkscape:pagecheckerboard="0"
     inkscape:deskcolor="#d1d1d1" />
  <g
     id="g8"
     inkscape:groupmode="layer"
     inkscape:label="ink_ext_XXXXXX"
     transform="matrix(1.3333333,0,0,-1.3333333,0,13.946667)">
    <g
       id="g10"
       transform="scale(0.1)">
      <path
         d="M 3.00781,26.3984 C 0.78125,27.2969 0,28.0781 0,30.4102 v 6.4648 c 0,1.1133 0.445313,2.0039 1.78125,2.0039 2.45313,0 6.34766,-5.2344 17.15235,-5.2344 9.1367,0 13.7031,4.0039 13.7031,10.1368 0,4.2304 -2.5586,7.3515 -7.5742,10.3593 L 12.6992,61.3828 C 5.45703,65.5039 1.11328,71.625 1.11328,80.6484 c 0,13.3711 9.24612,19.9416 24.39452,19.9416 5.6836,0 11.3633,-1.0041 16.1524,-3.1173 C 43.668,96.5781 44,95.6875 44,94.0195 v -5.7968 c 0,-1.3321 -0.332,-2.1133 -1.6719,-2.1133 -2.4492,0 -7.0156,4.6758 -16.4843,4.6758 -6.6836,0 -11.4727,-2.6758 -11.4727,-9.0235 0,-4.6758 2.4492,-7.2383 7.7969,-10.3554 l 10.0234,-5.9024 c 9.3555,-5.0156 13.8164,-11.3633 13.8164,-20.7226 0,-13.8125 -8.914,-21.168 -26.289,-21.168 -6.9063,0 -12.81255,1.2305 -16.71099,2.7851"
         style="fill:#2546a0;fill-opacity:1;fill-rule:nonzero;stroke:none"
         id="path12" />
      <path
         d="m 57.6133,45.3359 v 34.0899 c 0,1.3359 0.668,2.0039 2.0039,2.0039 h 9.4687 c 1.2266,0 2.0039,-0.668 2.0039,-2.0039 V 47.125 c 0,-9.2539 2.5625,-13.375 11.25,-13.375 6.0157,0 11.3633,2.3438 11.3633,8.1367 v 37.5391 c 0,1.3359 0.7774,2.0039 2.0039,2.0039 h 9.356 c 1.226,0 2.007,-0.668 2.007,-2.0039 V 26.7383 c 0,-1.2305 -0.554,-1.8945 -1.781,-1.8945 h -9.6913 c -1.1172,0 -1.4454,0.5585 -1.4454,1.3398 0,0.6641 -0.2265,1.1133 -1.121,1.1133 -2.5586,0 -7.5704,-3.2344 -16.3711,-3.2344 -14.4844,0 -19.0469,7.5781 -19.0469,21.2734"
         style="fill:#2546a0;fill-opacity:1;fill-rule:nonzero;stroke:none"
         id="path14" />
      <path
         d="m 164.016,53.8047 c 0,11.6992 -4.453,19.7148 -15.703,19.7148 -6.465,0 -11.032,-2.0039 -11.032,-7.9101 V 39.7656 c 0,-4.6758 6.125,-6.3476 10.692,-6.3476 10.136,0 16.043,7.7929 16.043,20.3867 z m -26.18,-26.293 c -0.887,0 -1.113,-0.5586 -1.113,-1.3281 0,-0.7813 -0.446,-1.3398 -1.668,-1.3398 h -9.469 c -1.008,0 -1.672,0.5585 -1.672,1.7773 v 74.1919 c 0,1.335 0.664,2.003 1.891,2.003 h 9.582 c 1.336,0 1.894,-0.668 1.894,-2.003 V 81.0938 c 0,-1 0.336,-1.3321 1,-1.3321 1.676,0 5.797,3.1133 13.926,3.1133 19.379,0 25.621,-15.0312 25.621,-28.2891 0,-20.2773 -10.695,-30.5234 -26.515,-30.5234 -7.684,0 -11.137,3.4492 -13.477,3.4492"
         style="fill:#2546a0;fill-opacity:1;fill-rule:nonzero;stroke:none"
         id="path16" />
      <path
         d="m 191.113,26.8477 v 52.5781 c 0,1.3359 0.332,2.0039 1.782,2.0039 h 9.468 c 1.227,0 1.559,-0.5547 1.559,-1.3359 0,-0.668 0.223,-1.1133 1.113,-1.1133 2.336,0 5.789,3.8945 15.153,3.8945 6.902,0 11.136,-2.668 13.804,-4.6758 0.559,-0.4453 1.113,-0.8906 1.785,-0.8906 0.668,0 1.118,0.332 2.118,1.0039 3.566,2.2266 8.468,4.5625 16.824,4.5625 15.031,0 18.711,-8.7969 18.711,-22.9414 V 26.8477 c 0,-1.3399 -0.559,-2.0039 -2.008,-2.0039 h -9.356 c -1.339,0 -2.117,0.664 -2.117,2.0039 v 32.9726 c 0,8.4649 -2.117,12.8125 -10.586,12.8125 -5.675,0 -10.468,-1.7812 -10.468,-9.0234 V 26.8477 c 0,-1.3399 -0.668,-2.0039 -2,-2.0039 h -9.473 c -1.332,0 -2,0.664 -2,2.0039 v 32.7461 c 0,8.582 -1.785,13.039 -10.477,13.039 -5.675,0 -10.468,-1.4492 -10.468,-7.6875 V 26.8477 c 0,-1.3399 -0.555,-2.0039 -1.895,-2.0039 h -9.355 c -1.336,0 -2.114,0.664 -2.114,2.0039"
         style="fill:#2546a0;fill-opacity:1;fill-rule:nonzero;stroke:none"
         id="path18" />
      <path
         d="m 318.027,34.4258 c 2.446,1.2187 2.895,2.8906 2.895,5.5664 v 12.6992 c 0,1 -0.336,1.3359 -1.004,1.3359 -0.891,0 -4.234,-0.8906 -9.355,-2.3359 -6.239,-1.7851 -11.918,-3.7891 -11.918,-10.6953 0,-4.793 3.23,-8.582 10.464,-8.582 3.348,0 6.465,0.6718 8.918,2.0117 z m -31.75,6.0156 c 0,12.1367 8.578,16.0391 18.157,18.7109 l 12.367,3.4493 c 3.34,0.8945 4.121,1.5625 4.121,3.5664 v 1.0039 c 0,2.8984 -0.668,6.5742 -9.578,6.5742 -10.364,0 -17.156,-4.1211 -19.719,-4.1211 -1,0 -1.449,0.5547 -1.449,1.8906 v 4.3438 c 0,1.4492 0,2.4531 2.676,3.6758 3.339,1.5586 10.355,3.3398 18.711,3.3398 15.593,0 21.945,-5.5664 21.945,-17.5977 V 26.8477 c 0,-1.2227 -0.559,-2.0039 -2.117,-2.0039 h -8.465 c -1.113,0 -1.559,0.4414 -1.559,1.3398 0,0.9961 -0.336,1.2187 -1,1.2187 -1.781,0 -6.683,-3.3398 -15.82,-3.3398 -11.25,0 -18.27,5.1289 -18.27,16.3789"
         style="fill:#2546a0;fill-opacity:1;fill-rule:nonzero;stroke:none"
         id="path20" />
      <path
         d="m 350.129,26.7383 v 52.7969 c 0,1.2265 0.441,1.8945 1.668,1.8945 h 9.687 c 1.336,0 1.676,-0.4492 1.676,-1.7813 0,-1.0039 0.106,-1.5625 1.113,-1.5625 2.668,0 6.571,4.4571 13.586,4.4571 4.012,0 4.68,-1 4.68,-2.7813 v -7.0234 c 0,-1 -0.445,-1.668 -1.449,-1.668 -1.559,0 -3.117,0.4453 -6.235,0.4453 -7.019,0 -11.363,-3.2304 -11.363,-9.5781 V 26.7383 c 0,-1.2305 -0.558,-1.8945 -1.672,-1.8945 h -10.023 c -1.004,0 -1.668,0.664 -1.668,1.8945"
         style="fill:#2546a0;fill-opacity:1;fill-rule:nonzero;stroke:none"
         id="path22" />
      <path
         d="m 392.027,26.8477 v 52.5781 c 0,1.2226 0.446,2.0039 2,2.0039 h 9.469 c 1.449,0 1.895,-0.7813 1.895,-2.0039 V 26.8477 c 0,-1.3399 -0.668,-2.0039 -1.895,-2.0039 h -9.469 c -1.222,0 -2,0.664 -2,2.0039 z m -1.453,70.7343 c 0,4.453 2.68,7.02 8.133,7.02 5.348,0 8.023,-2.567 8.023,-7.1293 0,-4.3477 -2.675,-6.9102 -8.023,-6.9102 -5.453,0 -8.133,2.4492 -8.133,7.0195"
         style="fill:#2546a0;fill-opacity:1;fill-rule:nonzero;stroke:none"
         id="path24" />
      <path
         d="m 422.559,26.8477 v 52.6875 c 0,1.4453 0.445,1.8945 1.671,1.8945 h 9.797 c 1.114,0 1.453,-0.5547 1.453,-1.4492 0,-0.5547 0.219,-1 1.114,-1 2.449,0 7.57,3.8945 16.148,3.8945 15.262,0 19.27,-7.9023 19.27,-23.168 V 26.8477 c 0,-1.3399 -0.778,-2.0039 -2,-2.0039 h -9.469 c -1.227,0 -2.008,0.664 -2.008,2.0039 v 31.7461 c 0,9.9179 -2.008,14.5937 -11.25,14.5937 -5.57,0 -11.363,-1.6719 -11.363,-6.5703 V 26.8477 c 0,-1.2227 -0.555,-2.0039 -1.895,-2.0039 h -9.464 c -1.227,0 -2.004,0.664 -2.004,2.0039"
         style="fill:#2546a0;fill-opacity:1;fill-rule:nonzero;stroke:none"
         id="path26" />
      <path
         d="m 523.168,59.4883 c 1.227,0 1.449,0.4453 1.449,1.5586 0,5.1211 -2.676,13.0312 -12.586,13.0312 -9.133,0 -13.254,-7.9101 -13.254,-13.1445 0,-1 0.223,-1.4453 1.45,-1.4453 z m -38.426,-6.2422 c 0,18.3789 10.024,29.6289 27.403,29.6289 17.039,0 25.73,-9.9102 25.73,-29.2891 0,-1.8945 -0.449,-2.5664 -2.117,-2.5664 h -35.531 c -1.45,0 -1.672,-0.5547 -1.672,-2.3359 0,-12.0313 9.355,-15.0391 18.156,-15.0391 9.691,0 14.148,3.4453 16.488,3.4453 1,0 1.332,-0.664 1.332,-1.8828 v -5.2461 c 0,-1.3281 -0.332,-2.1093 -2.113,-2.8906 -3.008,-1.4453 -9.469,-3.0078 -16.82,-3.0078 -19.051,0 -30.856,8.1367 -30.856,29.1836"
         style="fill:#2546a0;fill-opacity:1;fill-rule:nonzero;stroke:none"
         id="path28" />
      <path
         d="m 573.555,60.6016 c 0,25.1718 13.371,39.9884 38.425,39.9884 6.016,0 12.036,-1.3361 16.266,-3.008 2.008,-0.6679 2.453,-1.3359 2.453,-3.2304 v -6.9063 c 0,-1.5625 -0.34,-2.1172 -1.453,-2.1172 -1.668,0 -7.348,4.6758 -17.039,4.6758 -14.926,0 -23.949,-10.2422 -23.949,-28.8476 0,-17.1524 8.242,-26.9571 23.617,-26.9571 11.023,0 15.48,5.0117 17.598,5.0117 1,0 1.226,-0.664 1.226,-1.5625 v -7.0117 c 0,-2.1211 -0.558,-2.9023 -3.453,-4.1211 -4.016,-1.789 -10.691,-2.9023 -17.601,-2.9023 -23.614,0 -36.09,13.7031 -36.09,36.9883"
         style="fill:#2546a0;fill-opacity:1;fill-rule:nonzero;stroke:none"
         id="path30" />
      <path
         d="m 681.184,53.5859 c 0,13.3633 -4.461,19.9336 -14.149,19.9336 -10.25,0 -14.48,-7.0156 -14.48,-19.9336 0,-13.5937 4.562,-20.1679 14.371,-20.1679 9.465,0 14.258,6.5742 14.258,20.1679 z m -42.332,0 c 0,16.8164 8.468,29.2891 28.183,29.2891 18.711,0 27.848,-11.3594 27.848,-29.2891 0,-17.2656 -8.356,-29.5234 -27.957,-29.5234 -19.719,0 -28.074,11.9141 -28.074,29.5234"
         style="fill:#2546a0;fill-opacity:1;fill-rule:nonzero;stroke:none"
         id="path32" />
      <path
         d="m 708.168,26.8477 v 52.5781 c 0,1.3359 0.332,2.0039 1.781,2.0039 h 9.469 c 1.227,0 1.559,-0.5547 1.559,-1.3359 0,-0.668 0.222,-1.1133 1.113,-1.1133 2.34,0 5.793,3.8945 15.152,3.8945 6.903,0 11.137,-2.668 13.809,-4.6758 0.554,-0.4453 1.117,-0.8906 1.781,-0.8906 0.668,0 1.113,0.332 2.117,1.0039 3.567,2.2266 8.469,4.5625 16.821,4.5625 15.039,0 18.714,-8.7969 18.714,-22.9414 V 26.8477 c 0,-1.3399 -0.558,-2.0039 -2.007,-2.0039 h -9.356 c -1.34,0 -2.113,0.664 -2.113,2.0039 v 32.9726 c 0,8.4649 -2.121,12.8125 -10.582,12.8125 -5.684,0 -10.473,-1.7812 -10.473,-9.0234 V 26.8477 c 0,-1.3399 -0.672,-2.0039 -2.008,-2.0039 h -9.468 c -1.332,0 -2,0.664 -2,2.0039 v 32.7461 c 0,8.582 -1.786,13.039 -10.473,13.039 -5.68,0 -10.473,-1.4492 -10.473,-7.6875 V 26.8477 c 0,-1.3399 -0.554,-2.0039 -1.89,-2.0039 h -9.36 c -1.336,0 -2.113,0.664 -2.113,2.0039"
         style="fill:#2546a0;fill-opacity:1;fill-rule:nonzero;stroke:none"
         id="path34" />
      <path
         d="m 807.117,26.8477 v 52.5781 c 0,1.3359 0.332,2.0039 1.785,2.0039 h 9.465 c 1.227,0 1.559,-0.5547 1.559,-1.3359 0,-0.668 0.226,-1.1133 1.113,-1.1133 2.34,0 5.793,3.8945 15.152,3.8945 6.907,0 11.133,-2.668 13.809,-4.6758 0.559,-0.4453 1.117,-0.8906 1.793,-0.8906 0.664,0 1.113,0.332 2.109,1.0039 3.563,2.2266 8.465,4.5625 16.825,4.5625 15.039,0 18.711,-8.7969 18.711,-22.9414 V 26.8477 c 0,-1.3399 -0.555,-2.0039 -2,-2.0039 h -9.356 c -1.34,0 -2.121,0.664 -2.121,2.0039 v 32.9726 c 0,8.4649 -2.117,12.8125 -10.586,12.8125 -5.672,0 -10.469,-1.7812 -10.469,-9.0234 V 26.8477 c 0,-1.3399 -0.664,-2.0039 -2,-2.0039 h -9.476 c -1.336,0 -2.004,0.664 -2.004,2.0039 v 32.7461 c 0,8.582 -1.781,13.039 -10.473,13.039 -5.68,0 -10.469,-1.4492 -10.469,-7.6875 V 26.8477 c 0,-1.3399 -0.558,-2.0039 -1.894,-2.0039 h -9.356 c -1.339,0 -2.117,0.664 -2.117,2.0039"
         style="fill:#2546a0;fill-opacity:1;fill-rule:nonzero;stroke:none"
         id="path36" />
      <path
         d="m 906.078,26.8477 v 52.5781 c 0,1.2226 0.449,2.0039 2.012,2.0039 h 9.465 c 1.445,0 1.894,-0.7813 1.894,-2.0039 V 26.8477 c 0,-1.3399 -0.664,-2.0039 -1.894,-2.0039 h -9.465 c -1.231,0 -2.012,0.664 -2.012,2.0039 z m -1.445,70.7343 c 0,4.453 2.676,7.02 8.137,7.02 5.339,0 8.015,-2.567 8.015,-7.1293 0,-4.3477 -2.676,-6.9102 -8.015,-6.9102 -5.461,0 -8.137,2.4492 -8.137,7.0195"
         style="fill:#2546a0;fill-opacity:1;fill-rule:nonzero;stroke:none"
         id="path38" />
      <path
         d="m 935.941,26.0664 c -2.117,0.7813 -3.125,1.5625 -3.125,3.5625 v 5.6836 c 0,1.2227 0.567,1.7773 1.563,1.7773 2.121,0 5.793,-3.8945 14.707,-3.8945 6.242,0 9.465,2.1172 9.465,6.2383 0,3.5664 -2.11,5.2383 -8.02,8.5781 l -6.679,4.0117 c -6.465,3.7891 -9.911,7.6836 -9.911,14.6993 0,9.4726 6.571,16.1523 20.379,16.1523 5.012,0 9.024,-0.7734 12.258,-2 2.559,-1.1133 3.113,-1.7812 3.113,-3.6758 v -5.2344 c 0,-1.1132 -0.332,-1.7851 -1.445,-1.7851 -1.785,0 -5.683,3.8984 -13.035,3.8984 -5.793,0 -8.352,-2.3398 -8.352,-5.7929 0,-3.1172 2.227,-5.3438 6.575,-7.9102 l 6.453,-3.7812 c 9.023,-4.9024 11.144,-9.25 11.144,-15.1563 0,-10.8008 -6.347,-17.375 -21.504,-17.375 -5.343,0 -10.468,1.0078 -13.586,2.0039"
         style="fill:#2546a0;fill-opacity:1;fill-rule:nonzero;stroke:none"
         id="path40" />
      <path
         d="m 983.082,26.0664 c -2.121,0.7813 -3.125,1.5625 -3.125,3.5625 v 5.6836 c 0,1.2227 0.555,1.7773 1.563,1.7773 2.117,0 5.789,-3.8945 14.707,-3.8945 6.243,0 9.463,2.1172 9.463,6.2383 0,3.5664 -2.11,5.2383 -8.018,8.5781 l -6.68,4.0117 c -6.465,3.7891 -9.914,7.6836 -9.914,14.6993 0,9.4726 6.563,16.1523 20.382,16.1523 5.01,0 9.02,-0.7734 12.26,-2 2.55,-1.1133 3.11,-1.7812 3.11,-3.6758 v -5.2344 c 0,-1.1132 -0.33,-1.7851 -1.44,-1.7851 -1.79,0 -5.69,3.8984 -13.04,3.8984 -5.791,0 -8.35,-2.3398 -8.35,-5.7929 0,-3.1172 2.227,-5.3438 6.57,-7.9102 l 6.46,-3.7812 c 9.02,-4.9024 11.14,-9.25 11.14,-15.1563 0,-10.8008 -6.35,-17.375 -21.506,-17.375 -5.34,0 -10.469,1.0078 -13.582,2.0039"
         style="fill:#2546a0;fill-opacity:1;fill-rule:nonzero;stroke:none"
         id="path42" />
      <path
         d="m 1030.88,26.8477 v 52.5781 c 0,1.2226 0.45,2.0039 2.02,2.0039 h 9.46 c 1.44,0 1.89,-0.7813 1.89,-2.0039 V 26.8477 c 0,-1.3399 -0.66,-2.0039 -1.89,-2.0039 h -9.46 c -1.23,0 -2.02,0.664 -2.02,2.0039 z m -1.44,70.7343 c 0,4.453 2.67,7.02 8.13,7.02 5.35,0 8.02,-2.567 8.02,-7.1293 0,-4.3477 -2.67,-6.9102 -8.02,-6.9102 -5.46,0 -8.13,2.4492 -8.13,7.0195"
         style="fill:#2546a0;fill-opacity:1;fill-rule:nonzero;stroke:none"
         id="path44" />
      <path
         d="m 1099.84,53.5859 c 0,13.3633 -4.45,19.9336 -14.14,19.9336 -10.26,0 -14.48,-7.0156 -14.48,-19.9336 0,-13.5937 4.57,-20.1679 14.36,-20.1679 9.47,0 14.26,6.5742 14.26,20.1679 z m -42.33,0 c 0,16.8164 8.47,29.2891 28.19,29.2891 18.71,0 27.84,-11.3594 27.84,-29.2891 0,-17.2656 -8.35,-29.5234 -27.96,-29.5234 -19.71,0 -28.07,11.9141 -28.07,29.5234"
         style="fill:#2546a0;fill-opacity:1;fill-rule:nonzero;stroke:none"
         id="path46" />
      <path
         d="m 1126.82,26.8477 v 52.6875 c 0,1.4453 0.45,1.8945 1.67,1.8945 h 9.81 c 1.11,0 1.44,-0.5547 1.44,-1.4492 0,-0.5547 0.23,-1 1.11,-1 2.46,0 7.58,3.8945 16.16,3.8945 15.26,0 19.27,-7.9023 19.27,-23.168 V 26.8477 c 0,-1.3399 -0.78,-2.0039 -2.01,-2.0039 h -9.46 c -1.23,0 -2.01,0.664 -2.01,2.0039 v 31.7461 c 0,9.9179 -2,14.5937 -11.25,14.5937 -5.57,0 -11.36,-1.6719 -11.36,-6.5703 V 26.8477 c 0,-1.2227 -0.56,-2.0039 -1.89,-2.0039 h -9.47 c -1.23,0 -2.01,0.664 -2.01,2.0039"
         style="fill:#2546a0;fill-opacity:1;fill-rule:nonzero;stroke:none"
         id="path48" />
      <path
         d="m 1192.91,26.8477 v 52.5781 c 0,1.2226 0.44,2.0039 2.01,2.0039 h 9.46 c 1.45,0 1.89,-0.7813 1.89,-2.0039 V 26.8477 c 0,-1.3399 -0.66,-2.0039 -1.89,-2.0039 h -9.46 c -1.23,0 -2.01,0.664 -2.01,2.0039 z m -1.45,70.7343 c 0,4.453 2.68,7.02 8.13,7.02 5.35,0 8.02,-2.567 8.02,-7.1293 0,-4.3477 -2.67,-6.9102 -8.02,-6.9102 -5.45,0 -8.13,2.4492 -8.13,7.0195"
         style="fill:#2546a0;fill-opacity:1;fill-rule:nonzero;stroke:none"
         id="path50" />
      <path
         d="m 1223.43,26.8477 v 52.6875 c 0,1.4453 0.45,1.8945 1.67,1.8945 h 9.81 c 1.11,0 1.44,-0.5547 1.44,-1.4492 0,-0.5547 0.23,-1 1.12,-1 2.45,0 7.57,3.8945 16.15,3.8945 15.26,0 19.28,-7.9023 19.28,-23.168 V 26.8477 c 0,-1.3399 -0.79,-2.0039 -2.02,-2.0039 h -9.46 c -1.23,0 -2,0.664 -2,2.0039 v 31.7461 c 0,9.9179 -2.01,14.5937 -11.26,14.5937 -5.57,0 -11.36,-1.6719 -11.36,-6.5703 V 26.8477 c 0,-1.2227 -0.55,-2.0039 -1.89,-2.0039 h -9.47 c -1.23,0 -2.01,0.664 -2.01,2.0039"
         style="fill:#2546a0;fill-opacity:1;fill-rule:nonzero;stroke:none"
         id="path52" />
      <path
         d="m 1326.06,42.1094 v 24.2812 c 0,4.6797 -4.69,7.1289 -10.81,7.1289 -9.25,0 -15.82,-5.789 -15.82,-20.2734 0,-11.8086 4.46,-19.1641 15.15,-19.1641 5.8,0 11.48,2.3438 11.48,8.0274 z M 1291.97,2.90234 c -2.89,1.11329 -3.57,2 -3.57,4.22657 v 5.12889 c 0,1.5625 0.56,2.332 1.79,2.332 2.33,0 7.79,-4.4531 19.27,-4.4531 4.78,0 9.25,0.7813 12.48,3.1172 2.89,2.1172 4.12,5.6836 4.12,9.9219 v 3.7773 c 0,0.8985 -0.23,1.4571 -1.01,1.4571 -1.56,0 -5.35,-3.5664 -14.59,-3.5664 -15.92,0 -24.84,10.6953 -24.84,28.2929 0,19.4961 10.8,29.7383 25.84,29.7383 8.8,0 11.7,-3.6719 14.15,-3.6719 0.66,0 0.89,0.2227 1.01,1.0039 0,0.7735 0.33,1.2227 1.22,1.2227 h 9.35 c 1.23,0 1.67,-0.668 1.67,-1.7813 V 26.2891 c 0,-8.6914 -0.78,-14.0313 -4.56,-18.26957 C 1328.95,2.00391 1319.7,0 1310.35,0 c -8.02,0 -14.49,1.5625 -18.38,2.90234"
         style="fill:#2546a0;fill-opacity:1;fill-rule:nonzero;stroke:none"
         id="path54" />
      <path
         d="m 1378.68,61.2695 c 0,24.8399 14.81,39.3205 39.87,39.3205 7.35,0 12.7,-0.8908 17.49,-2.6759 3.01,-1.1133 3.45,-1.8946 3.45,-3.2305 v -7.4609 c 0,-1.2266 -0.23,-1.7813 -1.34,-1.7813 -2,0 -7.79,4.7891 -18.71,4.7891 -17.15,0 -26.29,-11.25 -26.29,-29.1836 0,-17.043 9.14,-26.9649 24.95,-26.9649 5.35,0 7.91,1.3399 7.91,2.9024 v 22.1679 c 0,1.1133 0.56,1.668 1.9,1.668 h 10.13 c 1.22,0 1.79,-0.5547 1.79,-1.668 V 30.1875 c 0,-1.7773 -0.67,-3.1172 -5.46,-4.3477 -4.01,-1.3281 -10.03,-2.332 -16.38,-2.332 -24.95,0 -39.31,13.4766 -39.31,37.7617"
         style="fill:#2546a0;fill-opacity:1;fill-rule:nonzero;stroke:none"
         id="path56" />
      <path
         d="m 1455.11,26.7383 v 52.7969 c 0,1.2265 0.45,1.8945 1.67,1.8945 h 9.7 c 1.34,0 1.67,-0.4492 1.67,-1.7813 0,-1.0039 0.11,-1.5625 1.11,-1.5625 2.68,0 6.57,4.4571 13.59,4.4571 4.01,0 4.67,-1 4.67,-2.7813 v -7.0234 c 0,-1 -0.44,-1.668 -1.44,-1.668 -1.55,0 -3.12,0.4453 -6.24,0.4453 -7.01,0 -11.36,-3.2304 -11.36,-9.5781 V 26.7383 c 0,-1.2305 -0.56,-1.8945 -1.67,-1.8945 h -10.03 c -0.99,0 -1.67,0.664 -1.67,1.8945"
         style="fill:#2546a0;fill-opacity:1;fill-rule:nonzero;stroke:none"
         id="path58" />
      <path
         d="m 1534.88,53.5859 c 0,13.3633 -4.46,19.9336 -14.14,19.9336 -10.26,0 -14.49,-7.0156 -14.49,-19.9336 0,-13.5937 4.58,-20.1679 14.37,-20.1679 9.47,0 14.26,6.5742 14.26,20.1679 z m -42.33,0 c 0,16.8164 8.47,29.2891 28.19,29.2891 18.71,0 27.84,-11.3594 27.84,-29.2891 0,-17.2656 -8.35,-29.5234 -27.96,-29.5234 -19.71,0 -28.07,11.9141 -28.07,29.5234"
         style="fill:#2546a0;fill-opacity:1;fill-rule:nonzero;stroke:none"
         id="path60" />
      <path
         d="m 1560.97,45.3359 v 34.0899 c 0,1.3359 0.67,2.0039 2,2.0039 h 9.48 c 1.22,0 2,-0.668 2,-2.0039 V 47.125 c 0,-9.2539 2.57,-13.375 11.25,-13.375 6.01,0 11.37,2.3438 11.37,8.1367 v 37.5391 c 0,1.3359 0.77,2.0039 2,2.0039 h 9.35 c 1.23,0 2,-0.668 2,-2.0039 V 26.7383 c 0,-1.2305 -0.55,-1.8945 -1.77,-1.8945 h -9.69 c -1.12,0 -1.46,0.5585 -1.46,1.3398 0,0.6641 -0.22,1.1133 -1.11,1.1133 -2.56,0 -7.57,-3.2344 -16.37,-3.2344 -14.48,0 -19.05,7.5781 -19.05,21.2734"
         style="fill:#2546a0;fill-opacity:1;fill-rule:nonzero;stroke:none"
         id="path62" />
      <path
         d="m 1667.5,53.6914 c 0,12.2578 -4.68,19.8281 -15.93,19.8281 -5.79,0 -10.92,-1.6679 -10.92,-6.9023 V 39.7656 c 0,-5.0078 5.68,-6.3476 10.69,-6.3476 10.03,0 16.16,6.3476 16.16,20.2734 z M 1627.28,3.45703 V 79.5352 c 0,1.2265 0.34,1.8945 1.46,1.8945 h 9.91 c 1.11,0 1.44,-0.3359 1.44,-1.1133 0,-0.7812 0.23,-1.1133 1.01,-1.1133 2.45,0 6.35,3.6719 14.59,3.6719 19.49,0 25.61,-15.1445 25.61,-29.1836 0,-20.0469 -10.69,-29.6289 -26.39,-29.6289 -8.69,0 -11.81,3.2344 -13.37,3.2344 -0.78,0 -0.89,-0.5586 -0.89,-1.3399 V 3.45703 c 0,-1.45312 -0.66,-2.01172 -1.78,-2.01172 h -9.7 c -1.22,0 -1.89,0.5586 -1.89,2.01172"
         style="fill:#2546a0;fill-opacity:1;fill-rule:nonzero;stroke:none"
         id="path64" />
    </g>
  </g>
</svg>
