<?xml version="1.0" encoding="UTF-8" standalone="no"?>
<!-- Created with Inkscape (http://www.inkscape.org/) -->

<svg
   version="1.1"
   id="svg2"
   width="323.06668"
   height="185.14667"
   viewBox="0 0 323.06668 185.14667"
   sodipodi:docname="25012893683 - RB_YPN wording.eps"
   xmlns:inkscape="http://www.inkscape.org/namespaces/inkscape"
   xmlns:sodipodi="http://sodipodi.sourceforge.net/DTD/sodipodi-0.dtd"
   xmlns="http://www.w3.org/2000/svg"
   xmlns:svg="http://www.w3.org/2000/svg">
  <defs
     id="defs6" />
  <sodipodi:namedview
     id="namedview4"
     pagecolor="#ffffff"
     bordercolor="#000000"
     borderopacity="0.25"
     inkscape:showpageshadow="2"
     inkscape:pageopacity="0.0"
     inkscape:pagecheckerboard="0"
     inkscape:deskcolor="#d1d1d1" />
  <g
     id="g8"
     inkscape:groupmode="layer"
     inkscape:label="ink_ext_XXXXXX"
     transform="matrix(1.3333333,0,0,-1.3333333,0,185.14667)">
    <g
       id="g10"
       transform="scale(0.1)">
      <path
         d="m 125.535,1261.14 c 17.805,33.62 38.922,72.72 63.266,117.34 2.875,5.31 6.32,8.22 10.25,8.8 11.797,1.63 23.504,1.72 35.125,0.22 1.371,-0.18 2.429,-1.37 2.429,-2.79 0,-5.48 -1.632,-10.78 -4.949,-15.86 -5.742,-8.92 -32.605,-55.97 -80.629,-141.11 -2.519,-4.47 -3.843,-9.5 -3.886,-14.63 -0.223,-33.71 -0.446,-68.57 -0.664,-104.66 -0.043,-5.7 -1.766,-9.28 -5.258,-10.78 -7.778,-3.31 -30.707,-2.17 -38.969,-1.28 -3.9766,0.4 -7.0234,3.75 -7.0234,7.77 0.0429,32.74 -0.0899,65.83 -0.4883,99.23 -0.086,8.22 -2.5156,16.31 -7.2422,24.22 -9.3672,15.68 -36.6289,62.82 -81.73829,141.42 -2.73828,4.77 -4.59375,8.97 -5.609372,12.63 -0.664063,2.48 0.972652,5 3.488282,5.35 10.47268,1.46 23.10938,1.9 37.95308,1.33 6.2735,-0.22 11,-3.14 14.1368,-8.8 24.2578,-43.29 46.2144,-82.79 65.9184,-118.45 0.839,-1.54 3.05,-1.5 3.89,0.05 v 0"
         style="fill:#e60d86;fill-opacity:1;fill-rule:nonzero;stroke:none"
         id="path12" />
      <path
         d="m 782.113,1312.17 c 0.926,-1.19 2.121,-1.68 3.621,-1.42 12.68,1.95 30.532,9.15 44.844,10.56 35.301,3.49 79.305,-6.8 88.274,-47.22 3.05,-13.61 4.507,-27.97 4.418,-42.95 -0.262,-68.44 -0.352,-107.45 -0.262,-117.04 0.043,-4.59 -0.574,-9.67 -1.86,-15.19 -0.308,-1.33 -1.5,-2.26 -2.871,-2.26 l -39.543,-0.09 c -1.988,0 -3.222,0.93 -3.796,2.79 -1.372,4.42 -2.036,11.88 -2.036,22.44 0,65.21 -0.086,107.45 -0.351,126.8 -0.531,38.39 -40.602,41.71 -69.586,33.4 -20.102,-5.74 -17.848,-17.54 -17.848,-37.38 0.086,-60.61 0,-107.53 -0.265,-140.76 -0.043,-4.85 -2.473,-7.29 -7.336,-7.29 l -33.93,-0.04 c -5.125,-0.04 -7.688,2.52 -7.688,7.64 l -0.265,206.06 c 0,4.55 2.254,6.81 6.847,6.81 l 32.829,0.04 c 2.031,0 3.668,-0.79 4.859,-2.38 l 1.945,-2.52 v 0"
         style="fill:#e60d86;fill-opacity:1;fill-rule:nonzero;stroke:none"
         id="path14" />
      <path
         d="m 633.309,1101.42 c -0.926,1.2 -2.121,1.68 -3.621,1.46 -12.727,-1.99 -30.665,-9.23 -45.02,-10.6 -35.391,-3.54 -79.57,6.76 -88.586,47.36 -3.047,13.65 -4.551,28.01 -4.461,43.08 0.266,68.7 0.352,107.84 0.266,117.43 -0.09,4.64 0.531,9.76 1.808,15.29 0.356,1.32 1.547,2.25 2.918,2.29 l 39.676,0.05 c 1.988,0 3.27,-0.93 3.844,-2.78 1.324,-4.42 2.031,-11.93 1.984,-22.54 0.047,-65.43 0.18,-107.84 0.446,-127.24 0.527,-38.57 40.734,-41.84 69.847,-33.49 20.149,5.75 17.895,17.59 17.852,37.51 -0.09,60.84 0,107.94 0.265,141.3 0.043,4.85 2.473,7.28 7.332,7.28 l 34.067,0.05 c 5.125,0.04 7.73,-2.52 7.73,-7.69 l 0.309,-206.77 c 0,-4.55 -2.297,-6.85 -6.848,-6.85 l -32.961,-0.04 c -2.074,0 -3.664,0.8 -4.902,2.39 l -1.945,2.51 v 0"
         style="fill:#e60d86;fill-opacity:1;fill-rule:nonzero;stroke:none"
         id="path16" />
      <path
         d="m 342.289,1127.98 c -47.98,0.22 -56.816,41.53 -56.641,79.43 0.176,37.91 9.411,79.13 57.391,78.91 48.024,-0.22 56.816,-41.53 56.641,-79.44 -0.176,-37.9 -9.367,-79.12 -57.391,-78.9 z m 13.09,193.25 -18.816,0.52 c -54.45,1.51 -99.868,-41.39 -101.372,-95.86 l -0.882,-31.62 c -1.504,-54.45 41.398,-99.87 95.863,-101.38 l 18.812,-0.52 c 54.45,-1.51 99.868,41.4 101.371,95.86 l 0.883,31.63 c 1.504,54.44 -41.398,99.86 -95.859,101.37"
         style="fill:#e60d86;fill-opacity:1;fill-rule:nonzero;stroke:none"
         id="path18" />
      <path
         d="m 1096.64,1132.7 -19.44,-0.04 c -32.87,-0.04 -59.56,27.22 -59.6,60.88 l -0.09,31.1 c -0.04,33.67 26.55,61.02 59.42,61.06 l 19.44,0.05 c 14.1,0.04 25.5,-11.36 25.54,-25.45 l 0.18,-102.06 c 0.04,-14.09 -11.36,-25.49 -25.45,-25.54 z m 74.62,179.87 c -0.04,2.25 -1.72,4.11 -3.98,4.37 -11.75,1.24 -32.65,3.14 -43.69,-4.81 -1.11,-0.8 -2.48,-0.98 -3.76,-0.58 -21.34,7.2 -35.87,10.74 -43.56,10.65 -58.8,-0.58 -94.633,-26.86 -107.45,-78.86 -4.55,-18.65 -4.593,-45.87 -1.414,-63.76 8.352,-47.28 35.564,-74.71 81.734,-82.26 24.26,-4.03 47.67,-0.44 70.25,10.73 0.97,0.49 2.17,-0.13 2.3,-1.19 1.37,-9.5 -0.18,-23.95 -1.77,-32.47 -7.33,-39.1 -74.58,-32.75 -100.33,-24.22 -4.55,1.51 -15.03,5.39 -31.418,11.67 -7.774,2.96 -11.66,0.26 -11.66,-8.04 v -16.13 c 0,-7.42 3.312,-12.77 9.984,-15.99 31.104,-15.2 73.344,-16.53 108.374,-11.27 54.43,8.18 76.66,37.02 76.83,91.37 0.22,81.07 0.09,151.36 -0.44,210.79"
         style="fill:#e60d86;fill-opacity:1;fill-rule:nonzero;stroke:none"
         id="path20" />
      <path
         d="m 712.836,773.906 h 36.98 c 5.524,0 8.305,-2.781 8.305,-8.304 v -17.364 c 0,-6.406 -3.226,-9.633 -9.633,-9.633 h -37.859 c -0.664,0 -1.238,-0.527 -1.238,-1.191 V 561.926 c 0,-5.965 -2.961,-8.922 -8.926,-8.922 h -32.297 c -4.063,0 -7.379,3.312 -7.379,7.375 v 174.828 c 0,1.856 -1.5,3.356 -3.355,3.356 h -22.579 c -6.23,0 -9.367,3.136 -9.367,9.41 v 17.453 c 0,5.609 2.785,8.394 8.395,8.394 h 22.976 c 3.047,0 4.504,1.5 4.286,4.551 -2.473,35.965 -1.989,75.945 40.25,86.02 15.726,3.754 32.25,3.535 49.613,-0.664 6.629,-1.59 9.941,-5.786 9.941,-12.59 v -15.731 c 0,-7.332 -3.625,-10.379 -10.824,-9.187 -3.621,0.574 -7.332,1.547 -11.18,2.871 -15.019,5.215 -27.609,0.707 -28.804,-17.539 -0.664,-10.207 -0.793,-21.781 -0.356,-34.684 0.047,-1.988 1.063,-2.961 3.051,-2.961 v 0"
         style="fill:#42b43b;fill-opacity:1;fill-rule:nonzero;stroke:none"
         id="path22" />
      <path
         d="m 1422.44,835.266 c 0.83,-13.289 -9.24,-24.731 -22.52,-25.543 l -10.4,-0.657 c -13.26,-0.828 -24.7,9.243 -25.55,22.52 l -0.31,5.027 c -0.83,13.285 9.24,24.731 22.52,25.543 l 10.4,0.653 c 13.26,0.832 24.7,-9.243 25.55,-22.516 l 0.31,-5.027 v 0"
         style="fill:#42b43b;fill-opacity:1;fill-rule:nonzero;stroke:none"
         id="path24" />
      <path
         d="m 2237.4,561.262 c 0,-4.504 -3.67,-8.172 -8.18,-8.172 h -33.13 c -4.51,0 -8.17,3.668 -8.17,8.172 v 293.277 c 0,4.508 3.66,8.172 8.17,8.172 h 33.13 c 4.51,0 8.18,-3.664 8.18,-8.172 v -293.277 0"
         style="fill:#42b43b;fill-opacity:1;fill-rule:nonzero;stroke:none"
         id="path26" />
      <path
         d="M 166.754,747.047 C 166.801,723.23 145.328,703.879 118.73,703.836 L 86.082,703.75 c -0.664,0 -1.2382,0.57 -1.2382,1.234 L 84.668,807.926 c 0,0.707 0.5273,1.238 1.2343,1.238 l 32.6527,0.09 c 26.55,0.043 48.156,-19.219 48.199,-43.035 z m 13.301,87.168 c -12.594,6.496 -33.137,9.984 -61.633,10.515 -12.195,0.219 -34.0626,0.176 -65.6095,-0.089 -6.3633,-0.043 -11.707,-0.575 -16.0391,-1.676 -3.2695,-0.84 -4.9023,-2.918 -4.9023,-6.277 V 562.676 c 0,-6.406 3.2227,-9.629 9.6289,-9.629 h 33.9766 c 6.1406,0 9.2343,3.09 9.2343,9.234 v 104.442 c 0,0.754 0.6172,1.371 1.3243,1.328 11.9726,-0.356 24.1678,-0.356 36.5818,0 45.551,1.367 84.254,21.117 95.254,67.465 9.192,38.523 -1.457,79.922 -37.816,98.699"
         style="fill:#42b43b;fill-opacity:1;fill-rule:nonzero;stroke:none"
         id="path28" />
      <path
         d="m 300.227,762.906 c 0.089,-1.015 1.195,-1.679 2.121,-1.234 21.117,9.719 41.265,20.851 66.449,15.461 6.141,-1.324 9.234,-5.125 9.234,-11.399 V 748.02 c 0,-6.762 -3.359,-9.676 -10.031,-8.84 -21.559,2.695 -63.707,12.019 -64.945,-21.649 -0.664,-18.113 -0.926,-70.601 -0.797,-157.418 0,-3.929 -3.223,-7.109 -7.156,-7.109 h -33.313 c -5.035,0 -9.144,4.062 -9.144,9.098 v 204.382 c 0,3.934 3.179,7.114 7.156,7.161 l 35.301,0.128 c 1.015,0 2.031,-0.793 3.093,-2.382 1.016,-1.59 1.723,-4.418 2.032,-8.485 v 0"
         style="fill:#42b43b;fill-opacity:1;fill-rule:nonzero;stroke:none"
         id="path30" />
      <path
         d="m 1065.36,738.387 c -16.13,-6.938 -7.25,-30.664 3.13,-37.465 27,-17.672 43.61,-28.496 49.93,-32.43 24.26,-15.285 35.79,-40.16 29.29,-68.793 -12.59,-55.844 -81.56,-58.937 -126.58,-44.222 -10.82,3.535 -16.21,11 -16.21,22.355 v 10.207 c 0,11.84 5.39,15.328 16.21,10.512 14.14,-6.317 23.82,-10.336 28.99,-12.106 15.33,-5.125 41.75,-4.019 48.37,15.114 4.42,12.812 0.31,23.855 -12.37,33.089 -1.81,1.282 -16.7,10.649 -44.58,28.055 -20.72,12.945 -31.5,31.504 -32.25,55.668 -2.07,65.168 83.28,69.586 125.3,50.192 8.26,-3.844 11.88,-10.25 10.96,-19.309 l -1.37,-12.945 c -0.97,-9.411 -5.75,-12.149 -14.36,-8.129 -21.96,10.293 -40.12,20.633 -64.46,10.207 v 0"
         style="fill:#42b43b;fill-opacity:1;fill-rule:nonzero;stroke:none"
         id="path32" />
      <path
         d="m 1241.86,701.008 c 26.95,-17.715 43.56,-28.582 49.84,-32.516 24.25,-15.332 35.74,-40.25 29.2,-68.879 -12.72,-55.843 -81.69,-58.804 -126.71,-44.004 -10.78,3.579 -16.17,11.043 -16.17,22.399 l 0.04,10.207 c 0,11.84 5.44,15.332 16.22,10.469 14.14,-6.317 23.77,-10.383 28.98,-12.149 15.33,-5.125 41.75,-4.109 48.38,15.024 4.46,12.812 0.35,23.855 -12.28,33.132 -1.81,1.282 -16.66,10.696 -44.54,28.145 -20.72,12.945 -31.45,31.547 -32.16,55.715 -1.94,65.211 83.41,69.453 125.43,49.969 8.22,-3.844 11.88,-10.297 10.91,-19.309 l -1.41,-12.945 c -0.97,-9.453 -5.79,-12.149 -14.36,-8.129 -21.96,10.336 -40.07,20.718 -64.46,10.336 -16.13,-6.891 -7.29,-30.66 3.09,-37.465 v 0"
         style="fill:#42b43b;fill-opacity:1;fill-rule:nonzero;stroke:none"
         id="path34" />
      <path
         d="m 1771.11,767.504 c 12.68,1.941 30.57,9.144 44.89,10.512 35.3,3.449 79.35,-6.891 88.27,-47.364 3.01,-13.648 4.46,-27.964 4.38,-42.984 -0.36,-68.484 -0.49,-107.496 -0.45,-117.082 0.05,-4.641 -0.57,-9.719 -1.85,-15.242 -0.36,-1.324 -1.5,-2.254 -2.87,-2.254 h -39.59 c -1.99,0 -3.23,0.93 -3.8,2.785 -1.37,4.371 -2.03,11.883 -1.99,22.441 0.09,65.258 0,107.539 -0.22,126.891 -0.48,38.438 -40.56,41.793 -69.58,33.488 -20.11,-5.699 -17.9,-17.496 -17.9,-37.379 0,-60.66 -0.13,-107.578 -0.44,-140.847 -0.04,-4.86 -2.52,-7.289 -7.33,-7.289 h -33.98 c -5.12,0 -7.69,2.562 -7.69,7.687 v 206.192 c 0,4.55 2.3,6.804 6.85,6.804 h 32.87 c 2.04,0 3.67,-0.797 4.86,-2.386 l 1.95,-2.516 c 0.92,-1.195 2.12,-1.68 3.62,-1.457 v 0"
         style="fill:#42b43b;fill-opacity:1;fill-rule:nonzero;stroke:none"
         id="path36" />
      <path
         d="m 2341.89,700.965 c 26.99,-17.672 43.65,-28.453 49.97,-32.383 24.25,-15.289 35.83,-40.164 29.33,-68.793 -12.55,-55.844 -81.47,-58.98 -126.53,-44.312 -10.78,3.535 -16.22,10.957 -16.22,22.312 v 10.203 c -0.04,11.844 5.39,15.375 16.17,10.559 14.19,-6.317 23.82,-10.336 29.03,-12.106 15.33,-5.078 41.75,-3.972 48.33,15.157 4.42,12.812 0.31,23.859 -12.37,33.089 -1.85,1.282 -16.7,10.649 -44.62,28.012 -20.72,12.902 -31.5,31.457 -32.3,55.625 -2.12,65.168 83.24,69.676 125.26,50.32 8.26,-3.839 11.88,-10.25 10.95,-19.304 l -1.32,-12.946 c -0.97,-9.41 -5.79,-12.148 -14.36,-8.128 -21.96,10.25 -40.16,20.585 -64.46,10.117 -16.13,-6.938 -7.25,-30.664 3.14,-37.422 v 0"
         style="fill:#42b43b;fill-opacity:1;fill-rule:nonzero;stroke:none"
         id="path38" />
      <path
         d="m 1418.01,560.777 c 0,-4.242 -3.44,-7.687 -7.68,-7.687 h -34.11 c -4.24,0 -7.69,3.445 -7.69,7.687 v 205.621 c 0,4.239 3.45,7.688 7.69,7.688 h 34.11 c 4.24,0 7.68,-3.449 7.68,-7.688 v -205.621 0"
         style="fill:#42b43b;fill-opacity:1;fill-rule:nonzero;stroke:none"
         id="path40" />
      <path
         d="m 559.516,636.602 c -0.211,-28.551 -23.539,-51.571 -52.094,-51.375 l -7.953,0.058 c -28.571,0.192 -51.586,23.516 -51.375,52.094 l 0.371,53.371 c 0.211,28.551 23.539,51.566 52.098,51.375 l 7.953,-0.059 c 28.566,-0.191 51.586,-23.515 51.375,-52.093 z m -42.961,141.289 -18.641,0.519 c -54.363,1.508 -99.691,-41.305 -101.191,-95.691 l -0.899,-32.153 c -1.535,-54.355 41.321,-99.683 95.696,-101.191 l 18.636,-0.52 c 54.364,-1.507 99.692,41.301 101.192,95.692 l 0.894,32.148 c 1.539,54.356 -41.316,99.688 -95.687,101.196"
         style="fill:#42b43b;fill-opacity:1;fill-rule:nonzero;stroke:none"
         id="path42" />
      <path
         d="m 924.73,690.359 -93.136,-0.527 c -1.5,0 -2.739,1.234 -2.739,2.738 l -0.042,3.711 c -0.133,25.449 20.457,46.168 45.992,46.301 h 6.183 c 25.539,0.133 46.305,-20.367 46.438,-45.769 l 0.043,-3.711 c 0,-1.504 -1.239,-2.743 -2.739,-2.743 z m -5.921,82.797 c -22.579,6.848 -45.774,7.203 -69.496,1.063 -60,-15.465 -78.465,-78.114 -71.797,-133.074 11.265,-93.356 97.066,-104.711 173.238,-84.918 11.574,3.003 17.359,10.472 17.359,22.402 v 8.703 c 0,11.617 -5.433,15.328 -16.258,11.133 -13.828,-5.348 -24.652,-9.102 -32.558,-11.266 -26.82,-7.336 -62.344,-2.738 -78.953,21.692 -7.422,10.914 -11.578,25.316 -12.414,43.164 -0.09,1.547 0.66,2.343 2.25,2.343 h 138.906 c 4.598,0 8.484,3.536 8.926,8.129 4.285,44.801 -10.735,96.004 -59.203,110.629"
         style="fill:#42b43b;fill-opacity:1;fill-rule:nonzero;stroke:none"
         id="path44" />
      <path
         d="m 1569.42,584.461 c -48.02,0.219 -56.86,41.57 -56.73,79.523 0.18,37.954 9.41,79.219 57.44,78.996 48.07,-0.218 56.9,-41.574 56.73,-79.48 -0.18,-37.953 -9.37,-79.262 -57.44,-79.039 z m 13.05,193.383 -18.73,0.523 c -54.45,1.504 -99.82,-41.394 -101.33,-95.82 l -0.88,-31.711 c -1.5,-54.449 41.4,-99.824 95.82,-101.328 l 18.72,-0.524 c 54.45,-1.504 99.83,41.395 101.33,95.821 l 0.89,31.711 c 1.5,54.449 -41.4,99.824 -95.82,101.328"
         style="fill:#42b43b;fill-opacity:1;fill-rule:nonzero;stroke:none"
         id="path46" />
      <path
         d="m 2082.94,610.348 c -0.31,-17.582 -13.52,-22.09 -29.34,-25.004 -15.81,-2.961 -38.52,-2.52 -46.08,12.988 -11.84,24.211 0.27,42.016 23.86,49.879 26.91,8.969 43.21,14.492 48.91,16.523 1.28,0.446 2.65,-0.484 2.65,-1.808 0.31,-17.278 0.31,-34.817 0,-52.578 z m 49.17,78.996 c -0.08,27.836 -0.79,44.316 -2.16,49.484 -13.61,51.027 -96.98,42.547 -137.36,32.297 -8.88,-2.254 -16.79,-5.922 -23.68,-10.914 -1.28,-0.926 -1.95,-2.207 -1.95,-3.844 v -24.344 c 0,-5.699 5.66,-9.632 11.01,-7.687 5.34,1.988 14.62,5.656 27.83,11.047 20.1,8.172 41.88,9.453 65.3,3.844 12.81,-3.137 13.3,-20.59 11.66,-31.149 -0.84,-5.258 -3.13,-8.437 -6.98,-9.59 -39.1,-11.883 -62.38,-19.129 -69.76,-21.691 -26.24,-9.059 -51.38,-25.004 -53.9,-55.402 -3.27,-39.454 13.34,-62.957 49.88,-70.512 32.43,-6.719 54.65,1.5 81.12,9.055 1.5,0.441 3.09,-0.352 3.71,-1.856 0.97,-2.473 3,-3.934 6.14,-4.328 9.76,-1.281 20.77,-1.371 33,-0.356 3.36,0.309 5.97,3.137 5.97,6.497 0.26,38.48 0.31,81.601 0.17,129.449"
         style="fill:#42b43b;fill-opacity:1;fill-rule:nonzero;stroke:none"
         id="path48" />
      <path
         d="m 1503.33,145.609 c 0,-1.769 0.62,-2.039 1.85,-0.75 l 78.73,78.731 c 1.37,1.371 3.18,2.121 5.13,2.121 h 38.22 c 5.3,0 7.95,-6.41 4.19,-10.16 l -82.35,-82.403 c -2.56,-2.566 -2.83,-6.589 -0.62,-9.457 l 80.81,-105.4996 c 4.06,-5.3516 0.26,-13.04296 -6.45,-13.04296 h -37.16 c -3.71,0 -7.16,1.77344 -9.37,4.78125 L 1506.07,105.09 c -1.82,2.48 -2.74,2.172 -2.74,-0.879 V 14.082 c 0,-4.91012 -3.98,-8.88278 -8.88,-8.88278 l -33.54,-0.05078 c -2.21,0 -4.37,1.55078 -5.61,4.02344 -1.59,3.26952 -2.38,9.05862 -2.34,17.36722 0.13,37.2422 0.18,130.1599 0.13,278.7809 0,5.918 2.96,8.879 8.93,8.879 h 37.11 c 2.3,0 4.2,-1.898 4.2,-4.199 v -164.391 0"
         style="fill:#ffffff;fill-opacity:1;fill-rule:nonzero;stroke:none"
         id="path50" />
      <path
         d="m 78.5703,228.711 c -1.5039,2.43 -2.2539,2.211 -2.2539,-0.66 V 15.6719 C 76.3164,9.78906 71.543,5.01953 65.625,5.01953 H 42.2969 c -5.875,0 -10.6016,4.73047 -10.6016,10.60937 V 286.988 c 0,6.403 3.1797,9.633 9.586,9.633 h 45.9492 c 4.0195,0 7.6875,-2.121 9.7617,-5.57 L 219.859,85.4805 c 1.196,-1.8985 1.77,-1.7696 1.77,0.4804 V 290.922 c 0,3.137 2.519,5.648 5.656,5.648 h 29.246 c 5.391,0 9.723,-4.332 9.723,-9.672 V 15.3594 c 0,-5.3008 -4.156,-9.67971 -9.5,-9.98831 -9.367,-0.48046 -21.914,-0.4414 -37.688,0.08985 -3.843,0.14062 -7.421,3.05078 -10.648,8.80076 -5.965,10.6367 -9.719,17.2696 -11.266,19.7891 C 142.234,124.84 102.691,189.699 78.5703,228.711 v 0"
         style="fill:#ffffff;fill-opacity:1;fill-rule:nonzero;stroke:none"
         id="path52" />
      <path
         d="m 613.25,225.969 h 56.375 c 6.852,0 10.254,-3.399 10.254,-10.25 v -13.61 c 0,-7.64 -3.848,-11.48 -11.535,-11.48 h -55.977 c -0.75,0 -1.371,-0.617 -1.371,-1.418 -0.262,-55.27 -0.176,-97.5001 0.266,-126.711 0.308,-22.3086 19.308,-31.2305 38.836,-23.5898 5.832,2.3007 11.312,4.0586 16.39,5.3007 9.102,2.25 13.653,-1.332 13.653,-10.6914 v -8.75 c 0,-10.0703 -4.86,-16.42966 -14.578,-19.08981 C 615.152,-8.10156 561.691,0.25 561.293,63.6094 561.25,71.25 560.941,112.871 560.41,188.371 c 0,1.551 -0.75,2.301 -2.297,2.301 h -21.297 c -7.554,0 -11.351,3.758 -11.351,11.308 v 14.27 c 0,6.41 3.223,9.629 9.676,9.629 h 23.148 c 1.59,0 2.387,0.801 2.387,2.391 v 48.16 c 0,3.8 3.047,6.851 6.847,6.851 h 36.141 c 3.977,0 7.199,-3.23 7.199,-7.211 v -47.761 c 0,-1.539 0.797,-2.34 2.387,-2.34 v 0"
         style="fill:#ffffff;fill-opacity:1;fill-rule:nonzero;stroke:none"
         id="path54" />
      <path
         d="m 1347.37,215.102 c 0.09,-1.012 1.15,-1.68 2.12,-1.231 21.12,9.719 41.26,20.848 66.45,15.418 6.18,-1.328 9.23,-5.129 9.23,-11.398 v -17.719 c 0,-6.723 -3.36,-9.684 -10.03,-8.84 -21.56,2.738 -63.71,12.066 -64.99,-21.602 -0.62,-18.121 -0.93,-70.6011 -0.84,-157.4605 0,-3.92966 -3.22,-7.12106 -7.16,-7.12106 l -33.31,0.05078 c -5.08,0 -9.14,4.0625 -9.14,9.10158 l 0.08,204.4292 c 0,3.93 3.18,7.11 7.16,7.11 l 35.3,0.129 c 1.02,0 2.03,-0.789 3.09,-2.379 1.02,-1.59 1.68,-4.418 2.04,-8.488 v 0"
         style="fill:#ffffff;fill-opacity:1;fill-rule:nonzero;stroke:none"
         id="path56" />
      <path
         d="m 930.648,56.9805 c 0.622,-2.4805 1.239,-2.4805 1.903,0 l 43.121,165.5505 c 0.484,1.848 2.164,3.18 4.105,3.18 h 36.403 c 6.01,0 8.13,-2.871 6.41,-8.621 C 1002.58,151.57 981.813,84.2383 960.297,15.0117 957.07,4.71094 950.133,0.820313 939.223,0.648438 929.191,0.46875 921.461,0.378906 916.023,0.429688 903.434,0.46875 895.836,6.21094 893.227,17.6602 885.32,52.4297 874.098,100.719 859.605,162.531 c -1.015,4.367 -1.988,4.367 -3.003,0 C 844.629,109.91 832.965,60.9492 821.652,15.6719 819.844,8.42188 813.789,1.53125 805.66,1.05078 796.867,0.46875 785.16,0.378906 770.625,0.738281 761.922,0.910156 755.824,7.5 753.484,14.9609 c -6.629,21.168 -26.332,84.6094 -59.16,190.2891 -1.679,5.391 -2.918,10.379 -3.758,14.98 -0.484,2.872 1.68,5.52 4.598,5.52 h 43.914 c 1.813,0 2.961,-0.879 3.449,-2.609 l 45.86,-163.5121 c 1.547,-5.5703 2.961,-5.5195 4.195,0.1328 6.762,31.4571 18.379,81.3403 34.902,149.5973 1.282,5.262 4.375,10.032 9.235,14.313 1.105,0.976 2.429,1.508 3.89,1.637 9.809,0.711 19.485,0.882 28.981,0.531 11.047,-0.442 16.48,-0.129 21.738,-8.969 2.297,-3.84 4.375,-9.941 6.274,-18.332 14.976,-66.629 26.023,-113.8202 33.046,-141.5585 v 0"
         style="fill:#ffffff;fill-opacity:1;fill-rule:nonzero;stroke:none"
         id="path58" />
      <path
         d="m 461.18,144.809 c 0,-1.457 -1.149,-2.61 -2.606,-2.61 l -92.961,-0.347 c -1.41,0 -2.605,1.187 -2.605,2.609 v 3.969 c -0.086,25.582 20.941,46.441 46.965,46.531 h 3.886 c 26.024,0.09 47.231,-20.59 47.321,-46.172 z m -8.617,80.722 c -22.622,6.801 -45.817,7.11 -69.586,0.93 C 322.98,210.91 304.602,148.172 311.359,93.1602 322.805,-0.28125 408.691,-11.5 484.906,8.46875 496.48,11.4688 502.223,18.9805 502.223,30.9102 v 8.7109 C 502.18,51.2383 496.746,54.9492 485.922,50.75 472.094,45.3594 461.223,41.6016 453.359,39.3906 426.496,32.0195 390.977,36.5703 374.273,61 c -7.421,10.9102 -11.617,25.3203 -12.503,43.16 -0.086,1.551 0.664,2.352 2.253,2.352 l 139.04,0.218 c 4.64,0 8.484,3.532 8.925,8.168 4.242,44.84 -10.914,96.051 -59.425,110.633"
         style="fill:#ffffff;fill-opacity:1;fill-rule:nonzero;stroke:none"
         id="path60" />
      <path
         d="m 1203.37,88.7695 c -0.08,-28.4297 -23.23,-51.4492 -51.69,-51.3281 l -7.86,0.0195 c -28.45,0.1211 -51.42,23.2305 -51.34,51.6993 l 0.19,53.8988 c 0.08,28.441 23.23,51.453 51.69,51.339 l 7.87,-0.027 c 28.44,-0.121 51.42,-23.23 51.33,-51.699 z m -42.99,141.1995 -18.81,0.492 c -54.56,1.43 -99.98,-41.641 -101.39,-96.211 l -0.82,-31.27 C 1037.92,48.4102 1081,3.03125 1135.57,1.60156 l 18.82,-0.5 c 54.56,-1.421873 99.98,41.64844 101.38,96.21874 l 0.82,31.2697 c 1.44,54.57 -41.63,99.941 -96.21,101.379"
         style="fill:#ffffff;fill-opacity:1;fill-rule:nonzero;stroke:none"
         id="path62" />
    </g>
  </g>
</svg>
